<?xml version="1.0" encoding="UTF-8"?>
<svg width="104px" height="29px" viewBox="0 0 104 29" version="1.1" xmlns="http://www.w3.org/2000/svg" xmlns:xlink="http://www.w3.org/1999/xlink">
    <!-- Generator: Sketch 53 (72520) - https://sketchapp.com -->
    <title>AIChE_Global_Home_Logo_Tagline_Below_PMS2925</title>
    <desc>Created with Sketch.</desc>
    <defs>
        <polygon id="path-1" points="0.06 0.708 45.723 0.708 45.723 27.861 0.06 27.861"></polygon>
        <polygon id="path-3" points="0.997 0.91 6.841 0.91 6.841 4.939 0.997 4.939"></polygon>
    </defs>
    <g id="AIChE_Global_Home_Logo_Tagline_Below_PMS2925" stroke="none" stroke-width="1" fill="none" fill-rule="evenodd">
        <path d="M88.913,19.559 C88.799,19.476 88.689,19.388 88.581,19.296 C88.51,19.238 88.45,19.206 88.402,19.202 L88.203,19.202 C88.181,19.203 88.161,19.218 88.255,19.296 C88.37,19.388 88.49,19.476 88.609,19.559 C88.688,19.612 88.747,19.64 88.789,19.646 L88.966,19.646 C88.986,19.642 88.998,19.627 88.913,19.559 Z M92.065,13.896 C92.171,13.885 92.228,13.831 92.237,13.733 C92.231,13.568 92.231,13.402 92.228,13.235 C92.213,13.133 92.153,13.078 92.048,13.068 L91.521,13.068 C91.416,13.078 91.36,13.133 91.352,13.235 C91.36,13.402 91.364,13.568 91.374,13.733 C91.388,13.831 91.448,13.885 91.554,13.896 L92.065,13.896 Z M87.87,5.552 L87.493,5.552 C87.414,5.562 87.352,5.607 87.312,5.695 C87.256,5.839 87.202,5.984 87.154,6.133 C87.13,6.225 87.156,6.272 87.232,6.285 L87.627,6.285 C87.71,6.272 87.772,6.225 87.806,6.133 C87.854,5.984 87.9,5.839 87.948,5.695 C87.968,5.607 87.943,5.562 87.87,5.552 Z M87.096,17.669 C87.035,17.592 86.977,17.552 86.913,17.545 L86.648,17.545 C86.601,17.552 86.603,17.592 86.656,17.669 C86.75,17.791 86.846,17.912 86.943,18.029 C87.009,18.101 87.069,18.139 87.124,18.145 L87.372,18.145 C87.419,18.139 87.418,18.103 87.364,18.029 C87.274,17.912 87.185,17.791 87.096,17.669 Z M87.806,15.619 C87.772,15.527 87.71,15.478 87.627,15.47 L87.232,15.47 C87.156,15.478 87.13,15.527 87.154,15.619 C87.202,15.768 87.256,15.913 87.312,16.057 C87.352,16.144 87.414,16.19 87.493,16.2 L87.87,16.2 C87.943,16.19 87.968,16.144 87.948,16.057 C87.9,15.913 87.854,15.768 87.806,15.619 Z M86.682,8.684 L87.116,8.684 C87.208,8.675 87.264,8.62 87.288,8.516 C87.308,8.35 87.335,8.185 87.362,8.019 C87.372,7.919 87.334,7.866 87.246,7.855 L86.822,7.855 C86.736,7.866 86.68,7.919 86.652,8.019 C86.621,8.185 86.592,8.35 86.566,8.516 C86.561,8.62 86.599,8.675 86.682,8.684 Z M89.696,13.733 C89.68,13.568 89.666,13.402 89.652,13.235 C89.632,13.133 89.576,13.078 89.471,13.068 L88.978,13.068 C88.883,13.078 88.832,13.133 88.835,13.235 C88.853,13.402 88.869,13.568 88.891,13.733 C88.913,13.831 88.968,13.885 89.07,13.896 L89.55,13.896 C89.648,13.885 89.696,13.831 89.696,13.733 Z M91.027,20.412 C90.966,20.376 90.924,20.357 90.886,20.353 L90.734,20.353 L90.724,20.357 C90.727,20.37 90.748,20.386 90.788,20.412 C90.894,20.466 90.998,20.517 91.103,20.562 C91.169,20.589 91.219,20.606 91.248,20.608 L91.366,20.608 L91.372,20.606 C91.364,20.594 91.352,20.584 91.306,20.562 C91.215,20.517 91.121,20.466 91.027,20.412 Z M90.922,19.646 L91.169,19.646 C91.219,19.64 91.229,19.613 91.203,19.559 C91.157,19.476 91.111,19.388 91.063,19.296 C91.027,19.238 90.981,19.206 90.922,19.202 L90.639,19.202 C90.616,19.203 90.557,19.21 90.603,19.296 C90.661,19.388 90.716,19.476 90.776,19.559 C90.82,19.612 90.868,19.64 90.922,19.646 Z M89.491,16.2 L89.919,16.2 C90.004,16.19 90.04,16.144 90.035,16.057 C90.006,15.913 89.977,15.768 89.951,15.619 C89.929,15.527 89.869,15.478 89.774,15.47 L89.325,15.47 C89.237,15.478 89.201,15.527 89.207,15.619 C89.243,15.768 89.275,15.913 89.311,16.057 C89.343,16.144 89.401,16.19 89.491,16.2 Z M86.822,13.896 L87.246,13.896 C87.334,13.885 87.372,13.831 87.362,13.733 C87.335,13.568 87.308,13.402 87.288,13.235 C87.264,13.133 87.208,13.078 87.116,13.068 L86.682,13.068 C86.599,13.078 86.561,13.133 86.566,13.235 C86.592,13.402 86.621,13.568 86.652,13.733 C86.68,13.831 86.736,13.885 86.822,13.896 Z M89.728,19.296 C89.672,19.238 89.618,19.206 89.564,19.202 L89.311,19.202 C89.267,19.206 89.269,19.238 89.321,19.296 C89.411,19.388 89.502,19.476 89.596,19.559 C89.656,19.612 89.71,19.64 89.762,19.646 L89.981,19.646 C90.02,19.64 90.019,19.613 89.969,19.559 C89.891,19.476 89.807,19.388 89.728,19.296 Z M88.492,18.145 L88.799,18.145 C88.856,18.139 88.869,18.103 88.835,18.029 C88.767,17.912 88.701,17.791 88.635,17.669 C88.589,17.592 88.532,17.552 88.46,17.545 L88.127,17.545 C88.063,17.552 88.051,17.592 88.087,17.669 C88.161,17.791 88.239,17.912 88.313,18.029 C88.364,18.101 88.424,18.139 88.492,18.145 Z M83.778,7.855 L83.546,7.855 C83.497,7.866 83.457,7.919 83.425,8.019 C83.375,8.185 83.331,8.35 83.294,8.516 C83.271,8.62 83.286,8.675 83.331,8.684 L83.564,8.684 C83.623,8.675 83.66,8.62 83.69,8.516 C83.726,8.35 83.768,8.185 83.812,8.019 C83.837,7.919 83.824,7.866 83.778,7.855 Z M83.69,13.235 C83.66,13.133 83.623,13.078 83.564,13.068 L83.331,13.068 C83.286,13.078 83.271,13.133 83.294,13.235 C83.331,13.402 83.375,13.568 83.425,13.733 C83.457,13.831 83.497,13.885 83.546,13.896 L83.778,13.896 C83.824,13.885 83.837,13.831 83.812,13.733 C83.768,13.568 83.726,13.402 83.69,13.235 Z M83.431,11.144 C83.429,11.056 83.429,10.967 83.429,10.874 C83.429,10.786 83.429,10.696 83.431,10.608 C83.429,10.499 83.401,10.441 83.349,10.43 L83.106,10.43 C83.056,10.441 83.032,10.499 83.022,10.608 C83.022,10.696 83.02,10.786 83.02,10.874 C83.02,10.967 83.022,11.056 83.022,11.144 C83.032,11.255 83.056,11.313 83.106,11.323 L83.349,11.323 C83.401,11.313 83.429,11.255 83.431,11.144 Z M85.733,4.208 C85.779,4.2 85.835,4.16 85.905,4.084 C86.008,3.961 86.12,3.841 86.23,3.724 C86.291,3.651 86.311,3.614 86.281,3.605 L86.112,3.605 C86.07,3.614 86.017,3.652 85.94,3.724 C85.829,3.841 85.713,3.961 85.604,4.084 C85.54,4.16 85.52,4.2 85.55,4.208 L85.733,4.208 Z M85.476,6.285 L85.793,6.285 C85.863,6.272 85.919,6.225 85.962,6.133 C86.026,5.984 86.092,5.839 86.158,5.695 C86.192,5.607 86.182,5.562 86.122,5.552 L85.817,5.552 C85.751,5.562 85.695,5.607 85.644,5.695 C85.574,5.839 85.504,5.984 85.44,6.133 C85.402,6.225 85.416,6.272 85.476,6.285 Z M84.174,6.285 L84.39,6.285 C84.443,6.272 84.492,6.225 84.541,6.133 C84.615,5.984 84.695,5.839 84.775,5.695 C84.818,5.605 84.824,5.562 84.785,5.552 L84.575,5.552 C84.529,5.562 84.479,5.607 84.423,5.695 C84.338,5.839 84.258,5.984 84.18,6.133 C84.139,6.225 84.133,6.272 84.174,6.285 Z M85.259,13.235 C85.229,13.133 85.181,13.078 85.105,13.068 L84.757,13.068 C84.689,13.078 84.663,13.133 84.677,13.235 C84.711,13.402 84.748,13.568 84.789,13.733 C84.82,13.831 84.87,13.885 84.94,13.896 L85.279,13.896 C85.351,13.885 85.378,13.831 85.361,13.733 C85.325,13.568 85.287,13.402 85.259,13.235 Z M84.924,10.43 L84.567,10.43 C84.498,10.441 84.457,10.499 84.448,10.608 C84.443,10.696 84.443,10.786 84.443,10.874 C84.443,10.967 84.443,11.056 84.448,11.144 C84.457,11.255 84.498,11.313 84.567,11.323 L84.924,11.323 C84.998,11.313 85.038,11.255 85.045,11.144 C85.042,11.056 85.042,10.967 85.042,10.874 C85.042,10.786 85.042,10.696 85.045,10.608 C85.038,10.499 84.998,10.441 84.924,10.43 Z M85.817,16.2 L86.122,16.2 C86.182,16.19 86.192,16.144 86.158,16.057 C86.092,15.913 86.026,15.768 85.964,15.619 C85.919,15.527 85.863,15.478 85.793,15.47 L85.476,15.47 C85.416,15.478 85.402,15.527 85.44,15.619 C85.504,15.768 85.574,15.913 85.644,16.057 C85.695,16.144 85.751,16.19 85.817,16.2 Z M85.905,17.669 C85.835,17.592 85.779,17.552 85.733,17.545 L85.55,17.545 C85.52,17.552 85.54,17.592 85.604,17.669 C85.713,17.791 85.829,17.912 85.94,18.029 C86.017,18.101 86.07,18.139 86.112,18.145 L86.281,18.145 C86.311,18.139 86.291,18.103 86.23,18.029 C86.12,17.912 86.008,17.791 85.905,17.669 Z M84.541,15.619 C84.492,15.527 84.443,15.478 84.39,15.47 L84.174,15.47 C84.133,15.478 84.139,15.527 84.18,15.619 C84.258,15.768 84.338,15.913 84.423,16.057 C84.479,16.144 84.529,16.19 84.575,16.2 L84.785,16.2 C84.824,16.19 84.818,16.145 84.775,16.057 C84.695,15.913 84.615,15.768 84.541,15.619 Z M85.279,7.855 L84.94,7.855 C84.87,7.866 84.82,7.919 84.789,8.019 C84.748,8.185 84.711,8.35 84.677,8.516 C84.663,8.62 84.689,8.675 84.757,8.684 L85.105,8.684 C85.181,8.675 85.229,8.62 85.259,8.516 C85.287,8.35 85.325,8.185 85.361,8.019 C85.378,7.919 85.351,7.866 85.279,7.855 Z M87.13,11.144 C87.13,11.056 87.13,10.967 87.13,10.874 C87.13,10.786 87.13,10.696 87.13,10.608 C87.124,10.499 87.073,10.441 86.983,10.43 L86.539,10.43 C86.453,10.441 86.399,10.499 86.389,10.608 C86.389,10.696 86.387,10.786 86.387,10.874 C86.387,10.967 86.389,11.056 86.389,11.144 C86.399,11.255 86.453,11.313 86.539,11.323 L86.983,11.323 C87.073,11.313 87.124,11.255 87.13,11.144 Z M90.431,17.669 C90.399,17.592 90.35,17.552 90.268,17.545 L89.891,17.545 C89.815,17.552 89.791,17.592 89.811,17.669 C89.859,17.791 89.907,17.912 89.953,18.029 C89.991,18.101 90.046,18.139 90.121,18.145 L90.469,18.145 C90.537,18.139 90.565,18.101 90.547,18.029 C90.509,17.912 90.469,17.791 90.431,17.669 Z M100.696,15.47 L100.411,15.47 C100.348,15.478 100.296,15.527 100.25,15.619 C100.18,15.768 100.113,15.913 100.042,16.057 C100.003,16.144 100.011,16.19 100.067,16.2 L100.336,16.2 C100.396,16.19 100.449,16.144 100.503,16.057 C100.577,15.913 100.65,15.768 100.721,15.619 C100.758,15.527 100.75,15.478 100.696,15.47 Z M99.662,13.068 L99.239,13.068 C99.149,13.078 99.094,13.133 99.07,13.235 C99.044,13.402 99.016,13.568 98.984,13.733 C98.976,13.831 99.012,13.885 99.096,13.896 L99.509,13.896 C99.596,13.885 99.648,13.831 99.676,13.733 C99.71,13.568 99.742,13.402 99.771,13.235 C99.779,13.133 99.742,13.078 99.662,13.068 Z M97.831,19.202 L97.649,19.202 C97.603,19.206 97.547,19.238 97.469,19.296 C97.356,19.388 97.238,19.476 97.119,19.559 C97.059,19.607 97.035,19.63 97.043,19.642 L97.053,19.646 L97.212,19.646 C97.252,19.64 97.31,19.612 97.392,19.559 C97.517,19.476 97.643,19.388 97.767,19.296 C97.836,19.238 97.858,19.206 97.831,19.202 Z M98.42,19.202 C98.386,19.206 98.332,19.238 98.245,19.296 C98.107,19.388 97.972,19.476 97.832,19.559 C97.756,19.607 97.729,19.63 97.723,19.642 L97.729,19.646 L97.826,19.646 C97.855,19.64 97.914,19.611 98.004,19.559 C98.147,19.476 98.289,19.388 98.426,19.296 C98.48,19.261 98.532,19.224 98.536,19.203 L98.532,19.202 L98.42,19.202 Z M99.465,17.545 L99.226,17.545 C99.165,17.552 99.108,17.592 99.046,17.669 C98.954,17.791 98.859,17.912 98.761,18.029 C98.706,18.103 98.697,18.139 98.741,18.145 L98.962,18.145 C99.012,18.139 99.072,18.101 99.138,18.029 C99.244,17.912 99.345,17.791 99.443,17.669 C99.501,17.592 99.507,17.552 99.465,17.545 Z M100.252,17.545 C100.212,17.552 100.159,17.592 100.086,17.669 C99.981,17.791 99.867,17.912 99.753,18.029 C99.696,18.092 99.672,18.126 99.68,18.145 L99.825,18.145 C99.859,18.139 99.915,18.101 99.987,18.029 C100.104,17.912 100.222,17.791 100.332,17.669 C100.374,17.623 100.413,17.573 100.407,17.548 L100.397,17.545 L100.252,17.545 Z M102.967,10.608 C102.959,10.499 102.939,10.441 102.897,10.43 L102.698,10.43 C102.656,10.441 102.636,10.499 102.632,10.608 C102.636,10.696 102.636,10.786 102.636,10.874 C102.636,10.967 102.636,11.056 102.632,11.144 C102.636,11.255 102.656,11.313 102.698,11.323 L102.897,11.323 C102.939,11.313 102.959,11.255 102.967,11.144 C102.967,11.056 102.967,10.967 102.967,10.874 C102.967,10.786 102.967,10.696 102.967,10.608 Z M102.669,13.068 L102.476,13.068 C102.433,13.078 102.395,13.133 102.367,13.235 C102.327,13.402 102.283,13.568 102.24,13.733 C102.215,13.831 102.22,13.885 102.257,13.896 L102.451,13.896 C102.492,13.885 102.526,13.831 102.556,13.733 C102.608,13.568 102.65,13.402 102.691,13.235 C102.711,13.133 102.704,13.078 102.669,13.068 Z M101.538,5.695 C101.482,5.607 101.434,5.562 101.396,5.552 L101.227,5.552 C101.195,5.562 101.201,5.605 101.25,5.695 C101.334,5.839 101.412,5.984 101.49,6.133 C101.54,6.225 101.59,6.272 101.631,6.285 L101.809,6.285 C101.838,6.272 101.831,6.225 101.785,6.133 C101.703,5.984 101.623,5.839 101.538,5.695 Z M100.503,5.695 C100.449,5.607 100.396,5.562 100.336,5.552 L100.067,5.552 C100.011,5.562 100.003,5.607 100.042,5.695 C100.113,5.839 100.18,5.984 100.25,6.133 C100.296,6.225 100.348,6.272 100.411,6.285 L100.696,6.285 C100.75,6.272 100.758,6.225 100.721,6.133 C100.65,5.984 100.577,5.839 100.503,5.695 Z M101.4,13.733 C101.442,13.568 101.482,13.402 101.518,13.235 C101.534,13.133 101.514,13.078 101.45,13.068 L101.137,13.068 C101.071,13.078 101.025,13.133 100.997,13.235 C100.964,13.402 100.928,13.568 100.888,13.733 C100.87,13.831 100.892,13.885 100.954,13.896 L101.26,13.896 C101.322,13.885 101.371,13.831 101.4,13.733 Z M101.809,15.47 L101.631,15.47 C101.59,15.478 101.54,15.527 101.49,15.619 C101.412,15.768 101.333,15.913 101.25,16.057 C101.201,16.145 101.195,16.19 101.227,16.2 L101.396,16.2 C101.434,16.19 101.482,16.144 101.538,16.057 C101.623,15.913 101.703,15.768 101.785,15.619 C101.831,15.527 101.838,15.478 101.809,15.47 Z M96.228,18.029 C96.283,17.912 96.335,17.791 96.389,17.669 C96.413,17.592 96.385,17.552 96.31,17.545 L95.913,17.545 C95.829,17.552 95.773,17.592 95.737,17.669 C95.691,17.791 95.649,17.912 95.605,18.029 C95.586,18.103 95.609,18.139 95.684,18.145 L96.048,18.145 C96.126,18.139 96.186,18.101 96.228,18.029 Z M93.339,20.353 C93.304,20.357 93.276,20.376 93.262,20.412 C93.244,20.466 93.224,20.517 93.208,20.562 C93.198,20.592 93.208,20.606 93.236,20.608 L93.377,20.608 C93.405,20.606 93.433,20.591 93.459,20.562 C93.491,20.517 93.524,20.466 93.557,20.412 C93.575,20.376 93.562,20.357 93.526,20.353 L93.339,20.353 Z M92.67,1.144 L92.53,1.144 C92.5,1.147 92.478,1.162 92.458,1.19 C92.433,1.236 92.407,1.286 92.381,1.344 C92.369,1.378 92.381,1.394 92.416,1.4 L92.602,1.4 C92.638,1.396 92.662,1.378 92.672,1.344 C92.682,1.286 92.693,1.236 92.704,1.19 C92.71,1.162 92.699,1.147 92.67,1.144 Z M92.602,20.353 L92.416,20.353 C92.381,20.357 92.369,20.376 92.381,20.412 C92.407,20.466 92.433,20.517 92.458,20.562 C92.478,20.591 92.5,20.606 92.53,20.608 L92.67,20.608 C92.699,20.606 92.71,20.592 92.704,20.562 C92.693,20.517 92.682,20.466 92.672,20.412 C92.662,20.376 92.638,20.357 92.602,20.353 Z M91.815,20.412 C91.777,20.376 91.743,20.357 91.705,20.353 L91.534,20.353 C91.52,20.353 91.49,20.361 91.541,20.412 C91.609,20.466 91.675,20.517 91.745,20.562 C91.789,20.589 91.827,20.606 91.856,20.608 L91.988,20.608 C92.004,20.608 92.016,20.596 91.978,20.562 C91.922,20.517 91.868,20.466 91.815,20.412 Z M92.548,19.559 C92.536,19.476 92.526,19.388 92.518,19.296 C92.502,19.238 92.471,19.206 92.405,19.202 L92.102,19.202 C92.044,19.206 92.016,19.238 92.024,19.296 C92.044,19.388 92.065,19.476 92.089,19.559 C92.109,19.612 92.147,19.64 92.204,19.646 L92.465,19.646 C92.522,19.64 92.548,19.612 92.548,19.559 Z M94.017,19.296 C94.029,19.238 94.005,19.206 93.943,19.202 L93.634,19.202 C93.573,19.206 93.535,19.238 93.515,19.296 C93.501,19.388 93.485,19.476 93.471,19.559 C93.465,19.612 93.489,19.64 93.544,19.646 L93.812,19.646 C93.868,19.64 93.908,19.612 93.931,19.559 C93.959,19.476 93.987,19.388 94.017,19.296 Z M94.647,16.057 C94.665,15.913 94.683,15.768 94.699,15.619 C94.699,15.527 94.649,15.478 94.553,15.47 L94.065,15.47 C93.965,15.478 93.91,15.527 93.894,15.619 C93.886,15.768 93.876,15.913 93.866,16.057 C93.87,16.144 93.917,16.19 94.009,16.2 L94.476,16.2 C94.571,16.19 94.629,16.144 94.647,16.057 Z M96.798,19.202 L96.553,19.202 C96.497,19.206 96.443,19.238 96.383,19.296 C96.294,19.388 96.204,19.476 96.112,19.559 C96.062,19.613 96.056,19.64 96.096,19.646 L96.307,19.646 C96.355,19.64 96.413,19.612 96.48,19.559 C96.582,19.476 96.68,19.388 96.778,19.296 C96.836,19.238 96.837,19.206 96.798,19.202 Z M91.699,16.2 L92.157,16.2 C92.249,16.19 92.299,16.144 92.305,16.057 C92.299,15.913 92.293,15.768 92.289,15.619 C92.275,15.527 92.221,15.478 92.122,15.47 L91.642,15.47 C91.545,15.478 91.498,15.527 91.496,15.619 C91.508,15.768 91.521,15.913 91.534,16.057 C91.554,16.144 91.607,16.19 91.699,16.2 Z M96.951,15.47 L96.48,15.47 C96.383,15.478 96.319,15.527 96.291,15.619 C96.261,15.768 96.229,15.913 96.2,16.057 C96.186,16.144 96.224,16.19 96.315,16.2 L96.764,16.2 C96.859,16.19 96.921,16.144 96.955,16.057 C96.995,15.913 97.031,15.768 97.069,15.619 C97.085,15.527 97.043,15.478 96.951,15.47 Z M94.266,20.353 C94.222,20.357 94.185,20.376 94.141,20.412 C94.079,20.466 94.017,20.517 93.955,20.562 C93.917,20.592 93.914,20.606 93.937,20.608 L94.075,20.608 C94.107,20.606 94.148,20.589 94.196,20.562 C94.274,20.517 94.35,20.466 94.424,20.412 C94.446,20.394 94.49,20.358 94.444,20.353 L94.266,20.353 Z M95.257,20.357 L95.257,20.354 L95.249,20.353 L95.102,20.353 C95.065,20.357 95.018,20.376 94.95,20.412 C94.848,20.466 94.745,20.517 94.639,20.562 C94.575,20.594 94.573,20.601 94.571,20.608 L94.689,20.608 C94.719,20.606 94.767,20.589 94.84,20.562 C94.958,20.517 95.069,20.466 95.183,20.412 C95.227,20.386 95.251,20.37 95.257,20.357 Z M95.763,20.353 C95.733,20.357 95.68,20.376 95.592,20.412 C95.46,20.466 95.323,20.517 95.189,20.562 C95.091,20.596 95.087,20.6 95.08,20.608 L95.164,20.608 C95.179,20.607 95.221,20.596 95.335,20.562 C95.478,20.517 95.622,20.466 95.763,20.412 C95.859,20.37 95.865,20.364 95.875,20.354 L95.871,20.353 L95.763,20.353 Z M88.799,3.605 L88.492,3.605 C88.424,3.614 88.364,3.652 88.313,3.724 C88.239,3.841 88.161,3.961 88.087,4.084 C88.051,4.16 88.063,4.2 88.127,4.208 L88.458,4.208 C88.532,4.2 88.589,4.16 88.635,4.084 C88.701,3.961 88.767,3.841 88.835,3.724 C88.869,3.651 88.856,3.614 88.799,3.605 Z M96.315,5.552 C96.224,5.562 96.186,5.607 96.2,5.695 C96.229,5.839 96.261,5.984 96.291,6.133 C96.319,6.225 96.383,6.272 96.48,6.285 L96.951,6.285 C97.043,6.272 97.085,6.225 97.069,6.133 C97.031,5.984 96.995,5.839 96.955,5.695 C96.921,5.607 96.859,5.562 96.764,5.552 L96.315,5.552 Z M97.394,18.145 L97.69,18.145 C97.756,18.139 97.814,18.101 97.874,18.029 C97.956,17.912 98.036,17.791 98.115,17.669 C98.157,17.592 98.151,17.552 98.089,17.545 L97.767,17.545 C97.692,17.552 97.635,17.592 97.583,17.669 C97.513,17.791 97.44,17.912 97.364,18.029 C97.326,18.101 97.334,18.139 97.394,18.145 Z M96.112,2.192 C96.204,2.276 96.294,2.363 96.383,2.456 C96.443,2.515 96.497,2.543 96.557,2.551 L96.798,2.551 C96.837,2.543 96.836,2.514 96.778,2.456 C96.68,2.363 96.582,2.276 96.48,2.192 C96.413,2.141 96.355,2.112 96.307,2.108 L96.096,2.108 C96.056,2.112 96.062,2.138 96.112,2.192 Z M95.494,2.456 C95.426,2.363 95.359,2.276 95.293,2.192 C95.247,2.141 95.197,2.112 95.14,2.108 L94.88,2.108 C94.828,2.112 94.816,2.138 94.846,2.192 C94.902,2.276 94.958,2.363 95.008,2.456 C95.05,2.514 95.1,2.543 95.164,2.551 L95.46,2.551 C95.518,2.543 95.53,2.514 95.494,2.456 Z M98.115,4.084 C98.036,3.961 97.956,3.841 97.874,3.724 C97.814,3.652 97.756,3.614 97.69,3.605 L97.394,3.605 C97.334,3.614 97.326,3.652 97.364,3.724 C97.44,3.841 97.513,3.961 97.583,4.084 C97.635,4.16 97.692,4.2 97.767,4.208 L98.089,4.208 C98.151,4.2 98.157,4.16 98.115,4.084 Z M96.389,4.084 C96.335,3.961 96.283,3.841 96.228,3.724 C96.186,3.652 96.126,3.614 96.048,3.605 L95.684,3.605 C95.609,3.614 95.586,3.651 95.605,3.724 C95.649,3.841 95.691,3.961 95.737,4.084 C95.773,4.16 95.829,4.2 95.913,4.208 L96.31,4.208 C96.385,4.2 96.413,4.16 96.389,4.084 Z M94.88,19.646 L95.14,19.646 C95.197,19.64 95.247,19.612 95.293,19.559 C95.359,19.476 95.426,19.388 95.494,19.296 C95.53,19.238 95.518,19.206 95.46,19.202 L95.164,19.202 C95.1,19.206 95.05,19.238 95.008,19.296 C94.958,19.388 94.902,19.476 94.846,19.559 C94.816,19.613 94.828,19.64 94.88,19.646 Z M94.148,13.896 L94.671,13.896 C94.78,13.885 94.838,13.831 94.856,13.733 C94.866,13.568 94.877,13.402 94.882,13.235 C94.877,13.133 94.822,13.078 94.713,13.068 L94.181,13.068 C94.071,13.078 94.009,13.133 93.997,13.235 C93.989,13.402 93.985,13.568 93.981,13.733 C93.985,13.831 94.043,13.885 94.148,13.896 Z M94.21,11.323 L94.755,11.323 C94.866,11.313 94.926,11.255 94.938,11.144 C94.94,11.056 94.94,10.967 94.94,10.874 C94.94,10.786 94.94,10.696 94.938,10.608 C94.926,10.499 94.866,10.441 94.755,10.43 L94.21,10.43 C94.099,10.441 94.039,10.499 94.027,10.608 C94.027,10.696 94.027,10.786 94.027,10.874 C94.027,10.967 94.027,11.056 94.027,11.144 C94.039,11.255 94.099,11.313 94.21,11.323 Z M95.592,1.344 C95.68,1.378 95.733,1.396 95.763,1.4 L95.871,1.4 L95.873,1.394 C95.855,1.381 95.821,1.366 95.763,1.344 C95.622,1.286 95.478,1.236 95.335,1.19 C95.221,1.156 95.179,1.145 95.164,1.144 C95.136,1.144 95.105,1.144 95.08,1.147 C95.094,1.157 95.114,1.167 95.189,1.19 C95.323,1.236 95.46,1.286 95.592,1.344 Z M96.046,1.344 C96.152,1.379 96.204,1.396 96.228,1.4 C96.252,1.4 96.273,1.4 96.295,1.397 C96.273,1.386 96.19,1.356 96.154,1.344 C95.993,1.286 95.829,1.236 95.668,1.19 C95.532,1.15 95.494,1.145 95.484,1.144 L95.432,1.145 C95.444,1.15 95.472,1.159 95.576,1.19 C95.733,1.236 95.891,1.286 96.046,1.344 Z M94.671,7.855 L94.148,7.855 C94.043,7.866 93.985,7.919 93.981,8.019 C93.985,8.185 93.989,8.35 93.997,8.516 C94.009,8.62 94.071,8.675 94.181,8.684 L94.713,8.684 C94.822,8.675 94.877,8.62 94.882,8.516 C94.877,8.35 94.866,8.185 94.856,8.019 C94.838,7.919 94.78,7.866 94.671,7.855 Z M97.119,2.192 C97.238,2.276 97.356,2.363 97.469,2.456 C97.547,2.515 97.603,2.543 97.649,2.551 L97.831,2.551 C97.848,2.549 97.864,2.534 97.767,2.456 C97.643,2.363 97.517,2.276 97.392,2.192 C97.31,2.141 97.252,2.112 97.212,2.108 L97.043,2.108 C97.035,2.123 97.059,2.146 97.119,2.192 Z M99.387,11.323 L99.821,11.323 C99.907,11.313 99.951,11.255 99.963,11.144 C99.965,11.056 99.965,10.967 99.965,10.874 C99.965,10.786 99.965,10.696 99.963,10.608 C99.951,10.499 99.907,10.441 99.821,10.43 L99.387,10.43 C99.299,10.441 99.249,10.499 99.244,10.608 C99.244,10.696 99.244,10.786 99.244,10.874 C99.244,10.967 99.244,11.056 99.244,11.144 C99.249,11.255 99.299,11.313 99.387,11.323 Z M100.086,4.084 C100.159,4.16 100.212,4.2 100.252,4.208 L100.397,4.208 L100.407,4.205 C100.413,4.181 100.374,4.129 100.332,4.084 C100.222,3.961 100.104,3.841 99.987,3.724 C99.915,3.652 99.859,3.614 99.825,3.605 L99.688,3.605 L99.68,3.607 C99.672,3.627 99.696,3.66 99.753,3.724 C99.867,3.841 99.981,3.961 100.086,4.084 Z M101.333,11.323 L101.651,11.323 C101.713,11.313 101.749,11.255 101.761,11.144 C101.761,11.056 101.763,10.967 101.763,10.874 C101.763,10.786 101.761,10.696 101.761,10.608 C101.749,10.499 101.713,10.441 101.651,10.43 L101.333,10.43 C101.263,10.441 101.229,10.499 101.225,10.608 C101.227,10.696 101.227,10.786 101.227,10.874 C101.227,10.967 101.227,11.056 101.225,11.144 C101.229,11.255 101.263,11.313 101.333,11.323 Z M96.74,13.896 L97.245,13.896 C97.346,13.885 97.408,13.831 97.434,13.733 C97.456,13.568 97.475,13.402 97.495,13.235 C97.497,13.133 97.448,13.078 97.342,13.068 L96.826,13.068 C96.718,13.078 96.658,13.133 96.636,13.235 C96.623,13.402 96.608,13.568 96.588,13.733 C96.586,13.831 96.634,13.885 96.74,13.896 Z M102.367,8.516 C102.395,8.62 102.433,8.675 102.476,8.684 L102.669,8.684 C102.704,8.675 102.711,8.62 102.691,8.516 C102.65,8.35 102.608,8.185 102.556,8.019 C102.526,7.919 102.492,7.866 102.451,7.855 L102.257,7.855 C102.22,7.866 102.215,7.919 102.24,8.019 C102.283,8.185 102.327,8.35 102.367,8.516 Z M100.997,8.516 C101.025,8.62 101.071,8.675 101.137,8.684 L101.45,8.684 C101.514,8.675 101.534,8.62 101.518,8.516 C101.482,8.35 101.442,8.185 101.4,8.019 C101.371,7.919 101.322,7.866 101.26,7.855 L100.954,7.855 C100.892,7.866 100.87,7.919 100.888,8.019 C100.928,8.185 100.964,8.35 100.997,8.516 Z M98.984,8.019 C99.016,8.185 99.044,8.35 99.07,8.516 C99.094,8.62 99.149,8.675 99.239,8.684 L99.662,8.684 C99.742,8.675 99.779,8.62 99.771,8.516 C99.742,8.35 99.71,8.185 99.676,8.019 C99.648,7.919 99.596,7.866 99.509,7.855 L99.096,7.855 C99.012,7.866 98.976,7.919 98.984,8.019 Z M99.134,6.133 C99.08,5.984 99.02,5.839 98.96,5.695 C98.916,5.607 98.857,5.562 98.779,5.552 L98.412,5.552 C98.336,5.562 98.314,5.607 98.338,5.695 C98.395,5.839 98.446,5.984 98.498,6.133 C98.536,6.225 98.598,6.272 98.68,6.285 L99.064,6.285 C99.138,6.272 99.162,6.225 99.134,6.133 Z M96.921,11.323 L97.448,11.323 C97.555,11.313 97.613,11.255 97.625,11.144 C97.625,11.056 97.627,10.967 97.627,10.874 C97.627,10.786 97.625,10.696 97.625,10.608 C97.613,10.499 97.555,10.441 97.448,10.43 L96.921,10.43 C96.812,10.441 96.754,10.499 96.746,10.608 C96.746,10.696 96.746,10.786 96.746,10.874 C96.746,10.967 96.746,11.056 96.746,11.144 C96.754,11.255 96.812,11.313 96.921,11.323 Z M97.245,7.855 L96.74,7.855 C96.634,7.866 96.586,7.919 96.588,8.019 C96.608,8.185 96.623,8.35 96.636,8.516 C96.658,8.62 96.718,8.675 96.826,8.684 L97.342,8.684 C97.448,8.675 97.497,8.62 97.495,8.516 C97.475,8.35 97.456,8.185 97.434,8.019 C97.408,7.919 97.348,7.866 97.245,7.855 Z M97.832,2.192 C97.972,2.276 98.107,2.363 98.245,2.456 C98.332,2.515 98.386,2.543 98.42,2.551 L98.532,2.551 L98.536,2.549 C98.532,2.531 98.48,2.493 98.426,2.456 C98.289,2.363 98.147,2.276 98.004,2.192 C97.914,2.143 97.855,2.112 97.826,2.108 L97.723,2.108 C97.729,2.123 97.756,2.146 97.832,2.192 Z M98.498,15.619 C98.446,15.768 98.395,15.913 98.338,16.057 C98.314,16.144 98.336,16.19 98.412,16.2 L98.779,16.2 C98.857,16.19 98.916,16.144 98.96,16.057 C99.02,15.913 99.08,15.768 99.134,15.619 C99.162,15.527 99.138,15.478 99.064,15.47 L98.68,15.47 C98.598,15.478 98.536,15.527 98.498,15.619 Z M86.648,4.208 L86.913,4.208 C86.977,4.2 87.035,4.16 87.096,4.084 C87.185,3.961 87.274,3.841 87.364,3.724 C87.418,3.651 87.419,3.614 87.372,3.605 L87.124,3.605 C87.069,3.614 87.009,3.652 86.943,3.724 C86.846,3.841 86.75,3.961 86.656,4.084 C86.603,4.16 86.601,4.2 86.648,4.208 Z M99.046,4.084 C99.108,4.16 99.165,4.2 99.226,4.208 L99.465,4.208 C99.507,4.2 99.501,4.16 99.443,4.084 C99.345,3.961 99.244,3.841 99.138,3.724 C99.072,3.652 99.012,3.614 98.962,3.605 L98.741,3.605 C98.697,3.614 98.706,3.651 98.761,3.724 C98.859,3.841 98.954,3.961 99.046,4.084 Z M89.311,2.551 L89.564,2.551 C89.618,2.543 89.672,2.515 89.728,2.456 C89.807,2.363 89.891,2.276 89.969,2.192 C90.019,2.138 90.02,2.112 89.981,2.108 L89.762,2.108 C89.71,2.112 89.656,2.141 89.596,2.192 C89.502,2.276 89.411,2.363 89.321,2.456 C89.269,2.514 89.267,2.543 89.311,2.551 Z M90.121,3.605 C90.046,3.614 89.991,3.652 89.953,3.724 C89.907,3.841 89.859,3.961 89.811,4.084 C89.791,4.16 89.815,4.2 89.891,4.208 L90.268,4.208 C90.35,4.2 90.399,4.16 90.431,4.084 C90.469,3.961 90.509,3.841 90.547,3.724 C90.565,3.652 90.537,3.614 90.469,3.605 L90.121,3.605 Z M89.831,1.344 C89.981,1.286 90.136,1.236 90.288,1.19 C90.413,1.15 90.419,1.147 90.423,1.144 L90.36,1.144 C90.35,1.145 90.306,1.151 90.178,1.19 C90.017,1.236 89.855,1.286 89.7,1.344 C89.57,1.389 89.57,1.394 89.568,1.4 L89.65,1.4 C89.676,1.396 89.73,1.379 89.831,1.344 Z M90.922,2.108 C90.868,2.112 90.82,2.141 90.776,2.192 C90.716,2.276 90.661,2.363 90.603,2.456 C90.557,2.542 90.616,2.549 90.639,2.551 L90.922,2.551 C90.981,2.543 91.027,2.514 91.063,2.456 C91.111,2.363 91.157,2.276 91.203,2.192 C91.229,2.138 91.219,2.112 91.169,2.108 L90.922,2.108 Z M90.061,1.397 L90.062,1.4 L90.185,1.4 C90.22,1.396 90.268,1.378 90.352,1.344 C90.479,1.286 90.605,1.236 90.734,1.19 C90.794,1.167 90.818,1.159 90.834,1.147 L90.831,1.144 L90.736,1.144 C90.72,1.145 90.672,1.157 90.567,1.19 C90.431,1.236 90.294,1.286 90.161,1.344 C90.07,1.381 90.066,1.389 90.061,1.397 Z M88.203,2.551 L88.402,2.551 C88.45,2.543 88.51,2.515 88.581,2.456 C88.689,2.363 88.799,2.276 88.913,2.192 C88.978,2.138 88.996,2.112 88.966,2.108 L88.789,2.108 C88.747,2.112 88.688,2.141 88.609,2.192 C88.49,2.276 88.37,2.363 88.255,2.456 C88.183,2.514 88.167,2.543 88.203,2.551 Z M90.724,1.394 L90.734,1.4 L90.886,1.4 C90.924,1.396 90.966,1.378 91.027,1.344 C91.121,1.286 91.215,1.236 91.306,1.19 C91.352,1.167 91.364,1.159 91.372,1.147 L91.366,1.145 L91.364,1.144 L91.248,1.144 C91.219,1.147 91.169,1.163 91.103,1.19 C90.998,1.236 90.894,1.286 90.788,1.344 C90.748,1.366 90.727,1.381 90.724,1.394 Z M87.515,2.551 C87.553,2.543 87.611,2.515 87.697,2.456 C87.826,2.363 87.961,2.276 88.095,2.192 C88.167,2.146 88.197,2.123 88.197,2.108 L88.067,2.108 C88.036,2.112 87.976,2.141 87.89,2.192 C87.746,2.276 87.609,2.363 87.472,2.456 C87.421,2.493 87.372,2.531 87.372,2.549 L87.38,2.551 L87.515,2.551 Z M88.891,8.019 C88.869,8.185 88.853,8.35 88.835,8.516 C88.832,8.62 88.883,8.675 88.978,8.684 L89.471,8.684 C89.576,8.675 89.632,8.62 89.652,8.516 C89.666,8.35 89.68,8.185 89.696,8.019 C89.696,7.919 89.648,7.866 89.55,7.855 L89.07,7.855 C88.968,7.866 88.913,7.919 88.891,8.019 Z M94.95,1.344 C95.018,1.378 95.065,1.396 95.102,1.4 L95.249,1.4 L95.257,1.397 L95.257,1.394 C95.251,1.381 95.227,1.366 95.183,1.344 C95.069,1.286 94.958,1.236 94.84,1.19 C94.753,1.157 94.709,1.145 94.689,1.144 L94.575,1.144 L94.569,1.147 C94.577,1.159 94.595,1.167 94.639,1.19 C94.745,1.236 94.848,1.286 94.95,1.344 Z M89.325,6.285 L89.774,6.285 C89.869,6.272 89.929,6.225 89.951,6.133 C89.977,5.984 90.006,5.839 90.035,5.695 C90.04,5.607 90.004,5.562 89.919,5.552 L89.491,5.552 C89.401,5.562 89.343,5.607 89.311,5.695 C89.275,5.839 89.243,5.984 89.207,6.133 C89.201,6.225 89.237,6.272 89.325,6.285 Z M89.391,10.43 L88.891,10.43 C88.787,10.441 88.733,10.499 88.721,10.608 C88.719,10.696 88.719,10.786 88.719,10.874 C88.719,10.967 88.719,11.056 88.721,11.144 C88.733,11.255 88.787,11.313 88.891,11.323 L89.391,11.323 C89.497,11.313 89.555,11.255 89.564,11.144 C89.564,11.056 89.561,10.967 89.561,10.874 C89.561,10.786 89.564,10.696 89.564,10.608 C89.555,10.499 89.497,10.441 89.391,10.43 Z M92.243,17.545 L91.839,17.545 C91.759,17.552 91.723,17.592 91.723,17.669 C91.739,17.791 91.759,17.912 91.777,18.029 C91.799,18.101 91.845,18.139 91.92,18.145 L92.293,18.145 C92.369,18.139 92.407,18.101 92.411,18.029 C92.401,17.912 92.396,17.791 92.387,17.669 C92.374,17.592 92.327,17.552 92.243,17.545 Z M93.471,2.192 C93.485,2.276 93.501,2.363 93.515,2.456 C93.535,2.514 93.573,2.543 93.634,2.551 L93.943,2.551 C94.005,2.543 94.029,2.514 94.017,2.456 C93.987,2.363 93.959,2.276 93.931,2.192 C93.908,2.141 93.868,2.112 93.812,2.108 L93.544,2.108 C93.489,2.112 93.465,2.141 93.471,2.192 Z M93.955,1.19 C94.017,1.236 94.079,1.286 94.141,1.344 C94.185,1.378 94.222,1.396 94.266,1.4 L94.444,1.4 C94.46,1.397 94.488,1.39 94.424,1.344 C94.35,1.286 94.274,1.236 94.196,1.19 C94.148,1.163 94.107,1.147 94.075,1.144 L93.937,1.144 C93.922,1.145 93.91,1.156 93.955,1.19 Z M94.289,4.208 C94.37,4.2 94.412,4.16 94.404,4.084 C94.382,3.961 94.358,3.841 94.335,3.724 C94.313,3.652 94.266,3.614 94.185,3.605 L93.806,3.605 C93.728,3.614 93.692,3.652 93.692,3.724 C93.706,3.841 93.716,3.961 93.732,4.084 C93.748,4.16 93.798,4.2 93.882,4.208 L94.289,4.208 Z M93.692,18.029 C93.692,18.101 93.728,18.139 93.806,18.145 L94.185,18.145 C94.266,18.139 94.313,18.101 94.335,18.029 C94.358,17.912 94.382,17.791 94.404,17.669 C94.412,17.592 94.37,17.552 94.289,17.545 L93.882,17.545 C93.798,17.552 93.748,17.592 93.732,17.669 C93.716,17.791 93.706,17.912 93.692,18.029 Z M93.866,5.695 C93.876,5.839 93.886,5.984 93.894,6.133 C93.91,6.225 93.965,6.272 94.065,6.285 L94.553,6.285 C94.649,6.272 94.699,6.225 94.699,6.133 C94.683,5.984 94.665,5.839 94.647,5.695 C94.629,5.607 94.571,5.562 94.476,5.552 L94.009,5.552 C93.917,5.562 93.87,5.607 93.866,5.695 Z M93.339,1.4 L93.526,1.4 C93.562,1.394 93.575,1.378 93.557,1.344 C93.524,1.286 93.491,1.236 93.459,1.19 C93.433,1.162 93.405,1.147 93.377,1.144 L93.236,1.144 C93.208,1.147 93.198,1.162 93.208,1.19 C93.224,1.236 93.244,1.286 93.262,1.344 C93.276,1.378 93.304,1.396 93.339,1.4 Z M91.534,1.4 L91.705,1.4 C91.743,1.394 91.777,1.378 91.815,1.344 C91.868,1.286 91.922,1.236 91.978,1.19 C92.008,1.162 92.012,1.147 91.988,1.144 L91.856,1.144 C91.827,1.147 91.789,1.163 91.745,1.19 C91.675,1.236 91.609,1.286 91.541,1.344 C91.505,1.378 91.499,1.394 91.534,1.4 Z M91.521,8.684 L92.048,8.684 C92.153,8.675 92.213,8.62 92.228,8.516 C92.231,8.35 92.231,8.185 92.237,8.019 C92.228,7.919 92.171,7.866 92.065,7.855 L91.554,7.855 C91.448,7.866 91.388,7.919 91.374,8.019 C91.364,8.185 91.36,8.35 91.352,8.516 C91.36,8.62 91.416,8.675 91.521,8.684 Z M92.102,2.551 L92.405,2.551 C92.471,2.543 92.502,2.514 92.518,2.456 C92.526,2.363 92.536,2.276 92.548,2.192 C92.548,2.141 92.522,2.112 92.465,2.108 L92.204,2.108 C92.147,2.112 92.109,2.141 92.089,2.192 C92.065,2.276 92.044,2.363 92.024,2.456 C92.016,2.514 92.044,2.543 92.102,2.551 Z M91.642,6.285 L92.122,6.285 C92.221,6.272 92.275,6.225 92.289,6.133 C92.293,5.984 92.299,5.839 92.305,5.695 C92.299,5.607 92.249,5.562 92.157,5.552 L91.699,5.552 C91.607,5.562 91.554,5.607 91.534,5.695 C91.521,5.839 91.508,5.984 91.496,6.133 C91.498,6.225 91.545,6.272 91.642,6.285 Z M92.293,3.605 L91.92,3.605 C91.845,3.614 91.799,3.652 91.777,3.724 C91.759,3.841 91.739,3.961 91.723,4.084 C91.723,4.16 91.759,4.2 91.839,4.208 L92.243,4.208 C92.327,4.2 92.374,4.16 92.387,4.084 C92.396,3.961 92.401,3.841 92.411,3.724 C92.407,3.652 92.369,3.614 92.293,3.605 Z M92.026,10.43 L91.49,10.43 C91.38,10.441 91.32,10.499 91.308,10.608 C91.308,10.696 91.308,10.786 91.308,10.874 C91.308,10.967 91.308,11.056 91.308,11.144 C91.32,11.255 91.38,11.313 91.49,11.323 L92.026,11.323 C92.135,11.313 92.195,11.255 92.207,11.144 C92.207,11.056 92.207,10.967 92.207,10.874 C92.207,10.786 92.207,10.696 92.207,10.608 C92.195,10.499 92.135,10.441 92.026,10.43 L92.026,10.43 Z" id="Fill-1" fill="#008BC0"></path>
        <path d="M6.782,13.187 L10.619,3.991 L14.097,13.187 L6.782,13.187 Z M12.529,1.166 L8.913,1.166 L0.474,20.597 L3.691,20.597 L5.742,15.682 L15.11,15.682 L17.008,20.597 L20.227,20.597 L12.529,1.166 L12.529,1.166 Z" id="Fill-2" fill="#008BC0"></path>
        <polygon id="Fill-3" fill="#008BC0" points="22.504 20.597 25.396 20.597 25.396 1.162 22.504 1.162"></polygon>
        <polyline id="Fill-4" fill="#008BC0" points="75.522 3.656 75.522 1.162 63.056 1.162 63.056 20.597 75.502 20.597 75.502 18.103 65.941 18.103 65.941 11.823 75.16 11.823 75.16 9.33 65.941 9.33 65.941 3.656 75.522 3.656"></polyline>
        <path d="M50.849,20.556 L50.849,13.028 C50.849,10.955 52.364,9.534 53.999,9.534 C55.967,9.534 57.16,10.861 57.16,13.028 L57.16,20.556 L59.852,20.556 L59.852,12.472 C59.852,8.887 57.482,7.18 54.629,7.18 C52.38,7.18 51.184,8.373 50.849,8.678 L50.849,1.012 L48.169,1.012 L48.169,20.556 L50.849,20.556" id="Fill-5" fill="#008BC0"></path>
        <g id="Group-9">
            <mask id="mask-2" fill="white">
                <use xlink:href="#path-1"></use>
            </mask>
            <g id="Clip-7"></g>
            <path d="M43.537,15.896 C42.244,17.86 39.944,18.557 38.258,18.557 C34.191,18.557 31.268,15.4 31.268,10.879 C31.268,6.359 34.223,3.202 38.274,3.202 C40.179,3.202 42.083,4.061 43.042,5.5 L45.217,3.771 C43.527,1.633 41.091,0.708 38.216,0.708 C32.43,0.708 28.31,4.966 28.31,10.879 C28.31,17.165 32.839,21.052 38.329,21.052 C41.423,21.052 44.004,19.858 45.723,17.505 L43.537,15.896" id="Fill-6" fill="#008BC0" mask="url(#mask-2)"></path>
            <polyline id="Fill-8" fill="#1A1919" mask="url(#mask-2)" points="0 23.894 3.212 23.894 3.212 24.495 1.951 24.495 1.951 27.861 1.256 27.861 1.256 24.495 0 24.495 0 23.894"></polyline>
        </g>
        <path d="M3.583,23.894 L4.217,23.894 L4.217,25.367 L4.228,25.367 C4.383,25.105 4.711,24.91 5.089,24.91 C5.711,24.91 6.105,25.245 6.105,25.89 L6.105,27.861 L5.473,27.861 L5.473,26.055 C5.461,25.605 5.283,25.41 4.911,25.41 C4.488,25.41 4.217,25.744 4.217,26.166 L4.217,27.861 L3.583,27.861 L3.583,23.894" id="Fill-10" fill="#1A1919"></path>
        <path d="M8.744,26.173 C8.723,25.772 8.45,25.41 8.022,25.41 C7.583,25.41 7.283,25.744 7.268,26.173 L8.744,26.173 Z M7.268,26.589 C7.268,27.039 7.512,27.438 8.039,27.438 C8.406,27.438 8.629,27.277 8.739,26.961 L9.34,26.961 C9.2,27.589 8.667,27.938 8.039,27.938 C7.14,27.938 6.634,27.311 6.634,26.428 C6.634,25.611 7.168,24.91 8.022,24.91 C8.929,24.91 9.483,25.729 9.378,26.589 L7.268,26.589 L7.268,26.589 Z" id="Fill-11" fill="#1A1919"></path>
        <path d="M14.955,27.861 L14.51,27.861 L14.404,27.394 C14.033,27.816 13.693,27.956 13.21,27.956 C12.021,27.956 11.31,27.011 11.31,25.877 C11.31,24.744 12.021,23.8 13.21,23.8 C14.077,23.8 14.805,24.261 14.91,25.155 L14.232,25.155 C14.166,24.633 13.711,24.366 13.21,24.366 C12.36,24.366 12.005,25.116 12.005,25.877 C12.005,26.639 12.36,27.389 13.21,27.389 C13.921,27.399 14.31,26.972 14.322,26.3 L13.266,26.3 L13.266,25.772 L14.955,25.772 L14.955,27.861" id="Fill-12" fill="#1A1919"></path>
        <polygon id="Fill-13" fill="#1A1919" points="15.638 27.861 16.271 27.861 16.271 23.894 15.638 23.894"></polygon>
        <path d="M19.094,26.422 C19.094,25.928 18.845,25.41 18.277,25.41 C17.711,25.41 17.461,25.928 17.461,26.422 C17.461,26.923 17.711,27.438 18.277,27.438 C18.845,27.438 19.094,26.923 19.094,26.422 Z M16.827,26.422 C16.827,25.544 17.355,24.91 18.277,24.91 C19.2,24.91 19.727,25.544 19.727,26.422 C19.727,27.305 19.2,27.938 18.277,27.938 C17.355,27.938 16.827,27.305 16.827,26.422 L16.827,26.422 Z" id="Fill-14" fill="#1A1919"></path>
        <path d="M21.687,25.41 C21.154,25.41 20.882,25.816 20.882,26.428 C20.882,27.005 21.177,27.438 21.687,27.438 C22.266,27.438 22.481,26.927 22.481,26.428 C22.481,25.905 22.21,25.41 21.687,25.41 Z M20.271,23.894 L20.903,23.894 L20.903,25.36 L20.915,25.36 C21.087,25.084 21.448,24.91 21.77,24.91 C22.676,24.91 23.115,25.6 23.115,26.44 C23.115,27.211 22.727,27.938 21.877,27.938 C21.487,27.938 21.071,27.845 20.882,27.466 L20.87,27.466 L20.87,27.861 L20.271,27.861 L20.271,23.894 L20.271,23.894 Z" id="Fill-15" fill="#1A1919"></path>
        <path d="M25.421,26.422 C25.227,26.55 24.921,26.545 24.643,26.594 C24.371,26.639 24.126,26.739 24.126,27.072 C24.126,27.355 24.487,27.438 24.71,27.438 C24.988,27.438 25.421,27.294 25.421,26.894 L25.421,26.422 Z M26.055,27.222 C26.055,27.378 26.088,27.438 26.204,27.438 C26.243,27.438 26.293,27.438 26.359,27.428 L26.359,27.866 C26.265,27.9 26.065,27.938 25.96,27.938 C25.704,27.938 25.52,27.85 25.472,27.589 C25.221,27.834 24.815,27.938 24.477,27.938 C23.96,27.938 23.492,27.662 23.492,27.1 C23.492,26.384 24.065,26.267 24.599,26.205 C25.055,26.121 25.459,26.173 25.459,25.799 C25.459,25.473 25.121,25.41 24.865,25.41 C24.51,25.41 24.26,25.555 24.231,25.866 L23.599,25.866 C23.643,25.128 24.271,24.91 24.904,24.91 C25.466,24.91 26.055,25.14 26.055,25.744 L26.055,27.222 L26.055,27.222 Z" id="Fill-16" fill="#1A1919"></path>
        <polygon id="Fill-17" fill="#1A1919" points="26.754 27.861 27.387 27.861 27.387 23.894 26.754 23.894"></polygon>
        <polyline id="Fill-18" fill="#1A1919" points="29.693 23.894 30.387 23.894 30.387 25.473 32.192 25.473 32.192 23.894 32.887 23.894 32.887 27.861 32.192 27.861 32.192 26.072 30.387 26.072 30.387 27.861 29.693 27.861 29.693 23.894"></polyline>
        <path d="M35.764,26.422 C35.764,25.928 35.514,25.41 34.947,25.41 C34.381,25.41 34.131,25.928 34.131,26.422 C34.131,26.923 34.381,27.438 34.947,27.438 C35.514,27.438 35.764,26.923 35.764,26.422 Z M33.497,26.422 C33.497,25.544 34.025,24.91 34.947,24.91 C35.87,24.91 36.397,25.544 36.397,26.422 C36.397,27.305 35.87,27.938 34.947,27.938 C34.025,27.938 33.497,27.305 33.497,26.422 L33.497,26.422 Z" id="Fill-19" fill="#1A1919"></path>
        <path d="M36.925,24.989 L37.525,24.989 L37.525,25.389 L37.541,25.389 C37.73,25.105 37.97,24.91 38.425,24.91 C38.775,24.91 39.104,25.061 39.23,25.389 C39.441,25.095 39.714,24.91 40.13,24.91 C40.736,24.91 41.092,25.178 41.092,25.877 L41.092,27.861 L40.459,27.861 L40.459,26.184 C40.459,25.729 40.431,25.41 39.936,25.41 C39.508,25.41 39.325,25.693 39.325,26.177 L39.325,27.861 L38.691,27.861 L38.691,26.016 C38.691,25.622 38.569,25.41 38.186,25.41 C37.858,25.41 37.559,25.678 37.559,26.155 L37.559,27.861 L36.925,27.861 L36.925,24.989" id="Fill-20" fill="#1A1919"></path>
        <path d="M43.728,26.173 C43.707,25.772 43.435,25.41 43.007,25.41 C42.567,25.41 42.268,25.744 42.252,26.173 L43.728,26.173 Z M42.252,26.589 C42.252,27.039 42.495,27.438 43.024,27.438 C43.391,27.438 43.612,27.277 43.724,26.961 L44.324,26.961 C44.185,27.589 43.651,27.938 43.024,27.938 C42.124,27.938 41.618,27.311 41.618,26.428 C41.618,25.611 42.151,24.91 43.007,24.91 C43.912,24.91 44.468,25.729 44.362,26.589 L42.252,26.589 L42.252,26.589 Z" id="Fill-21" fill="#1A1919"></path>
        <path d="M48.522,26.422 C48.522,25.928 48.273,25.41 47.706,25.41 C47.141,25.41 46.89,25.928 46.89,26.422 C46.89,26.923 47.141,27.438 47.706,27.438 C48.273,27.438 48.522,26.923 48.522,26.422 Z M46.256,26.422 C46.256,25.544 46.785,24.91 47.706,24.91 C48.629,24.91 49.156,25.544 49.156,26.422 C49.156,27.305 48.629,27.938 47.706,27.938 C46.785,27.938 46.256,27.305 46.256,26.422 L46.256,26.422 Z" id="Fill-22" fill="#1A1919"></path>
        <path d="M49.401,24.989 L49.873,24.989 L49.873,24.751 C49.873,24.016 50.257,23.894 50.668,23.894 C50.868,23.894 51.012,23.905 51.111,23.933 L51.111,24.429 C51.029,24.404 50.945,24.394 50.817,24.394 C50.645,24.394 50.507,24.455 50.507,24.694 L50.507,24.989 L51.045,24.989 L51.045,25.462 L50.507,25.462 L50.507,27.861 L49.873,27.861 L49.873,25.462 L49.401,25.462 L49.401,24.989" id="Fill-23" fill="#1A1919"></path>
        <path d="M55.745,25.155 C55.628,24.699 55.333,24.366 54.756,24.366 C53.906,24.366 53.55,25.116 53.55,25.877 C53.55,26.639 53.906,27.389 54.756,27.389 C55.372,27.389 55.712,26.927 55.768,26.349 L56.445,26.349 C56.39,27.3 55.717,27.956 54.756,27.956 C53.567,27.956 52.856,27.011 52.856,25.877 C52.856,24.744 53.567,23.8 54.756,23.8 C55.65,23.806 56.356,24.3 56.438,25.155 L55.745,25.155" id="Fill-24" fill="#1A1919"></path>
        <path d="M56.989,23.894 L57.623,23.894 L57.623,25.367 L57.634,25.367 C57.789,25.105 58.117,24.91 58.495,24.91 C59.117,24.91 59.511,25.245 59.511,25.89 L59.511,27.861 L58.878,27.861 L58.878,26.055 C58.866,25.605 58.689,25.41 58.316,25.41 C57.895,25.41 57.623,25.744 57.623,26.166 L57.623,27.861 L56.989,27.861 L56.989,23.894" id="Fill-25" fill="#1A1919"></path>
        <path d="M62.149,26.173 C62.128,25.772 61.855,25.41 61.428,25.41 C60.988,25.41 60.688,25.744 60.672,26.173 L62.149,26.173 Z M60.672,26.589 C60.672,27.039 60.916,27.438 61.444,27.438 C61.81,27.438 62.033,27.277 62.144,26.961 L62.744,26.961 C62.604,27.589 62.072,27.938 61.444,27.938 C60.545,27.938 60.038,27.311 60.038,26.428 C60.038,25.611 60.572,24.91 61.428,24.91 C62.333,24.91 62.889,25.729 62.783,26.589 L60.672,26.589 L60.672,26.589 Z" id="Fill-26" fill="#1A1919"></path>
        <path d="M63.266,24.989 L63.866,24.989 L63.866,25.389 L63.882,25.389 C64.071,25.105 64.311,24.91 64.767,24.91 C65.116,24.91 65.444,25.061 65.572,25.389 C65.782,25.095 66.056,24.91 66.471,24.91 C67.077,24.91 67.433,25.178 67.433,25.877 L67.433,27.861 L66.8,27.861 L66.8,26.184 C66.8,25.729 66.771,25.41 66.276,25.41 C65.849,25.41 65.666,25.693 65.666,26.177 L65.666,27.861 L65.032,27.861 L65.032,26.016 C65.032,25.622 64.91,25.41 64.526,25.41 C64.199,25.41 63.899,25.678 63.899,26.155 L63.899,27.861 L63.266,27.861 L63.266,24.989" id="Fill-27" fill="#1A1919"></path>
        <path d="M68.115,27.861 L68.748,27.861 L68.748,24.989 L68.115,24.989 L68.115,27.861 Z M68.115,24.495 L68.748,24.495 L68.748,23.894 L68.115,23.894 L68.115,24.495 Z" id="Fill-28" fill="#1A1919"></path>
        <path d="M71.376,25.949 C71.326,25.6 71.07,25.41 70.721,25.41 C70.393,25.41 69.932,25.583 69.932,26.455 C69.932,26.934 70.143,27.438 70.692,27.438 C71.059,27.438 71.314,27.194 71.376,26.783 L72.01,26.783 C71.893,27.527 71.432,27.938 70.692,27.938 C69.792,27.938 69.298,27.3 69.298,26.455 C69.298,25.589 69.771,24.91 70.715,24.91 C71.381,24.91 71.948,25.245 72.01,25.949 L71.376,25.949" id="Fill-29" fill="#1A1919"></path>
        <path d="M74.298,26.422 C74.104,26.55 73.798,26.545 73.52,26.594 C73.248,26.639 73.003,26.739 73.003,27.072 C73.003,27.355 73.364,27.438 73.587,27.438 C73.865,27.438 74.298,27.294 74.298,26.894 L74.298,26.422 Z M74.932,27.222 C74.932,27.378 74.965,27.438 75.081,27.438 C75.12,27.438 75.17,27.438 75.236,27.428 L75.236,27.866 C75.142,27.9 74.942,27.938 74.837,27.938 C74.581,27.938 74.397,27.85 74.349,27.589 C74.098,27.834 73.691,27.938 73.354,27.938 C72.837,27.938 72.369,27.662 72.369,27.1 C72.369,26.384 72.942,26.267 73.476,26.205 C73.932,26.121 74.336,26.173 74.336,25.799 C74.336,25.473 73.998,25.41 73.742,25.41 C73.387,25.41 73.137,25.555 73.108,25.866 L72.476,25.866 C72.52,25.128 73.148,24.91 73.781,24.91 C74.343,24.91 74.932,25.14 74.932,25.744 L74.932,27.222 L74.932,27.222 Z" id="Fill-30" fill="#1A1919"></path>
        <polygon id="Fill-31" fill="#1A1919" points="75.632 27.861 76.265 27.861 76.265 23.894 75.632 23.894"></polygon>
        <polyline id="Fill-32" fill="#1A1919" points="78.586 23.894 81.441 23.894 81.441 24.495 79.281 24.495 79.281 25.532 81.28 25.532 81.28 26.1 79.281 26.1 79.281 27.261 81.481 27.261 81.481 27.861 78.586 27.861 78.586 23.894"></polyline>
        <g id="Group-36" transform="translate(81.000000, 24.000000)">
            <mask id="mask-4" fill="white">
                <use xlink:href="#path-3"></use>
            </mask>
            <g id="Clip-34"></g>
            <path d="M0.997,0.989 L1.597,0.989 L1.597,1.41 L1.607,1.422 C1.797,1.105 2.125,0.91 2.503,0.91 C3.125,0.91 3.519,1.245 3.519,1.89 L3.519,3.861 L2.886,3.861 L2.886,2.055 C2.874,1.605 2.697,1.41 2.324,1.41 C1.902,1.41 1.631,1.744 1.631,2.166 L1.631,3.861 L0.997,3.861 L0.997,0.989" id="Fill-33" fill="#1A1919" mask="url(#mask-4)"></path>
            <path d="M6.208,2.36 C6.208,1.866 5.985,1.41 5.436,1.41 C4.875,1.41 4.68,1.934 4.68,2.411 C4.68,2.884 4.908,3.361 5.436,3.361 C5.996,3.361 6.208,2.85 6.208,2.36 Z M6.841,3.711 C6.841,4.572 6.336,5 5.43,5 C4.852,5 4.202,4.776 4.146,4.105 L4.78,4.105 C4.857,4.466 5.146,4.527 5.469,4.527 C5.979,4.527 6.208,4.267 6.208,3.795 L6.208,3.355 L6.197,3.355 C6.019,3.673 5.691,3.861 5.335,3.861 C4.425,3.861 4.046,3.172 4.046,2.349 C4.046,1.578 4.529,0.91 5.346,0.91 C5.707,0.91 6.036,1.061 6.197,1.383 L6.208,1.383 L6.208,0.989 L6.841,0.989 L6.841,3.711 L6.841,3.711 Z" id="Fill-35" fill="#1A1919" mask="url(#mask-4)"></path>
        </g>
        <path d="M88.497,27.861 L89.13,27.861 L89.13,24.989 L88.497,24.989 L88.497,27.861 Z M88.497,24.495 L89.13,24.495 L89.13,23.894 L88.497,23.894 L88.497,24.495 Z" id="Fill-37" fill="#1A1919"></path>
        <path d="M89.818,24.989 L90.419,24.989 L90.419,25.41 L90.43,25.422 C90.618,25.105 90.946,24.91 91.324,24.91 C91.946,24.91 92.34,25.245 92.34,25.89 L92.34,27.861 L91.708,27.861 L91.708,26.055 C91.695,25.605 91.519,25.41 91.145,25.41 C90.724,25.41 90.452,25.744 90.452,26.166 L90.452,27.861 L89.818,27.861 L89.818,24.989" id="Fill-38" fill="#1A1919"></path>
        <path d="M94.979,26.173 C94.957,25.772 94.685,25.41 94.257,25.41 C93.817,25.41 93.518,25.744 93.502,26.173 L94.979,26.173 Z M93.502,26.589 C93.502,27.039 93.745,27.438 94.272,27.438 C94.641,27.438 94.862,27.277 94.974,26.961 L95.573,26.961 C95.434,27.589 94.901,27.938 94.272,27.938 C93.374,27.938 92.868,27.311 92.868,26.428 C92.868,25.611 93.401,24.91 94.257,24.91 C95.162,24.91 95.718,25.729 95.612,26.589 L93.502,26.589 L93.502,26.589 Z" id="Fill-39" fill="#1A1919"></path>
        <path d="M98.067,26.173 C98.046,25.772 97.772,25.41 97.345,25.41 C96.905,25.41 96.606,25.744 96.59,26.173 L98.067,26.173 Z M96.59,26.589 C96.59,27.039 96.834,27.438 97.362,27.438 C97.729,27.438 97.951,27.277 98.062,26.961 L98.662,26.961 C98.522,27.589 97.989,27.938 97.362,27.938 C96.462,27.938 95.956,27.311 95.956,26.428 C95.956,25.611 96.49,24.91 97.345,24.91 C98.251,24.91 98.806,25.729 98.701,26.589 L96.59,26.589 L96.59,26.589 Z" id="Fill-40" fill="#1A1919"></path>
        <path d="M99.185,24.989 L99.779,24.989 L99.779,25.544 L99.79,25.544 C99.862,25.238 100.24,24.91 100.629,24.91 C100.772,24.91 100.813,24.923 100.867,24.927 L100.867,25.539 C100.779,25.528 100.685,25.511 100.596,25.511 C100.163,25.511 99.818,25.861 99.818,26.494 L99.818,27.861 L99.185,27.861 L99.185,24.989" id="Fill-41" fill="#1A1919"></path>
        <path d="M101.617,26.938 C101.65,27.305 101.929,27.438 102.268,27.438 C102.507,27.438 102.923,27.389 102.906,27.061 C102.889,26.727 102.429,26.688 101.968,26.583 C101.5,26.483 101.045,26.316 101.045,25.732 C101.045,25.105 101.723,24.91 102.246,24.91 C102.834,24.91 103.367,25.155 103.445,25.795 L102.784,25.795 C102.728,25.494 102.479,25.41 102.2,25.41 C102.017,25.41 101.679,25.455 101.679,25.705 C101.679,26.016 102.145,26.061 102.612,26.166 C103.073,26.271 103.54,26.44 103.54,27.005 C103.54,27.688 102.851,27.938 102.257,27.938 C101.534,27.938 100.995,27.616 100.984,26.938 L101.617,26.938" id="Fill-42" fill="#1A1919"></path>
    </g>
</svg>