<?xml version="1.0" encoding="UTF-8"?>
<svg id="Layer_1" xmlns="http://www.w3.org/2000/svg" version="1.1" viewBox="0 0 205.05 68.64">
  <!-- Generator: Adobe Illustrator 30.0.0, SVG Export Plug-In . SVG Version: 2.1.1 Build 123)  -->
  <defs>
    <style>
      .st0 {
        fill: #231f20;
      }

      .st1 {
        fill: #006892;
      }
    </style>
  </defs>
  <path class="st1" d="M31.61,35.38c-1.39,0-2.36-.76-2.91-2.03-.44-1.02-.18-2.22.08-2.86l6.27-13.88v-7.14l-.69-1.58c-.17-.38.03-.7.45-.7h6.54c.42,0,.62.31.45.7l-.66,1.48v7.23l5.22,11.62v-6.6h0V3.07s0-3.07-3.06-3.07H3.06S0,0,0,3.07v38.98s0,3.06,3.06,3.06h21.81c.04-.85.13-1.7.3-2.53-.31-.26-.62-.47-.97-.66-.91.87-1.96,1.62-3.07,2.21-.34.18-.32.21-.59-.02-.25-.21-.5-.42-.75-.63-.68-.58-1.35-1.16-2.03-1.74.42-1.33,1.01-2.62,1.8-3.78-.25-.32-.51-.59-.8-.86-1.11.42-2.29.72-3.47.91-.25.04-.81.24-.97.02-.18-.25-.36-.49-.54-.73-.55-.74-1.09-1.49-1.64-2.24.9-1.03,1.94-1.92,3.1-2.65-.15-.34-.32-.63-.54-.94-1.09.03-2.19-.03-3.27-.16-.17-.02-1.44-.08-1.5-.24-.07-.19-.15-.38-.23-.57-.34-.86-.67-1.71-1.01-2.57,1.27-.6,2.6-1.06,3.98-1.32-.05-.33-.12-.61-.24-.92-1-.24-1.98-.55-2.95-.9-.5-.18-.98-.38-1.47-.59-.29-.12-.22-.17-.24-.46-.06-.83-.11-1.65-.16-2.48,1.44-.17,2.91-.18,4.36-.04.06-.28.08-.52.06-.8-.47-.23-4.17-2.03-4.02-2.5.23-.73.47-1.46.71-2.19,1.46.22,2.9.56,4.3,1.03.15-.21.24-.37.31-.62-.34-.25-3.37-2.68-3.14-2.94.46-.52.92-1.02,1.38-1.54,1.34.52,2.65,1.11,3.9,1.81.21-.12.35-.23.5-.41-.84-.93-1.6-1.92-2.25-2.99.64-.31,1.28-.62,1.92-.92,1.15.7,2.27,1.47,3.31,2.33.24-.05.42-.1.64-.21-.54-.9-.99-1.86-1.32-2.86.73-.09,1.47-.18,2.2-.27.93.8,1.82,1.65,2.61,2.59.25.02.47.02.71-.01-.27-.82-.44-1.69-.45-2.56.77.1,1.54.19,2.31.29.7.83,1.34,1.72,1.88,2.66.15.04.31.09.46.13.09.02.19.03.28.04-.02-.73.07-1.45.32-2.13.67.23,1.46.52,2.18.77l-.03,5.65c-1.07-.31-2.15-.52-3.21-.59-1.67-.12-3.17.08-4.45.56-1.33.49-2.42,1.29-3.23,2.33-.83,1.08-1.27,2.43-1.42,4-.15,1.61.1,3.44.83,5.41.75,2.01,1.91,3.94,3.37,5.7.27.32.55.59.94.97l-.25.37c-.62-.6-1.2-1.23-1.75-1.88-1.52-1.82-2.73-3.83-3.51-5.92-.76-2.04-1.02-3.94-.86-5.61.16-1.62.7-3.03,1.57-4.15.17-.23.36-.44.56-.65l-.54-.08c-.42.35-.8.74-1.13,1.18-.91,1.18-1.48,2.64-1.64,4.34-.16,1.75.11,3.74.9,5.87.81,2.19,2.08,4.29,3.67,6.2,1.6,1.92,3.52,3.62,5.59,4.99,2.06,1.36,4.65,2.38,6.82,2.97,2.13.58,4.22.75,6.13.43,3.09-.5,6.03-2.6,6.98-5.64.1-.32.17-.63.24-.96h-14.8l.06-.03Z"/>
  <polygon class="st1" points="91.26 9.71 91.22 9.71 78.77 9.71 78.74 9.71 78.74 9.75 78.74 35.35 78.74 35.39 78.77 35.39 91.52 35.39 91.56 35.39 91.56 35.35 91.56 32.19 91.56 32.15 91.52 32.15 82.38 32.15 82.38 23.61 89.4 23.61 89.44 23.61 89.44 23.57 89.44 20.49 89.44 20.45 89.4 20.45 82.38 20.45 82.38 12.87 90.74 12.87 90.77 12.87 90.77 12.84 91.26 9.76 91.26 9.71"/>
  <polygon class="st1" points="128.33 9.71 128.29 9.71 124.8 9.71 124.76 9.71 124.76 9.75 124.76 20.19 116.78 20.19 116.78 9.75 116.78 9.71 116.74 9.71 113.25 9.71 113.21 9.71 113.21 9.75 113.21 35.35 113.21 35.39 113.25 35.39 116.74 35.39 116.78 35.39 116.78 35.35 116.78 23.35 124.76 23.35 124.76 35.35 124.76 35.39 124.8 35.39 128.29 35.39 128.33 35.39 128.33 35.35 128.33 9.75 128.33 9.71"/>
  <polygon class="st1" points="145.54 9.71 145.5 9.71 133.05 9.71 133.02 9.71 133.02 9.75 133.02 35.35 133.02 35.39 133.05 35.39 145.8 35.39 145.84 35.39 145.84 35.35 145.84 32.19 145.84 32.15 145.8 32.15 136.66 32.15 136.66 23.61 143.68 23.61 143.72 23.61 143.72 23.57 143.72 20.49 143.72 20.45 143.68 20.45 136.66 20.45 136.66 12.87 145.02 12.87 145.05 12.87 145.06 12.84 145.54 9.76 145.54 9.71"/>
  <path class="st1" d="M169.94,9.71h-4.97v.03l-3.65,15.9c-.33,1.41-.61,3.28-.79,4.66l-.11-.77c-.21-1.43-.42-2.9-.66-4.03l-3.57-15.75v-.03h-4.97v.03l-1.98,25.6v.04h3.6v-.04l1.01-16.57c.1-1.65.14-3.22.18-5.04.2,1.35.53,3.08.98,5.05l3.83,16.57v.03h3.19v-.03l4.2-17.39c.16-.71.44-2.23.82-4.39.02,1.3.12,3.68.18,4.71l1,17.05v.04h3.61v-.04l-1.9-25.6v-.03h0Z"/>
  <path class="st1" d="M186.21,9.71h-4.51v.03l-7.29,25.6v.05h3.71v-.03l1.93-7.07h7.48l1.81,7.07v.03h3.99v-.05l-7.11-25.6v-.03h0ZM180.84,25.2l1.88-7.34c.22-.85.63-2.72,1.11-5.02.44,2.18.98,4.6,1.08,5.02l1.84,7.34h-5.92,0Z"/>
  <path class="st1" d="M109.6,33.69l-1.64-2.49-.02-.03-.03.02c-1.29,1.05-2.5,1.48-4.18,1.48-1.98,0-3.74-1.35-4.94-3.81-.85-1.73-1-3.16-1-6.3s.56-10.11,5.76-10.11c1.4,0,2.56.48,3.88,1.59l.03.03.02-.03,1.82-2.53.02-.03-.02-.02c-1.41-1.33-3.53-2.13-5.67-2.13-5.75,0-9.77,5.52-9.77,13.41,0,5.02,1.07,7.47,2.79,9.79,1.59,2.18,4.54,3.17,6.61,3.17,2.61,0,4.74-.67,6.34-1.98l.03-.02-.02-.03v.02Z"/>
  <path class="st1" d="M64.55,9.71h-5.28v25.67h6.54c8.15,0,9.36-8.1,9.36-12.93,0-8.81-3.28-12.74-10.63-12.74M65.56,32.28l-2.69.02V12.85h2.47c5.31,0,5.93,5.59,5.93,9.79,0,6.67-1.76,9.64-5.7,9.64"/>
  <path class="st0" d="M62.21,53.23c-.9,0-1.57-.31-2.09-.96-.52-.65-.83-1.5-.83-3.01,0-1.38.32-2.53,1.06-3.29.46-.48,1.05-.74,1.79-.74s1.51.33,1.99.85l-.48.56c-.5-.44-.97-.63-1.49-.63-.81,0-1.35.53-1.63,1.35-.25.74-.25,1.27-.25,1.93,0,1.1.14,1.71.45,2.27.31.54.92.88,1.56.88.4,0,.77-.16,1.02-.31v-2.33h-1.29l-.17-.79h2.33v3.55c-.52.38-1.2.66-1.98.66"/>
  <path class="st0" d="M66.47,50.44v.13c0,.5.02.92.22,1.29.25.46.68.66,1.15.66s.87-.2,1.21-.53l.34.54c-.46.47-1.05.71-1.7.71-1.39,0-2.21-1.12-2.21-3,0-.96.15-1.6.57-2.17.4-.53.92-.76,1.52-.76.56,0,1.05.24,1.38.63.42.5.57,1.02.57,2.34v.16h-3.05ZM68.39,48.46c-.16-.29-.42-.49-.85-.49-.72,0-1.04.68-1.08,1.81h2.12c-.01-.58-.06-1.06-.19-1.32"/>
  <path class="st0" d="M72.19,53.28c-.63,0-1.31-.22-1.83-.59l.34-.67c.49.35,1.02.54,1.55.54.57,0,.94-.41.94-.96,0-.5-.41-.75-.88-.92l-.44-.16c-.74-.26-1.31-.74-1.31-1.53,0-1.04.74-1.75,1.78-1.75.56,0,1.11.17,1.54.45l-.33.67c-.43-.24-.77-.41-1.2-.41-.53,0-.87.4-.87.83,0,.49.23.75.8.95l.45.16c.68.24,1.37.71,1.37,1.56,0,1.12-.77,1.82-1.9,1.82"/>
  <path class="st0" d="M76.08,50.44v.13c0,.5.02.92.22,1.29.25.46.68.66,1.15.66s.87-.2,1.21-.53l.34.54c-.46.47-1.05.71-1.7.71-1.39,0-2.21-1.12-2.21-3,0-.96.15-1.6.57-2.17.4-.53.92-.76,1.52-.76.56,0,1.05.24,1.38.63.42.5.57,1.02.57,2.34v.16h-3.05ZM78,48.46c-.16-.29-.42-.49-.85-.49-.72,0-1.04.68-1.07,1.81h2.12c-.01-.58-.06-1.06-.19-1.32"/>
  <path class="st0" d="M81.31,53.22c-.27,0-.5-.08-.66-.25-.17-.18-.24-.45-.24-.89v-5.85c0-.54-.07-.91-.14-1.18l.87-.17c.1.46.15.84.15,1.36v5.62c0,.51.06.65.29.65.04,0,.07,0,.13-.02l.17.61c-.2.11-.34.13-.58.13"/>
  <path class="st0" d="M83.94,53.22c-.27,0-.5-.08-.66-.25-.17-.18-.24-.45-.24-.89v-5.85c0-.54-.07-.91-.14-1.18l.87-.17c.1.46.15.84.15,1.36v5.62c0,.51.06.65.29.65.04,0,.07,0,.12-.02l.17.61c-.2.11-.34.13-.58.13"/>
  <path class="st0" d="M87.05,53.28c-.63,0-1.31-.22-1.83-.59l.34-.67c.49.35,1.02.54,1.55.54.57,0,.94-.41.94-.96,0-.5-.41-.75-.88-.92l-.44-.16c-.74-.26-1.31-.74-1.31-1.53,0-1.04.74-1.75,1.78-1.75.56,0,1.11.17,1.54.45l-.33.67c-.43-.24-.77-.41-1.2-.41-.53,0-.87.4-.87.83,0,.49.23.75.8.95l.45.16c.68.24,1.37.71,1.37,1.56,0,1.12-.77,1.82-1.9,1.82"/>
  <path class="st0" d="M91.75,53.23c-.7,0-1.22-.25-1.57-.81-.33-.53-.49-1.2-.49-2.05,0-1.22.29-1.94.74-2.42.39-.43.85-.65,1.38-.65.62,0,1.02.23,1.36.56l-.44.59c-.31-.28-.57-.4-.94-.4-.4,0-.69.23-.88.65-.26.56-.27,1.15-.27,1.81,0,1.14.39,2.01,1.17,2.01.4,0,.75-.17,1.03-.54l.47.54c-.47.54-.94.7-1.55.7"/>
  <path class="st0" d="M97.12,53.11v-3.87c0-.4-.05-.64-.17-.79-.11-.14-.31-.24-.54-.24-.43,0-.94.22-1.34.78v4.12h-.87v-6.92c0-.36-.03-.79-.12-1.18l.87-.16c.08.37.12.87.12,1.35v1.22c0,.26-.01.46-.03.69.42-.45.98-.71,1.61-.71.44,0,.83.17,1.05.45.24.31.29.78.29,1.15v4.1h-.87Z"/>
  <path class="st0" d="M102.81,53.33c-.36-.17-.6-.44-.69-.79-.44.51-.84.72-1.4.72-1.21,0-1.58-.85-1.58-1.64,0-1.26.94-1.98,2.56-1.98.07,0,.25,0,.34,0v-.47c0-.32-.03-.59-.09-.72-.09-.23-.32-.41-.68-.41-.56,0-1.21.31-1.54.63l-.43-.63c.65-.49,1.36-.73,2.08-.73s1.21.32,1.42.9c.1.29.11.68.11.97,0,.66-.04,2.35-.04,2.55,0,.58.08.75.4.95l-.44.64h-.02ZM102.01,50.28c-.08,0-.26-.02-.34-.02-1.08,0-1.6.49-1.6,1.29,0,.63.27,1.01.8,1.01.47,0,.91-.32,1.11-.8l.02-1.47h0Z"/>
  <path class="st0" d="M106.97,45.81c-.18-.12-.42-.2-.68-.2-.41,0-.63.37-.63.97v.89h1.32l-.24.68h-1.09v4.95h-.92v-4.95h-.46v-.68h.46c-.01-.25-.03-.76-.03-.85,0-.84.36-1.24.59-1.44.25-.21.54-.3.89-.3.43,0,.8.09,1.1.31l-.32.61h0Z"/>
  <path class="st0" d="M108.74,53.29c-.26,0-.45-.07-.66-.16-.34-.15-.51-.56-.51-1.14v-3.82h-.62v-.71h.62c0-.37.03-.94.07-1.45l.88-.19c-.06.68-.08,1.22-.08,1.64h1.2l-.21.71h-1.02v3.58c0,.64.16.86.64.86.21,0,.29-.02.43-.1l.16.55c-.31.16-.57.24-.92.24"/>
  <path class="st0" d="M115.15,45.81c-.18-.12-.42-.2-.68-.2-.41,0-.64.37-.64.97v.89h1.32l-.24.68h-1.09v4.95h-.91v-4.95h-.47v-.68h.47c-.01-.25-.03-.76-.03-.85,0-.84.36-1.24.59-1.44.25-.21.54-.3.89-.3.43,0,.81.09,1.1.31l-.32.61h.01Z"/>
  <path class="st0" d="M119.17,53.32c-.3-.29-.39-.47-.46-.82-.38.53-.85.8-1.54.8-.42,0-.75-.1-.98-.32-.39-.34-.48-.83-.48-1.39v-4.13l.86-.14v4.19c0,.48.07.73.28.9.15.12.32.17.57.17.52,0,.86-.35,1.16-.91v-4.21l.86-.12v4.14c0,.7.1.97.34,1.23l-.62.58v.03ZM116.56,46.64c-.33,0-.59-.27-.59-.59s.25-.58.56-.58.59.26.59.58-.25.59-.56.59M118.62,46.64c-.33,0-.59-.27-.59-.59s.25-.58.56-.58.59.26.59.58-.25.59-.57.59"/>
  <path class="st0" d="M123.31,48.31c-.1-.03-.18-.06-.26-.06-.25,0-.54.1-.75.33-.19.23-.27.44-.27.79v3.74h-.87v-4.32c0-.36-.03-.83-.18-1.27l.86-.22c.1.24.16.47.16.75v.08c.34-.59.75-.85,1.36-.85.1,0,.23.03.31.07l-.35.95h-.01Z"/>
  <path class="st0" d="M129.14,53.2c-.65,0-1.54-.34-1.98-.97-.53-.76-.81-1.46-.81-2.96,0-2.28,1.14-4.04,2.89-4.04.65,0,1.27.27,1.71.67l-.5.63c-.4-.33-.75-.51-1.22-.51-1.6,0-1.88,2.03-1.88,3.31,0,.84,0,1.19.25,1.76.36.85.98,1.36,1.7,1.36.5,0,.87-.1,1.3-.43l.43.65c-.53.42-1.16.55-1.88.55"/>
  <path class="st0" d="M135.07,53.11v-3.87c0-.4-.04-.64-.17-.79-.11-.14-.3-.24-.54-.24-.43,0-.94.22-1.34.78v4.12h-.87v-6.92c0-.36-.03-.79-.12-1.18l.87-.16c.08.37.13.87.13,1.35v1.22c0,.26-.02.46-.04.69.42-.45.99-.71,1.61-.71.44,0,.83.17,1.05.45.24.31.29.78.29,1.15v4.1h-.87Z"/>
  <path class="st0" d="M138.29,50.44v.13c0,.5.02.92.21,1.29.25.46.68.66,1.15.66s.87-.2,1.21-.53l.34.54c-.47.47-1.05.71-1.7.71-1.39,0-2.21-1.12-2.21-3,0-.96.15-1.6.56-2.17.4-.53.92-.76,1.52-.76.56,0,1.05.24,1.38.63.42.5.56,1.02.56,2.34v.16h-3.04.02ZM140.21,48.46c-.16-.29-.42-.49-.85-.49-.72,0-1.04.68-1.07,1.81h2.12c0-.58-.06-1.06-.19-1.32"/>
  <path class="st0" d="M147.93,53.11v-4.2c0-.55-.22-.81-.61-.81s-.75.18-1.22.66v4.35h-.88v-4.08c0-.32,0-.56-.13-.71-.1-.15-.26-.18-.49-.18-.35,0-.67.17-1.18.63v4.35h-.85v-4.33c0-.51-.07-.9-.18-1.22l.85-.24c.1.26.16.48.16.74.34-.42.9-.75,1.43-.75.5,0,.96.21,1.17.76.45-.51,1.03-.76,1.56-.76.78,0,1.26.66,1.26,1.54v4.26h-.89Z"/>
  <path class="st0" d="M150.94,46.49c-.38,0-.69-.31-.69-.69s.32-.69.7-.69.69.31.69.69-.32.69-.7.69M150.53,53.11v-5.65l.9-.12v5.78h-.9Z"/>
  <path class="st0" d="M154.51,53.28c-.63,0-1.31-.22-1.83-.59l.34-.67c.49.35,1.02.54,1.55.54.57,0,.94-.41.94-.96,0-.5-.41-.75-.88-.92l-.44-.16c-.73-.26-1.31-.74-1.31-1.53,0-1.04.74-1.75,1.78-1.75.55,0,1.11.17,1.54.45l-.32.67c-.43-.24-.77-.41-1.2-.41-.53,0-.87.4-.87.83,0,.49.23.75.8.95l.45.16c.68.24,1.37.71,1.37,1.56,0,1.12-.77,1.82-1.9,1.82"/>
  <path class="st0" d="M159.43,53.23c-.7,0-1.22-.25-1.57-.81-.33-.53-.49-1.2-.49-2.05,0-1.22.29-1.94.73-2.42.38-.43.85-.65,1.38-.65.62,0,1.02.23,1.35.56l-.44.59c-.31-.28-.56-.4-.94-.4-.4,0-.69.23-.88.65-.26.56-.27,1.15-.27,1.81,0,1.14.38,2.01,1.16,2.01.4,0,.74-.17,1.03-.54l.47.54c-.46.54-.94.7-1.55.7"/>
  <path class="st0" d="M164.97,53.11v-3.87c0-.4-.04-.64-.17-.79-.11-.14-.3-.24-.54-.24-.43,0-.94.22-1.33.78v4.12h-.87v-6.92c0-.36-.03-.79-.12-1.18l.87-.16c.08.37.12.87.12,1.35v1.22c0,.26,0,.46-.04.69.42-.45.98-.71,1.61-.71.44,0,.82.17,1.05.45.23.31.29.78.29,1.15v4.1h-.87Z"/>
  <path class="st0" d="M168.19,50.44v.13c0,.5.02.92.21,1.29.25.46.68.66,1.15.66s.87-.2,1.21-.53l.34.54c-.47.47-1.05.71-1.7.71-1.39,0-2.21-1.12-2.21-3,0-.96.15-1.6.57-2.17.4-.53.92-.76,1.52-.76.55,0,1.05.24,1.38.63.42.5.57,1.02.57,2.34v.16h-3.04ZM170.12,48.46c-.16-.29-.42-.49-.85-.49-.73,0-1.04.68-1.07,1.81h2.12c0-.58-.06-1.06-.19-1.32"/>
  <polygon class="st0" points="177.7 46.17 175.88 46.17 175.88 53.11 174.98 53.11 174.98 46.17 173.2 46.17 173.2 45.34 177.74 45.34 177.7 46.17"/>
  <path class="st0" d="M178.7,50.44v.13c0,.5.02.92.21,1.29.25.46.68.66,1.15.66s.87-.2,1.21-.53l.34.54c-.47.47-1.05.71-1.7.71-1.39,0-2.2-1.12-2.2-3,0-.96.15-1.6.56-2.17.4-.53.91-.76,1.51-.76.56,0,1.05.24,1.38.63.42.5.57,1.02.57,2.34v.16h-3.04,0ZM180.63,48.46c-.16-.29-.42-.49-.85-.49-.72,0-1.04.68-1.07,1.81h2.11c0-.58-.06-1.06-.19-1.32"/>
  <path class="st0" d="M184.77,53.23c-.7,0-1.22-.25-1.57-.81-.33-.53-.49-1.2-.49-2.05,0-1.22.29-1.94.73-2.42.39-.43.85-.65,1.38-.65.62,0,1.02.23,1.36.56l-.44.59c-.31-.28-.57-.4-.94-.4-.4,0-.69.23-.88.65-.26.56-.27,1.15-.27,1.81,0,1.14.38,2.01,1.16,2.01.4,0,.75-.17,1.03-.54l.47.54c-.46.54-.94.7-1.55.7"/>
  <path class="st0" d="M190.14,53.11v-3.87c0-.4-.05-.64-.17-.79-.11-.14-.3-.24-.54-.24-.43,0-.94.22-1.34.78v4.12h-.87v-6.92c0-.36-.03-.79-.12-1.18l.87-.16c.08.37.12.87.12,1.35v1.22c0,.26,0,.46-.03.69.42-.45.98-.71,1.6-.71.44,0,.83.17,1.05.45.24.31.29.78.29,1.15v4.1h-.87,0Z"/>
  <path class="st0" d="M195.59,53.11v-3.85c0-.57-.04-.76-.18-.94-.1-.14-.29-.23-.51-.23-.36,0-.9.27-1.27.69v4.33h-.86v-4.32c0-.34-.03-.79-.18-1.26l.84-.21c.08.16.17.41.17.73.52-.52,1.01-.72,1.54-.72.41,0,.77.18,1.01.47.24.28.32.65.32,1.02v4.3h-.88Z"/>
  <path class="st0" d="M198.65,46.49c-.39,0-.69-.31-.69-.69s.32-.69.7-.69.69.31.69.69-.32.69-.7.69M198.24,53.11v-5.65l.9-.12v5.78h-.9Z"/>
  <path class="st0" d="M200.84,53.11v-6.88c0-.5-.08-.94-.15-1.21l.88-.17c.07.34.14.8.14,1.38v6.88h-.87ZM203.89,53.11l-2.15-3.18,1.77-2.48h1.04l-1.83,2.45,2.28,3.2h-1.11Z"/>
  <path class="st0" d="M63.03,66.75c-.31-.29-.4-.47-.46-.82-.38.53-.85.81-1.54.81-.42,0-.75-.1-.98-.32-.38-.34-.48-.82-.48-1.39v-4.13l.86-.14v4.19c0,.49.07.73.28.9.15.11.32.17.58.17.52,0,.86-.35,1.17-.9v-4.21l.86-.11v4.14c0,.71.1.97.34,1.24l-.62.58h-.01Z"/>
  <path class="st0" d="M67.89,66.54v-3.86c0-.56-.04-.76-.18-.94-.1-.13-.29-.23-.51-.23-.36,0-.9.27-1.27.69v4.34h-.86v-4.32c0-.34-.03-.79-.18-1.26l.84-.22c.08.16.17.41.17.74.52-.52,1.01-.72,1.54-.72.41,0,.77.18,1.01.47.24.28.32.64.32,1.02v4.3h-.88Z"/>
  <path class="st0" d="M73.56,66.54c-.07-.18-.1-.37-.11-.56-.33.43-.7.64-1.25.64-1.58,0-2-1.55-2-2.86,0-1.22.52-2.97,2.01-2.97.49,0,.95.23,1.23.62-.01-.25-.02-.56-.02-.85v-2.28l.87.15v6.34c0,.76.03,1.39.15,1.78h-.88ZM73.4,62.05c-.28-.38-.62-.52-1.09-.52-1.09,0-1.17,1.46-1.17,2.25s.01,2.1,1.11,2.1c.46,0,.95-.25,1.14-.69v-3.14h0Z"/>
  <path class="st0" d="M81.79,66.29c-.36.17-.67.25-1.63.25h-1.84v-7.77h1.18c1.21,0,1.44.08,1.79.19.71.23,1.24.97,1.24,1.75s-.5,1.48-1.3,1.71c.97.16,1.6.78,1.6,1.96,0,.85-.38,1.61-1.03,1.91M80.12,59.57h-.92v2.52h1.01c.93,0,1.32-.38,1.32-1.27s-.61-1.26-1.42-1.26M80.23,62.9h-1.03v2.85h1.24c1.01,0,1.37-.56,1.37-1.44,0-1.08-.66-1.41-1.59-1.41"/>
  <path class="st0" d="M84.65,59.92c-.39,0-.69-.3-.69-.69s.32-.69.7-.69.69.31.69.69-.32.69-.7.69M84.24,66.54v-5.65l.9-.12v5.78h-.9Z"/>
  <path class="st0" d="M88.6,66.69c-1.69,0-2.15-1.61-2.15-3.01s.5-2.97,2.13-2.97,2.17,1.66,2.17,3.06-.51,2.91-2.15,2.91M89.54,62.1c-.19-.46-.57-.68-.97-.68s-.78.23-.94.6-.23.93-.23,1.53c0,.7.09,1.49.28,1.86.17.33.53.53.94.53.5,0,.85-.31,1-.83.1-.37.14-.79.14-1.29,0-.7-.06-1.33-.22-1.72"/>
  <path class="st0" d="M93.22,66.72c-.26,0-.45-.07-.66-.16-.34-.15-.51-.56-.51-1.15v-3.82h-.62v-.71h.62c0-.37.03-.94.08-1.45l.88-.19c-.06.68-.08,1.22-.08,1.64h1.2l-.2.71h-1.02v3.57c0,.64.16.86.63.86.21,0,.29-.02.43-.1l.16.55c-.3.16-.57.24-.92.24"/>
  <path class="st0" d="M95.89,63.87v.12c0,.5.02.93.22,1.29.25.46.68.66,1.15.66s.87-.21,1.21-.53l.34.54c-.46.47-1.05.71-1.69.71-1.39,0-2.21-1.12-2.21-2.99,0-.96.15-1.61.56-2.17.4-.53.92-.76,1.51-.76s1.06.24,1.38.63c.42.5.57,1.02.57,2.34v.16s-3.04,0-3.04,0ZM97.81,61.89c-.16-.29-.42-.49-.85-.49-.72,0-1.04.68-1.07,1.81h2.12c-.01-.58-.06-1.07-.19-1.32"/>
  <path class="st0" d="M101.96,66.67c-.7,0-1.22-.25-1.57-.81-.33-.53-.49-1.2-.49-2.05,0-1.22.29-1.94.73-2.42.39-.43.85-.65,1.38-.65.62,0,1.02.23,1.36.56l-.44.59c-.31-.28-.56-.4-.94-.4-.4,0-.69.23-.88.65-.26.56-.27,1.15-.27,1.81,0,1.14.39,2.01,1.17,2.01.4,0,.75-.17,1.03-.54l.47.54c-.46.54-.94.7-1.55.7"/>
  <path class="st0" d="M107.16,66.54v-3.87c0-.4-.05-.65-.17-.79-.11-.14-.31-.24-.54-.24-.43,0-.94.22-1.33.78v4.12h-.87v-6.92c0-.36-.03-.79-.12-1.18l.87-.16c.08.37.12.87.12,1.35v1.22c0,.26-.01.46-.03.69.42-.45.98-.71,1.61-.71.44,0,.82.17,1.05.45.24.31.29.78.29,1.15v4.11h-.88Z"/>
  <path class="st0" d="M112.61,66.54v-3.86c0-.56-.04-.76-.18-.94-.1-.13-.29-.23-.51-.23-.36,0-.91.27-1.27.69v4.34h-.86v-4.32c0-.34-.04-.79-.18-1.26l.84-.22c.08.16.17.41.17.74.52-.52,1-.72,1.54-.72.4,0,.77.18,1,.47.24.28.32.64.32,1.02v4.3h-.87,0Z"/>
  <path class="st0" d="M116.94,66.69c-1.69,0-2.15-1.61-2.15-3.01s.5-2.97,2.13-2.97c1.71,0,2.17,1.66,2.17,3.06s-.51,2.91-2.15,2.91M117.88,62.1c-.19-.46-.57-.68-.97-.68s-.78.23-.94.6-.23.93-.23,1.53c0,.7.09,1.49.28,1.86.17.33.53.53.94.53.5,0,.85-.31,1-.83.1-.37.14-.79.14-1.29,0-.7-.06-1.33-.21-1.72"/>
  <path class="st0" d="M121.29,66.65c-.27,0-.5-.08-.66-.25-.17-.18-.24-.45-.24-.89v-5.85c0-.54-.07-.91-.14-1.18l.87-.17c.1.46.15.84.15,1.35v5.62c0,.51.06.64.29.64.03,0,.07-.01.12-.02l.17.61c-.21.1-.34.13-.58.13"/>
  <path class="st0" d="M124.73,66.69c-1.69,0-2.15-1.61-2.15-3.01s.5-2.97,2.13-2.97c1.71,0,2.18,1.66,2.18,3.06s-.51,2.91-2.15,2.91M125.67,62.1c-.19-.46-.57-.68-.97-.68s-.78.23-.94.6-.23.93-.23,1.53c0,.7.09,1.49.28,1.86.17.33.53.53.94.53.5,0,.85-.31,1-.83.1-.37.13-.79.13-1.29,0-.7-.06-1.33-.21-1.72"/>
  <path class="st0" d="M131.54,61.72c-.12,0-.27-.03-.33-.06.18.26.29.57.29.94,0,1.07-.72,1.9-2.09,1.9-.42.22-.54.4-.54.54,0,.24.24.28.47.28h.86c.94,0,1.67.48,1.67,1.5s-.62,1.83-2.04,1.83c-1.6,0-2.15-.67-2.15-1.44,0-.21.03-.38.1-.61l.88-.07c-.07.12-.11.33-.11.5,0,.71.53.94,1.22.94.79,0,1.16-.44,1.16-1.03,0-.81-.5-.87-1.18-.87-.34,0-.51-.01-.77-.01-.61,0-.96-.29-.96-.8,0-.41.24-.72.88-.96-.65-.24-1.12-.88-1.12-1.62,0-1.16.79-1.91,1.88-1.91.76,0,.91.32,1.44.32.26,0,.49-.07.73-.25l.5.61c-.29.23-.51.27-.8.27M129.65,61.49c-.65,0-.9.42-.9,1.16,0,.69.24,1.12.9,1.12.62,0,.86-.42.86-1.15s-.19-1.14-.87-1.14"/>
  <path class="st0" d="M133.54,59.92c-.39,0-.69-.3-.69-.69s.32-.69.7-.69.69.31.69.69-.32.69-.7.69M133.13,66.54v-5.65l.9-.12v5.78h-.9Z"/>
  <path class="st0" d="M136.43,63.87v.12c0,.5.02.93.21,1.29.25.46.68.66,1.15.66s.87-.21,1.21-.53l.34.54c-.46.47-1.05.71-1.69.71-1.39,0-2.21-1.12-2.21-2.99,0-.96.15-1.61.56-2.17.4-.53.91-.76,1.52-.76.55,0,1.05.24,1.38.63.42.5.56,1.02.56,2.34v.16h-3.04,0ZM138.35,61.89c-.16-.29-.42-.49-.85-.49-.72,0-1.04.68-1.07,1.81h2.12c0-.58-.05-1.07-.19-1.32"/>
  <path class="st0" d="M143.7,63.87v.12c0,.5.02.93.22,1.29.25.46.68.66,1.15.66s.87-.21,1.21-.53l.34.54c-.47.47-1.05.71-1.7.71-1.39,0-2.21-1.12-2.21-2.99,0-.96.15-1.61.56-2.17.4-.53.91-.76,1.52-.76.56,0,1.05.24,1.38.63.42.5.56,1.02.56,2.34v.16h-3.04,0ZM145.62,61.89c-.16-.29-.42-.49-.85-.49-.73,0-1.04.68-1.08,1.81h2.12c0-.58-.06-1.07-.19-1.32"/>
  <path class="st0" d="M148.56,66.69c-.41,0-.73-.35-.73-.76s.33-.73.73-.73.74.32.74.73-.33.76-.74.76"/>
  <path class="st0" d="M153.16,66.54h-.97l-2.25-7.77h.96l1.37,5c.17.62.38,1.82.41,1.94,0-.07.23-1.12.44-1.88l1.39-5.06h.92l-2.26,7.77h-.01Z"/>
  <path class="st0" d="M155.38,66.69c-.41,0-.73-.35-.73-.76s.33-.73.73-.73.74.32.74.73-.33.76-.74.76"/>
</svg>