<?xml version="1.0" encoding="UTF-8"?>
<svg id="Layer_1" xmlns="http://www.w3.org/2000/svg" version="1.1" viewBox="0 0 98.2 131.1">
  <!-- Generator: Adobe Illustrator 30.0.0, SVG Export Plug-In . SVG Version: 2.1.1 Build 123)  -->
  <defs>
    <style>
      .st0 {
        fill: navy;
      }

      .st1 {
        fill: #9c6114;
      }
    </style>
  </defs>
  <g>
    <rect class="st1" x="-28.6" y="-8.8" width="2" height="152"/>
    <g>
      <g>
        <path class="st1" d="M41.9,66.7v3.3c0,.2.8.5.8.5h-2.4s.7-.3.7-.4v-2.9l-.7.1v-.1l1.6-.5Z"/>
        <path class="st1" d="M57.2,66.8c-1.1.2-1.6.9-1.8,1.6.3-.1.5-.2.8-.2.8,0,1.3.5,1.3,1.1,0,.7-.6,1.2-1.5,1.2-1,0-1.7-.6-1.7-1.5.1-1.1,1.2-2.3,2.9-2.2h0ZM56,68.5c-.3,0-.5.1-.6.2v.6c0,.4.1,1.1.6,1.1.6,0,.6-.5.6-1,0-.4,0-.9-.6-.9Z"/>
        <path class="st1" d="M52.2,66.8c-1.1.2-1.6.9-1.8,1.6.3-.1.5-.2.8-.2.8,0,1.3.5,1.3,1.1,0,.7-.6,1.2-1.5,1.2-1,0-1.7-.6-1.7-1.5.1-1.1,1.2-2.3,2.9-2.2h0ZM51,68.5c-.3,0-.5.1-.6.2v.6c0,.4.1,1.1.6,1.1.6,0,.6-.5.6-1-.1-.4-.1-.9-.6-.9Z"/>
        <path class="st1" d="M47.2,66.8c-1.1.2-1.6.9-1.8,1.6.3-.1.5-.2.8-.2.8,0,1.3.5,1.3,1.1,0,.7-.6,1.2-1.5,1.2-1,0-1.7-.6-1.7-1.5,0-1.1,1.1-2.3,2.9-2.2h0ZM45.9,68.5c-.3,0-.5.1-.6.2v.6c0,.4.1,1.1.6,1.1.6,0,.6-.5.6-1,0-.4,0-.9-.6-.9Z"/>
        <path class="st1" d="M14.2,34.8c.4.1.9.4,1.2.6-.1.1-.1.2-.1.4-.1.3,0,.7-.1,1.2-.2,1.4-1.4,2.3-2.6,2.1-1.3-.2-2.1-1.5-1.8-3,.1-.7.5-1.1.5-1.3v-.3l1.2.1s-1.2.8-1.3,1.5c-.2,1,.5,1.8,1.6,2s2.1-.4,2.2-1.4c0-.6-.8-1.9-.8-1.9Z"/>
        <path class="st1" d="M25.5,16.8l-2.6,2.7s.2-.8-.1-1l-2-1.9c-.3-.3-1,0-1,0l1.6-1.7s-.2.8,0,1l2.1,2c.2.2.3.2.5,0l.6-.6c.3-.3.3-1.6.3-1.6l.6,1.1Z"/>
        <path class="st1" d="M23.4,12.9l1.7-1.4s-.2.7,0,1l1.7,2.2c.2.3,1,.2,1,.2l-1.7,1.4s.2-.7,0-1l-1.7-2.2c-.2-.3-1-.2-1-.2Z"/>
        <path class="st1" d="M29.2,12.9c.2.4,1,.4,1,.4l-1.4.9s.3-.7.1-.9l-1.7-2.7c-.2,0-.7-.1-.7-.1l1.2-.8,4,1-1.1-1.8c-.3-.4-1.1-.4-1.1-.4l1.5-.9s-.4.6-.2.9l2,3.2-.3.2-4.7-1.2,1.4,2.2Z"/>
        <path class="st1" d="M54.6,7s.7,1.2,1.2,1.3.9-.1.9-.5c.2-1-2-1.4-1.7-2.8.1-.7.8-1,1.6-.8.5.1.9.4,1,.4h.3l-.1,1.1s-.7-1.1-1.2-1.2c-.4-.1-.7.1-.8.3-.1.6,1,1,1.6,1.9.2.3.3.7.2,1-.2.7-.9,1.1-1.7,1-.5-.1-1-.4-1.1-.5q-.1,0-.2.1h-.2l.2-1.3Z"/>
        <path class="st1" d="M60.2,5.2l2.1.7s-.8.2-.9.5l-.9,2.6c-.1.3.4.9.4.9l-2.1-.7s.7-.2.8-.5l.9-2.6c.2-.3-.3-.9-.3-.9Z"/>
        <path class="st1" d="M66.6,11.2l-.5.9c-.6,0-1.3-.2-1.8-.4-1.6-.8-1.9-2.1-1.3-3.3.6-1.1,1.9-1.5,3.3-.8.6.3,1,.8,1.2.9h.2l.2.1-.6,1.1-.2-.1c.2-.7-.1-1.3-.8-1.7-.9-.4-1.8-.1-2.4,1-.5,1-.3,2.1.6,2.5.2.1.5.2.7.2l.4-.9c.2-.3-.4-1-.4-1l2.1,1c.1.1-.6.2-.7.5Z"/>
        <path class="st1" d="M69.8,9.8l1.8,1.3s-.8,0-1,.3l-1.6,2.3c-.2.3.1,1,.1,1l-1.8-1.3s.8,0,.9-.3l1.6-2.3c.3-.3,0-1,0-1Z"/>
        <path class="st1" d="M76.3,21.9l-2.4-2.9s.8.3,1,.1l2.2-1.8c.3-.3.2-1,.2-1l1.5,1.8s-.8-.3-1-.1l-2.2,1.8c-.2.2-.2.3,0,.5l.6.7c.3.4,1.5.5,1.5.5l-1.4.4Z"/>
        <path class="st1" d="M73.2,18.2l-2.8-2.5s.8.2,1-.1l1.9-2.1c.3-.3,0-1,0-1l1.7,1.6s-.8-.2-1,.1l-1.9,2.1c-.2.2-.2.3,0,.5l.7.6c.3.3,1.6.3,1.6.3l-1.2.5Z"/>
        <path class="st1" d="M80,21.1c.3-.5.3-1.1.3-1.1l1.2,2.1s-.8-.4-1.1-.1l-1.4,2,2.6-.2c.3,0,.3-.9.3-.9l.9,1.5s-.7-.3-1.3-.2l-4.1.3,2.6-3.4Z"/>
        <path class="st1" d="M83,26.7h0l-2.4.7c-.4.1-.7.9-.7.9l-.5-1.5s.6.4,1.2.2l2.4-.7c.3-.1.6-.7.6-.7l.5,1.4-2.3,2.3,3.2.2.5,1.4s-.5-.4-.9-.2l-2.4,1c-.5.2-.7.9-.7.9l-.7-2.1s.5.5.9.4c.1,0,.2-.1.3-.1l2.3-1h0l-3.9-.3-.1-.2,2.7-2.6Z"/>
        <path class="st1" d="M83.4,42.3c-.4,0-.9.7-.9.7l.1-1.7s.4.6.7.6l3.2.1c.1-.1.4-.5.4-.5l-.1,1.4-3.1,2.7,2.1.1c.5,0,.9-.7.9-.7l-.1,1.8s-.3-.7-.6-.7l-3.7-.2v-.4l3.6-3.2h-2.5Z"/>
        <path class="st1" d="M86.4,48.2l-.4,2.2s-.3-.7-.7-.8l-2.7-.5c-.3-.1-.9.5-.9.5l.4-2.2s.3.7.6.7l2.7.5c.5.1,1-.4,1-.4Z"/>
        <path class="st1" d="M81.9,60l.7-1.4-1.4-.7-.5,1c-.2.3.1.9.1.9l-1.2-.6s.6-.1.9-.6l.5-.9-1.1-.6q-.3-.1-.4.1l-.5,1c-.2.4.1,1.3.1,1.3l-.9-.6,1.9-3.7s0,.9.3,1.1l2.5,1.3c.3.2,1-.2,1-.2l-1.8,3.4-.9-.4c-.2,0,.6-.1.7-.4Z"/>
        <path class="st1" d="M74.7,65.5s-1.4-.1-1.8.3c-.3.3-.4.8-.1,1.1.7.7,2.3-.9,3.3.1.5.5.4,1.2-.2,1.8-.4.4-.8.6-.9.6l-.2.3-.9-.7s1.3,0,1.7-.4c.3-.3.3-.6.1-.8-.5-.5-1.4.3-2.5.3-.4,0-.7-.1-.9-.4-.5-.5-.5-1.4.1-2,.4-.4.9-.6,1-.7,0,0,.1-.1,0-.2l.1-.1,1.2.8Z"/>
        <path class="st1" d="M73.3,71.1l-1.7,1.4s.2-.7,0-1l-1.7-2.2c-.2-.3-1-.2-1-.2l1.7-1.4s-.2.7,0,1l1.7,2.2c.2.2,1,.2,1,.2Z"/>
        <path class="st1" d="M54.2,79.7l-2.2.2s.6-.5.6-.9l-.3-2.8c0-.3-.7-.7-.7-.7l2.2-.2s-.6.5-.5.8l.3,2.8c-.1.4.6.8.6.8Z"/>
        <path class="st1" d="M49.8,76.9s-.9-1.1-1.5-1.1c-.5,0-.8.3-.8.7,0,1,2.2,1,2.2,2.4,0,.7-.6,1.1-1.4,1.1-.5,0-1-.2-1.1-.2l-.3.1-.1-1.1s.9.9,1.4,1c.4,0,.7-.2.7-.5,0-.6-1.1-.8-1.9-1.6-.3-.3-.4-.6-.4-.9,0-.7.7-1.3,1.5-1.3.6,0,1.1.2,1.2.2s.3-.1.3-.1l.2,1.3Z"/>
        <path class="st1" d="M37.6,75.3l.3-1c.5-.1,1.3-.1,1.9.1,1.7.5,2.3,1.6,1.9,2.9-.3,1.2-1.6,1.9-3,1.5-.7-.2-1.2-.6-1.4-.6h-.4l.3-1.2s.7,1.4,1.4,1.5c1,.3,1.8-.3,2.1-1.4.3-1.1-.2-2.1-1.1-2.4-.3-.1-.6-.1-.8,0l-.3.9c-.1.6.6.9.6.9l-2.2-.6c.1,0,.6-.3.7-.6Z"/>
        <path class="st1" d="M23.9,66.1l-.9.9,1.7,1.6.9-.9c.3-.3.1-1,.1-1l1.6,1.5s-.8-.1-1,.1l-1.9,2c-.2.3-.1,1-.1,1l-1.6-1.5s.7.2,1-.1l.8-.8-1.7-1.6-.7.8c-.3.3-.1,1-.1,1l-1.6-1.5s.7.2,1-.1l1.9-2c.3-.3.1-1,.1-1l1.6,1.5c-.1,0-.9-.1-1.1.1Z"/>
        <path class="st1" d="M11.9,48.8h0l2.5-.2c.5,0,.9-.7.9-.7l.2,1.5s-.5-.5-1.1-.5l-2.6.3c-.4,0-.7.6-.7.6l-.2-1.5,2.7-1.7-3.1-.9-.1-1.5s.4.5.9.4l2.5-.5c.6-.1.9-.7.9-.7l.3,2.2s-.4-.6-.8-.6c-.1,0-.2,0-.3.1l-2.5.4h0l3.7,1.1v.2l-3.2,2Z"/>
        <path class="st1" d="M85.8,36.3c.5-.3.8-.8.8-.8l.2,2.4s-.5-.8-.9-.5l-1.9,1.1,2.3,1c.2.1.6-.7.6-.7l.2,1.8s-.5-.6-1.1-.8l-3.6-1.6,3.4-1.9Z"/>
        <path class="st1" d="M84.7,52.1c.5-.1,1-.5,1-.5l-.7,2.3s-.2-.9-.7-.8l-2.2.3,1.7,1.8c.2.2.8-.4.8-.4l-.5,1.7s-.3-.7-.7-1.1l-2.7-2.8,4-.5Z"/>
        <path class="st1" d="M13.5,54.8c-.4.4-.6,1-.6,1l-.8-2.3s.7.6,1,.3l1.6-1.5-2.5-.5c-.3,0-.4.8-.4.8l-.6-1.7s.6.4,1.2.5l3.9.7-2.8,2.7Z"/>
        <path class="st1" d="M28.9,70.2c.2-.3-.2-1.1-.2-1.1l2.1,1.4s-.9-.1-1.1.2l-1.9,2.8.7.5c.4.3,1.3-.1,1.3-.1l-.7.9-3.7-2.5.5-1s-.1,1,.4,1.3l.7.5,1.9-2.9Z"/>
        <path class="st1" d="M56.4,75.6c-.1-.4-.9-.6-.9-.6l2.4-.6s-.7.6-.6,1l.8,3.2.8-.2c.5-.1.8-1,.8-1l.2,1.1-4.3,1-.4-1.1s.7.7,1.2.6l.8-.2-.8-3.2Z"/>
        <path class="st1" d="M66,71.8c-.2-.3-1.1-.3-1.1-.3l2.2-1.3s-.5.8-.3,1.1l1.7,2.9.7-.4c.5-.3.5-1.2.5-1.2l.5,1-3.8,2.3-.7-.9s.8.5,1.3.2l.7-.4-1.7-3Z"/>
        <path class="st1" d="M83.4,34.2c0-.4.3-.7.7-.7s.7.3.7.7-.3.7-.7.7-.7-.3-.7-.7Z"/>
        <path class="st1" d="M43.4,77.4c0-.4.3-.7.7-.7s.7.3.7.7-.3.7-.7.7c-.4,0-.7-.4-.7-.7Z"/>
        <path class="st1" d="M11.9,41.6c0-.4.3-.7.7-.7s.7.3.7.7-.3.7-.7.7c-.3,0-.7-.4-.7-.7Z"/>
        <path class="st1" d="M18.1,22c-.9-.6-1.1-1.5-.5-2.2.6-.9,1.8-.7,2.7,0,.8.6,1.2,1.4.6,2.2-.6.7-1.7.7-2.8,0ZM17.8,23c.9.7,2.3.5,3.3-.8s.6-2.8-.4-3.5c-1.1-.8-2.4-.5-3.3.7-.9,1.3-.8,2.8.4,3.6Z"/>
        <path class="st1" d="M35.9,8.5l-1.4.4.1-2,1.3,1.6ZM36.8,8l1.2-.5c.5-.2,1.2,0,1.2,0l-1-1.1s-.1.6-.4.7l-1.3.5-1.1-1.3,1.9-.6c.3-.1,1.1.2,1.1.2l-.8-.8-4,1.4s.5.1.4.8l-.1,3c-.1.5-.4,1.1-.4,1.1l1.5-.6s-.7-.3-.6-.6l.1-.9,1.7-.5.9,1.1,3.7-1.4-.8-.8s.3.6-.2.8l-1.9.7-1.1-1.2Z"/>
        <path class="st1" d="M17.2,27.3c.3.2,1-.4,1-.4l-1,2.2s0-.8-.4-1l-2.5-1.2c-.3-.1-1,.3-1,.3.1-.3.2-.6.3-.8.1-.4.3-.8.4-1.1.4-.9.8-1.4,1.3-1.5.3-.1.6-.1.9,0,.5.2.7.7.6,1.4.5-.3,1.1-.2,1.8-.5.4-.1,1-.5,1-.5-.1.1-.1.2-.2.4-.4.8-.6,1.1-1.1,1.2-.5.2-1.3.2-1.8.5l-.2.5.9.5ZM16,26.7l.1-.2c.4-.8.3-1.3-.3-1.6-.7-.3-1.2.1-1.4.7l-.2.3,1.8.8Z"/>
        <path class="st1" d="M14.6,32.7l.6.5c.3.2.9-.4.9-.4l-.5,1.8s-.2-.7-.5-1l-3.3-2.8h0l4.4-.7c.4-.1,1-.5,1-.5l-.7,2.2s-.2-.8-.5-.8l-.8.1-.6,1.6ZM13.2,31.5l1.2,1,.4-1.2-1.6.2Z"/>
        <path class="st1" d="M17.9,57.8c.3-.2.3-1,.3-1l1.1,2.2s-.7-.5-1-.3l-2.4,1.3c-.3.2-.4,1-.4,1-.2-.3-.3-.5-.5-.8s-.5-.8-.6-1c-.5-.9-.6-1.5-.5-1.9.1-.3.3-.5.5-.7.5-.2,1-.1,1.5.4.1-.6.5-1.1.7-1.7.1-.4.2-1.1.2-1.1.1.1.1.2.2.4.4.8.5,1.1.3,1.6-.1.5-.6,1.2-.7,1.7l.3.5,1-.6ZM16.7,58.4l-.1-.2c-.4-.7-.9-1.1-1.5-.7-.7.3-.6,1-.3,1.6l.2.3,1.7-1Z"/>
        <path class="st1" d="M17.6,64.3c-.9-1.2-.7-2.5.3-3.3,1-.7,2.5-.6,3.5.7,1,1.3.7,2.7-.3,3.4-1.1.8-2.6.5-3.5-.8ZM21,61.7c-.6-.8-1.5-.6-2.3-.1-.9.7-1.4,1.7-.8,2.6.5.7,1.4.8,2.3.1,1-.7,1.4-1.8.8-2.6Z"/>
        <path class="st1" d="M32.5,76.6c-1.3-.6-1.9-1.9-1.3-3.1.5-1.1,1.9-1.7,3.4-1,1.5.7,1.9,2,1.4,3.1-.7,1.2-2.1,1.6-3.5,1ZM34.3,72.7c-.9-.4-1.6.2-2.1,1-.5,1-.4,2.2.6,2.7.8.4,1.6,0,2.1-1,.5-1.2.3-2.3-.6-2.7Z"/>
        <path class="st1" d="M77,61.8c-.3-.2-1.1.1-1.1.1l1.5-2s-.1.8.2,1l2.2,1.7c.3.2,1.1-.1,1.1-.1-.2.3-.3.5-.5.8s-.5.7-.6.9c-.6.8-1.1,1.2-1.5,1.3-.3,0-.6,0-.8-.2-.4-.3-.5-.9-.3-1.5-.6.1-1.2,0-1.9.1-.4.1-1.1.3-1.1.3.1-.1.1-.2.3-.4.5-.7.8-.9,1.3-1s1.3,0,1.9-.1l.3-.4-1-.5ZM78.1,62.7l-.2.2c-.5.7-.6,1.2,0,1.7.6.4,1.1.2,1.5-.4l.2-.3-1.5-1.2Z"/>
        <path class="st1" d="M63,74v-.8c0-.3-.9-.4-.9-.4l1.8-.7s-.5.6-.5,1l-.2,4.4h0l-3.2-3c-.3-.3-1-.5-1-.5l2.2-.9s-.6.7-.3.9l.6.5,1.5-.5ZM62.9,75.9v-1.5l-1.2.5,1.2,1Z"/>
        <path class="st1" d="M49.1,13.5c-.2-.5-.7-.9-.7-.9l2.3.2s-.8.4-.6.8l.8,2,1.4-2c.1-.2-.5-.7-.5-.7l1.7.1s-.6.4-.9.9l-2.1,3.2-1.4-3.6Z"/>
        <path class="st1" d="M29.9,20.6c-.5-.2-1.1-.2-1.1-.2l1.8-1.5s-.3.8.1,1l1.9,1-.4-2.4c-.1-.2-.9-.1-.9-.1l1.4-1.1s-.2.7,0,1.3l.6,3.8-3.4-1.8Z"/>
        <path class="st1" d="M66.1,19.3c.2-.5,0-1.1,0-1.1l1.7,1.6s-.9-.2-1,.2l-.7,2.2,2.3-.9c.2-.1,0-.9,0-.9l1.3,1.2s-.7-.1-1.3.2l-3.6,1.2,1.3-3.7Z"/>
        <path class="st1" d="M37.3,18.9c.1.3,1,.4,1,.4l-2.2,1s.5-.7.4-1l-1.4-3-.7.3c-.5.2-.6,1.2-.6,1.2l-.4-1,3.9-1.8.6.9s-.8-.5-1.3-.3l-.7.3,1.4,3Z"/>
        <path class="st1" d="M55,14.2h0l-.9,2.3c-.2.4.3,1.1.3,1.1l-1.4-.4s.6-.2.8-.8l.9-2.3c.1-.3-.2-.9-.2-.9l1.4.4.4,3.1,2-2.4,1.4.4s-.6.1-.7.6l-.6,2.5c-.1.6.3,1.1.3,1.1l-2-.6s.7-.1.8-.5c0-.1.1-.2.1-.3l.5-2.3h0l-2.4,2.8h-.2l-.5-3.8Z"/>
        <path class="st1" d="M71.7,24.5l-.9-1.2-1.2.9.7.9c.2.3.9.3.9.3l-1.1.8s.2-.6-.2-1l-.6-.8-1,.8c-.2.2-.2.3-.1.4l.7.9c.3.3,1.2.4,1.2.4l-.9.6-2.5-3.2s.8.4,1.1.2l2.1-1.7c.3-.2.2-1,.2-1l2.3,2.9-.7.7c0,.1.2-.6,0-.9Z"/>
        <path class="st1" d="M45.2,16.4c0,.3.8.7.8.7l-2.4.2s.7-.4.6-.8l-.3-2.7c0-.3-.8-.7-.8-.7.3-.1.6-.1.9-.1.4-.1.9-.1,1.1-.2,1-.1,1.5,0,1.9.3.2.2.4.4.4.7.1.5-.3,1-.9,1.2.5.3.8.8,1.3,1.3.3.2,1,.6,1,.6-.1,0-.2,0-.4.1-.8.1-1.2,0-1.5-.3-.4-.3-.8-1-1.3-1.3l-.5.1.1.9ZM45.1,15.1h.3c.8-.1,1.3-.4,1.2-1.1-.1-.7-.6-.9-1.3-.8h-.4l.2,1.9Z"/>
        <path class="st1" d="M23.6,26.8c.2-.3.4-.7.6-.9.2-.3.3-.5.5-.8.8-1.1,1.3-1.5,2-1.7.5-.1,1,0,1.5.4s.8.9.9,1.4c.1.5,0,1.1-.8,2.3l-1.3,1.7s.1-.7-.2-.9l-2.1-1.5c-.4-.3-1.1,0-1.1,0ZM27.3,27.5c.4.3.5.2.8-.2.9-1.2.3-2.2-.4-2.6-.5-.3-1-.5-1.4-.4-.5.1-.9.4-1.3.9-.1.1-.2.3-.3.5l2.6,1.8Z"/>
        <path class="st1" d="M24.1,32.6l.5.5c.2.2.9-.3.9-.3l-.7,1.7s-.1-.7-.4-1l-3-3.1h0l4.3-.2c.4,0,1-.4,1-.4l-.9,2.1s-.1-.8-.4-.8h-.8l-.5,1.5ZM22.8,31.3l1.1,1.1.5-1.2-1.6.1Z"/>
        <g>
          <path class="st1" d="M63.4,16.4c1.2.7,1.7,1.9,1.1,3.1-.6,1.1-1.9,1.6-3.3.8-1.4-.7-1.7-2.1-1.1-3.1.6-1.2,2-1.5,3.3-.8ZM61.5,20c.8.5,1.6-.1,2.1-.9.5-1,.5-2.1-.4-2.6-.8-.4-1.6-.1-2.1.8-.6,1.2-.5,2.3.4,2.7Z"/>
          <path class="st1" d="M63.6,23.4c-1.4-1.2-.9-1-1.3-2.2s-.1-3-.4-3.2.6-.3.9,2.4c.3,2.6.8,3,.8,3Z"/>
        </g>
        <path class="st1" d="M28.1,76.8c-12-7.1-20.1-20.2-20.1-35.1C8,19.2,26.3,1,48.7,1s40.7,18.3,40.7,40.7-18.3,40.7-40.7,40.7c-7.4,0-14.4-2-20.4-5.5l-.7-.4-.5.7.7.4c6.1,3.6,13.3,5.6,20.9,5.6,23,0,41.6-18.7,41.6-41.6S71.6,0,48.7,0,7.1,18.7,7.1,41.6c0,15.3,8.2,28.6,20.5,35.9l.5.3.4-.7-.4-.3Z"/>
        <path class="st1" d="M32.4,68.2c-8.8-5.5-14.8-15.3-14.8-26.5,0-14.4,9.9-26.6,23.3-30.1l.2-.7c-13.9,3.4-24.2,15.9-24.2,30.8,0,11.4,6,21.4,15.1,27l.5.3.3-.5-.4-.3Z"/>
        <path class="st1" d="M32.4,68.9c4.8,2.9,10.4,4.5,16.4,4.5,17.5,0,31.7-14.2,31.7-31.7s-14.2-31.7-31.7-31.7c-2,0-4,.2-5.9.6l-.2.6c2-.4,4-.6,6-.6,17.1,0,31.1,14,31.1,31.1s-14,31-31.1,31c-5.9,0-11.4-1.6-16.1-4.5l-.5-.3-.5.4.8.6Z"/>
        <g>
          <path class="st1" d="M48.4,7.6c-.3,0-.6-.1-.8-.2-.3-.1-.5-.3-.6-.6"/>
          <path class="st1" d="M48.9,5.1l1.1-1c.2.2.4.4.5.7s.2.5.2.8l-1.5.1,1.3.7c-.1.3-.3.5-.5.7-.2.2-.5.3-.7.4l-.6-1.4-.3,1.5c-.3,0-.6-.1-.8-.2-.3-.1-.5-.3-.6-.6l1.1-1-1.4.2c-.1-.3-.1-.6,0-.9.1-.3.2-.5.3-.7l1.2.7-.7-1.2c.2-.2.5-.3.8-.3s.6,0,.8.1l-.2,1.4Z"/>
        </g>
        <g>
          <g>
            <path class="st1" d="M64,33.1c-.3,0-.6-.2-.8-.6-.1-.3.2-.6.2-.6h.2c.2,0,.2-.1.2-.3s-.2-.3-.3-.3c-.2,0-.4.1-.6,0-.1,0-.1-.2,0-.3,0-.1.1-.2.1-.3s-.2-.2-.3-.2-.3.1-.2.2c0,.2.1.2.2.3s.1.2,0,.3l-.4.2h-.1c-.2,0-.3.1-.3.3s.1.3.3.3c.1,0,.2-.1.3-.2,0,0,.3.2.2.5,0,.3-.1.5-.6.7-.4.1-.7-.1-.7-.1,0,0-.1.4-.5.3-.6-.1-.7-.8-.7-.8,0,0,.2,0,.4-.3.1-.3-.1-.4-.4-.5-.2,0-.4.2-.6.1-.2-.1.1-.6-.2-.7-.3-.2-.5.2-.5.2,0,0,.4.5,1,1.3.5.7,1.1,1.5,1.1,1.5l-.3.2s-.4-.7-1.2-1.6c-.6-.8-1.1-1.3-1.1-1.3,0,0,0-.1.1-.2.2-.2.5-.5.9-.3s.2.8.2.8c0,0,.2-.2.6-.2.4.1.7.4.7.7-.1.5-.4.6-.4.6,0,0,0,.2.3.1.2,0,.4-.3.4-.3,0,0,.5.5.8.1,0,0,0-.1.1-.1h-.1c-.4,0-.7-.3-.7-.7s.3-.7.6-.7h.2c-.1-.1-.3-.2-.3-.5s.3-.6.6-.6.7.3.7.6c0,.2-.1.3-.2.4h0c.1-.1.2-.1.4-.1.4,0,.7.3.7.7s-.3.7-.6.7h-.1c.1.1.3.2.4.2.4.1.5-.3.5-.3,0,0,.2.2.4.1.3-.1.3-.3.3-.3,0,0-.3,0-.6-.3-.2-.3-.2-.6.2-.8.3-.2.7-.1.7-.1,0,0-.4-.4-.1-.8.3-.3.7-.2,1-.1l.4.2s-.3.5-.5,1.5c-.3,1.3-.5,2-.5,2l-.3-.1s.2-1.1.4-1.9c.2-.9.4-1.2.4-1.2,0,0-.3-.3-.5,0s.3.5.1.7c-.2.2-.5,0-.6.1q-.2.2-.1.4c.1.2.4.1.4.1,0,0,.2.7-.3,1-.3.2-.6-.1-.6-.1,0,0,.2.4-.4.4Z"/>
            <path class="st1" d="M60.9,34.4c0-.4,1-.8,2.4-.9,1.4-.2,2.5,0,2.5.4s-1,.8-2.4.9c-1.3.1-2.4-.1-2.5-.4ZM63.2,34.4c.8-.1,1.4-.2,1.3-.5,0-.1-.7-.2-1.5-.1-.8.1-1.5.3-1.5.4.1.2.9.3,1.7.2Z"/>
          </g>
          <g>
            <path class="st1" d="M72.5,31.9c-.3,0-.6-.2-.8-.6-.1-.3.2-.6.2-.6h.2c.2,0,.2-.1.2-.3s-.2-.3-.3-.3c-.2,0-.4.1-.6,0-.1,0-.1-.2,0-.3,0-.1.1-.2.1-.3s-.2-.2-.3-.2-.3.1-.2.2c0,.2.1.2.2.3s.1.2,0,.3l-.4.2h-.1c-.2,0-.3.1-.3.3s.1.3.3.3c.1,0,.2-.1.3-.2,0,0,.3.2.2.5,0,.3-.1.5-.6.7-.4.1-.7-.1-.7-.1,0,0-.1.4-.5.3-.6-.1-.7-.8-.7-.8,0,0,.2,0,.4-.3.1-.3-.1-.4-.4-.5-.2,0-.4.2-.6.1-.2-.1.1-.6-.2-.7-.3-.2-.5.2-.5.2,0,0,.4.5,1,1.3.5.7,1.1,1.5,1.1,1.5l-.3.2s-.4-.7-1.2-1.6c-.6-.8-1.1-1.3-1.1-1.3,0,0,0-.1.1-.2.2-.2.5-.5.9-.3s.2.8.2.8c0,0,.2-.2.6-.2.4.1.7.4.7.7-.1.5-.4.6-.4.6,0,0,0,.2.3.1.2,0,.4-.3.4-.3,0,0,.5.5.8.1,0,0,0-.1.1-.1h-.1c-.4,0-.7-.3-.7-.7s.3-.7.6-.7h.2c-.1-.1-.3-.2-.3-.5s.3-.6.6-.6.7.3.7.6c0,.2-.1.3-.2.4h0c.1-.1.2-.1.4-.1.4,0,.7.3.7.7s-.3.7-.6.7h-.1c.1.1.3.2.4.2.4.1.5-.3.5-.3,0,0,.2.2.4.1.3-.1.3-.3.3-.3,0,0-.3,0-.6-.3-.2-.3-.2-.6.2-.8.3-.2.7-.1.7-.1,0,0-.4-.4-.1-.8.3-.3.7-.2,1-.1l.4.2s-.3.5-.5,1.5c-.3,1.3-.5,2-.5,2l-.3-.1s.2-1.1.4-1.9c.2-.9.4-1.2.4-1.2,0,0-.3-.3-.5,0s.3.5.1.7c-.2.2-.5,0-.6.1q-.2.2-.1.4c.1.2.4.1.4.1,0,0,.2.7-.3,1-.3.2-.6-.1-.6-.1,0,0,.2.4-.4.4Z"/>
            <path class="st1" d="M69.4,33.1c0-.4,1-.8,2.4-.9,1.4-.2,2.5,0,2.5.4s-1,.8-2.4.9c-1.3.1-2.4,0-2.5-.4ZM71.7,33.2c.8-.1,1.4-.2,1.3-.5,0-.1-.7-.2-1.5-.1-.8.1-1.5.3-1.5.4.1.2.9.2,1.7.2Z"/>
          </g>
          <g>
            <path class="st1" d="M69,37.7c-.3,0-.6-.2-.8-.6-.1-.3.2-.6.2-.6h.2c.2,0,.2-.1.2-.3s-.2-.3-.3-.3c-.2,0-.4.1-.6,0-.1,0-.1-.2,0-.3,0-.1.1-.2.1-.3s-.2-.2-.3-.2-.3.1-.2.2c0,.2.1.2.2.3s.1.2,0,.3l-.4.2h-.1c-.2,0-.3.1-.3.3s.1.3.3.3c.1,0,.2-.1.3-.2,0,0,.3.2.2.5,0,.3-.1.5-.6.7-.4.1-.7-.1-.7-.1,0,0-.1.4-.5.3-.6-.1-.7-.8-.7-.8,0,0,.2,0,.4-.3.1-.3-.1-.4-.4-.5-.2,0-.4.2-.6.1-.2-.1.1-.6-.2-.7-.3-.2-.5.2-.5.2,0,0,.4.5,1,1.3.5.7,1.1,1.5,1.1,1.5l-.3.2s-.4-.7-1.2-1.6c-.6-.8-1.1-1.3-1.1-1.3,0,0,0-.1.1-.2.2-.2.5-.5.9-.3s.2.8.2.8c0,0,.2-.2.6-.2.4.1.7.4.7.7-.1.5-.4.6-.4.6,0,0,0,.2.3.1.2,0,.4-.3.4-.3,0,0,.5.5.8.1,0,0,0-.1.1-.1h-.1c-.4,0-.7-.3-.7-.7s.3-.7.6-.7h.2c-.1-.1-.3-.2-.3-.5s.3-.6.6-.6.7.3.7.6c0,.2-.1.3-.2.4h0c.1-.1.2-.1.4-.1.4,0,.7.3.7.7s-.3.7-.6.7h-.1c.1.1.3.2.4.2.4.1.5-.3.5-.3,0,0,.2.2.4.1.3-.1.3-.3.3-.3,0,0-.3,0-.6-.3-.2-.3-.2-.6.2-.8.3-.2.7-.1.7-.1,0,0-.4-.4-.1-.8.3-.3.7-.2,1-.1l.4.2s-.3.5-.5,1.5c-.3,1.3-.5,2-.5,2l-.3-.1s.2-1.1.4-1.9c.2-.9.4-1.2.4-1.2,0,0-.3-.3-.5,0s.3.5.1.7c-.2.2-.5,0-.6.1q-.2.2-.1.4c.1.2.4.1.4.1,0,0,.2.7-.3,1-.3.2-.6-.1-.6-.1,0,0,.2.4-.4.4Z"/>
            <path class="st1" d="M65.9,38.9c0-.4,1-.8,2.4-.9,1.4-.2,2.5,0,2.5.4s-1,.8-2.4.9c-1.3.1-2.4,0-2.5-.4ZM68.2,39c.8-.1,1.4-.2,1.3-.5,0-.1-.7-.2-1.5-.1-.8.1-1.5.3-1.5.4.1.2.9.2,1.7.2Z"/>
          </g>
        </g>
        <path class="st1" d="M51.6,30.3c-1.1,1.2-.4,3-.6,4.5-.4,1.3-1.8,2.1-2.2,3.4-.1.7-.2,1.8.3,2.3,0-.1-.1-.2-.1-.2-.2-1.5.3-2.6,1.6-3.9,2-2.3-.3-4.1,1.6-5.9l-.6-.2Z"/>
        <path class="st1" d="M56.3,44.7c.9,0,1.5-.1,2.4-.4.9-.3,1.6-.5,2.4-.8,1.8-.6,2.8-1,4.7-1h.2c.5,0,1,.1,1.5.2l.8.4c1.2,1,1.3,1.6,2.8,2.5.7.3,1.3,1,1.8,1.1-.2-.2-.5-.3-.9-.8-.7-.6-1.9-2.2-3.2-3.2-.7-.4-1.5-.7-2.3-.7-1.6-.3-3.5.2-4.9.8-1.5.5-2,.6-3.6.8-.6.1-1,.1-1.5-.1-.2-1.6-.8-1.3-.6-3.2.6-2.3.4-4.2-.4-6,.2-.6.2-1.6-.3-2.1-.4-.4-1.6-.5-1.9.2.1.6,1,.2,1.4.5.5.1.4.7.4,1-.1.9-1.2,1.4-1.9,1.6.3.5,1.3.2,1.7-.1.4.9.6,1,.8,2,.1,1.8-.4,1.8-1.1,2.9-.3.6-.3,1.4.2,2.7-.1-1.9.1-2,.7-2.9,0,0-.2.8-.2,1.5,0,.9.5,1.2.5,2-.2.7-.2.9-.6,1.5-.8,1.1-2.3,1-2.9,3.8,1.1-1.6,1.3-2,2.4-2.6,1-.3,1.3-.8,1.6-1.6Z"/>
        <path class="st1" d="M45.9,35.3c.5.4.6.8,1,1.2-.2-.1-1.4-.9-2-.7-.9.1-2.1.9-3,0-.5-.2-.9-1.2-1-1.7.5.9,1.4,1.7,2.6,1.5.6-.1.9-.2,1.5-.2.3,0,.7,0,1,.3-.4-.4-.9-.7-1.5-.7-1.4,0-2.8.6-3.6-1,.8.6,2.4.7,3.7.7.5.2,1,.3,1.3.6ZM43.8,33c-.1.2-.3.5-.2.7l.4-.5c-.1,0-.1-.1-.2-.2ZM44.7,33.6c.1.2.2.3.2.5.2,0,.2-.3.4-.3l-.6-.2ZM44.9,34.6c-.1-.4-.2-.8-.7-.9-.4-.2-.8.8-.9,0-.2-.5.4-.8-.1-1.3-.4-.7.2-.8,0-1.6,0-.5-.1-1.2.6-1.3,1.1-.3,2.2-.3,3.3.1.3-.3.4-.4.4-.6,0,0,.5-.1.8.1.3.1.7.3.7.3-.3,0-.9.1-.8.5.2.5.7-.2,2,.6.1.1.3.2.3.5-.6-.3-1-.2-1.5-.4-.4-.1-.5-.1-1-.1-.2,0-.8.5-.8.2,0,0,0-.2-.1-.5s-.2-.3-.5-.4c-1.3-.3-2-.2-2.8-.1-.3.1-.4.5-.3.8.3.5.3.4.6.4.2-.1.4-.5.8-.5.3,0,.5,0,.6.3v.2c-.1-.2-.4-.1-.6-.1q-.1.1-.1.2c.1.2.2.1.4.1-.1.2-.8.3-1.2.3-.2,0-.2.2-.2.2-.2.2-.1.4,0,.6.6.8,1.7.8,2.6,1.4.2.1.4.5.5.7-.4-.2-.5.4-.5.5l.2-.1c.1,0,.5-.2.5-.2.2.2.1.5.2.8.1-.2,0-.5.2-.8.3,1,.9,2.8-.6,5.1-.8,1.5-.7,1.9-.6,3.9-1-2.2-.2-3.2,0-4.6,0-.1,0-.3-.1-.4,0,.6-.1.9-.5,1.5-.7.9-.8,2-.4,2.9.3,1,.6,1.3.5,2.3-.2,1-.4,1.5-.1,2.8h0c-.8-1.5-.5-2-.5-2.9,0-.8-.1-1.5-.6-2.1l.3.2c-.3,1.8-2.7,1.9-1.8,4.3.3.5,1,1.6,1,2.1-.5-.9-1.1-.9-1.6-1.9-1.2-.2-2.1.6-3.2,1-.6.2-1.3.5-2.4-.5,2.1.8,3.5-.6,4.8-1.1.7-.3.4-.9.5-1.3.2-1.4,1.6-1.3,2-2.7,0-1.1-.1-1.8.2-2.6.3-.8.9-.5,1-1.5.3-1.1-1.3-1.2-1-2.6.2.3.6.4.9.6.6.3,1.2.7,1.6,1.2,0-.2-.5-.9-.7-1.1l-.6-.4c.1-.2.3-.3.5-.5-.1.6.7.9,1,1.3.2-.9,0-1.8-.2-2.6,0,0-.3,0-.5.2-.3-.6-.1-.9,0-1.3,0-.2-.2-.1-.3-.1-.2.1-.3.2-.3.2l-.3-.5c-.2.7-.5,1-.6,1.2"/>
        <path class="st1" d="M54.3,33.7c.1.3-.1.6-.2.8s-.3.2-.4.2c0-.2.5-.5.2-.8l-.5-.4c.2-.2.8-.2.9.2Z"/>
        <path class="st1" d="M45.5,37.2c-.1,0-.3,0-.4-.1-.5-.2.1-.4.1-.7.2.2.1.5.3.8Z"/>
        <path class="st1" d="M47.5,42.7c0,1-.1,1.7-.3,2.3-.2.6-.3.8-.7,1.5.4-.9.5-1.6.6-2.7.1-.9.1-2.3.4-3.1l.3-.9c-.2,1.5-.2,2.2-.3,2.9Z"/>
        <path class="st1" d="M35.4,53.1c.2-.3.4-.2.5-.3.2.2.1.4.4.5.4.2.9-.2,1.2-.4,0,0,.7.5,1.2.5.4,0,.6-.4,1-.4s.6.5.6.5c0,0,.4,0,2.4-.4,2-.3,1.5,1,1.5,1,0,0,.8.2,1.6-.7.6-.7,1.2-1.6,1.4-2.5.2-.9.2-4.2.2-4.2,0,0-.6,1.5-.6,2.4-.1.9-.2,1.9-1,3-.2.2-.8.5-.8.5.1,0-.2-.5-.5-.7-.4-.3-.7-.3-.7-.3,0,0-1.5,1-2.1,1s0-1,0-1c0,0-1.7.6-2.6.9-.9.3-1-.2-1-.2-.4.1-1.3.5-1.8.3-.5-.3-.7-.5-.9-.2l-.5.5c-.5-1.1.8-1.5,1.2-1.9l-.8-.1c-.3-.1-.5-.5-.4-.7-.5,0-.9.2-1.2.3.1-.9,1.2-.5,1.6-1.1.1-.2.4-.3.8-.1,0,0-1-.6-.9-.9.3-1,1.9.5,2.3.7-.1-.2-.3-.3-.4-.5-.7-1.5-2.4-1.2-3.1,0,.1.1.6-.3.7.1.1.2.3.4.3.5-.4.2-.7.2-1,.4-1.1.4-1.1,1.8-1.1,1.8,0,0,1.1-.2,1.4-.3,0,0,.1,0,.1-.1.2.5.7.2.1,1.2-.3.6.3,1.6.3,1.6,0,0,.3-.3.6-.7Z"/>
        <path class="st1" d="M49.5,45.3c-.3.4-1.2,2.1-1.3,3.7-.3-1.4,0-2.5,1.1-4.4,1.6-2.3.8-4.6.9-5.3,1.2,4.2-.2,5.2-.7,6Z"/>
        <path class="st1" d="M44.4,47.7c.1.3.2.8.5,1.4.2.4.5,1.1.2,2.6-.3-2-.5-2-.9-2.7-.3-.5-.5-1.4-.4-2.2,0-.2.4-.8.5-1,0,.5-.1,1.4.1,1.9Z"/>
        <path class="st1" d="M48.8,50.4c-.5.8-1,1.3-1.3,1.6.3-2.3,1.7-2.6,2.3-5.4,0,1.1-.4,3.1-1,3.8Z"/>
        <path class="st1" d="M58.3,53.6c.3.1.6.2.8.3-.4-.1-1.1-.3-1.4-.3h-.4c-1-.1-2.2-.4-3-.1-1.3.6-2.7,1.6-3,2.4-.7,1.5-2.4.3-3.6,1.6-.3-.3.2-.8.8-1.3.5-.2,1.7.1,2.1-.4.3-.3-.4-1-1.2-.6-1,.4-1,.9-1.6,1.3,0-.7.7-1.7,1.7-1.8.5-.1,1,.2,1.6.1.6-.4,1-.6,1.8-1.1.5-.3,1-.4,1.6-.5,1.4-.1,2.6.2,3.8.4Z"/>
        <path class="st1" d="M45.9,37.4s-.1,0-.4-.1-.7-.3-.7-.3c-.1,0-.2-.1-.2-.1,0,0,.1-.1.2-.1s.5.1.8.2c.3.2.5.3.5.3l-.2.1Z"/>
        <path class="st1" d="M54.8,31.4s0,.1.1.4c.1.3.2.4.2.4,0,0-1.2,0-1.1-.1.1-.2.2-.3.1-.4-.1-.1-.2-.3-.2-.3h.9Z"/>
        <path class="st1" d="M47.6,34.9c-.1-.4-.3-.6-1.1-1.1-.8-.4-1.5-.6-1.8-.7-.3-.1-.8-.3-.7-.2.1,0,1.7.9,2,1.1.3.1.8.3.9.5q.2.2.3.4c.1.2,0,.5.1.8s.3.3.3.3c0,0,.2-.6,0-1.1Z"/>
        <path class="st1" d="M45.4,32c.5,0,.7,0,1.1.2.3.1.5.7.7,1,0,0-.9-.9-1.5-.9-.2-.1-.5-.3-.3-.3Z"/>
        <path class="st1" d="M45,32.5c.3-.1.4,0,.7.1.2.1.3.3.5.5l-.2-.1-.2-.2c-.3-.2-.4-.2-.6-.2-.2,0-.4-.1-.2-.1Z"/>
        <path class="st1" d="M52.6,31.4s-.5.5-.6,1.4.1,1.9.3,2.9c.1,1,0,1.7-.4,2.4-.3.5-.6,1.3-.5,2.1,0,1,.8,1.9.8,1.9,0,0-.6-1.2-.4-2.3s.9-1.8,1-2.6,0-1.6-.3-2.6c-.4-1.5-.4-2.4.1-3.2Z"/>
        <path class="st1" d="M51.5,45.5s.6-1,.6-1.9-.6-1.8-.7-2.7c-.2-.9-.2-1.1,0-1.8s.8-1,.8-1c0,0-.5.9-.5,1.4,0,.6-.1.9.3,1.9.3,1.1.7,2.1.5,2.8-.3.8-.6,1.2-.8,1.5-.4.4-.5.5-.2-.2Z"/>
        <path class="st1" d="M49.8,52.2c-.1.1-.3.2-.5.3s-.4.1-.4.1c0,0,.2-.3.8-1,.9-1.3.8-2.6,1.1-4,.2-1,1-2.1,1.3-2.7.3-.5.1-2.2.1-2.2-.1,2.8-1.6,2.7-1.9,4.9-.1,1.2-.5,2.6-1.5,3.8-.8,1.1-2.1,2.2-3.5,2.7,1.6.3,2.7-.1,4-.2.3,0,1,0,1.4.1h0c.3.1.4-.2,1.2-.7.6-.3,1.1-.5,1.6-.7.7-.2,1.3-.3,1.9-.3,0,.2,2.3.2,2-.1-.1-.5-1-.1-.7-.4-.8.4-1,.1-2,.3,0,0-.8.1-1.4.1,0,0-.4,0-.7-.1-.6-.3-.5-.8-.5-.8v-.8c0-.4-.1-1-.1-1,0,0-.9,1.9-2.2,2.7Z"/>
        <path class="st1" d="M68.7,46.2s-1.2-1.4-2.5-1.7-3.7.1-5.2.8c-1.5.8-2,1.8-2.8,3.2,0,0-.3.5-.5,1.1-.3.8-.3,1.1.2,1.3.2.1,1.3-.4,1.3-.4-.2-.3-1.1-.2-1.1-.2,0,0,.4-.6.8-.8s1-.1,1-.1l-.5-.3s0-.3.5-1.4c.5-1.1,1-2,2.9-2.5s2.9-.6,4-.1c1,.4,1.9,1.1,1.9,1.1Z"/>
        <path class="st1" d="M67.5,53.5s-.6-.4-1.3-.7c-.6-.3-1.5-.5-1.5-.5,0,0,2.1-.4,3.2-.6.7-.2,1.1-.3,1.5-.5.5-.2.6-.5.6-.5,0,0,.3-.1.6-1.1.3-.8-.1-2.2.1-2.4.3-.5,2.6.1,3.6,1.7.7,1.1.1,3,.1,3,0,0,.6-.3.7-1.9.1-2-2.2-3.1-2.2-3.1,0,0,1.4.3,2.2,1.7.8,1.4.3,3.2-.9,4.7-1.2,1.5-3.9,1.5-4.9,1.3,0,0,.5.6.7,1.1.3,1-.1,1.6-.5,1.9-.3.2-2.3.3-2.9.3s-.9,0-1.8.1-1.9-.1-2.3-.1c-.2,0-.4.1-1,.2-.9.2-.9,0-.9,0,0,0,.2-.4-1-.3-.8.1-1.4.1-1.4.1,0,0-.7.3-1.8.1s-1.2-.9-1.2-.9c0,0,.9.4,1.8.4s1.4-.5,1.4-.5c0,0,.2.4,1.2.1.5-.2.8-.4.8-.4,0,0,1.8.1,2,.1.6.1,2,.2,2,.2,0,0,.2,0,1.3.1.8.1,1.4.1,1.4-.1s-.6-.4-.6-.4c0,0,1.1.1,1.6.2.4,0,.7-.1.9-.2.2-.1.3-.8,0-1-.3-.3-.2-.3-.6-.5-1-.5-.8-.7-.8-.7,0,0-.3-.4.3-.1.3.1-.1-.4-.1-.4,0,0,0-.3-.3-.4ZM71.7,48.1s.1,2.1-.5,3c-.6,1-2,2.1-2,2.1,1.6.6,4.4-.2,4.9-1.8.4-1.5-.2-2.8-.9-3.2-.9-.5-1.5-.1-1.5-.1Z"/>
        <path class="st1" d="M63.1,51.8s.2.1.5.2c.3.1,1.4.5,1.4.5,0,0,.5.1.7-.2.4-.4-1,0-.9-.4,0-.1-.2-.3-.2-.3,0,0-.4-.1-.7-.1-.7.1-.8.3-.8.3Z"/>
        <path class="st1" d="M53.4,52.3s1.1,0,2.2-.3,1.3-.6,1.8-.7c.4-.1,1.1-.1,1.1-.1,0,0-.2.1-.3.4-.1.3.1.5.1.5,0,0,.4-.2.7-.1.3.1.4.3.4.3,0,0-.3.5.1.6s1,.1,1.8.4c.9.3,1.4.4,2.1.5s1.4.4,1.4.4c0,0,.1.1-.1.2-.3.1.7.4.7.4,0,0,.1.1-.5,0-.5,0-.6,0-1.3-.2-1-.2-1.4-.2-1.4-.2,0,0-.4-.1-1-.1-.3,0-1.3-.1-2.3-.2-1-.1-1.8-.3-2.3-.5-.6-.2-1.2,0-1.2,0,0,0-.3-.3-.8-.1s-.7.8-.7.8c0,0,.3-.1.5-.1s.4.1.4.1c0,0,.2.3-.1.5-.3.2-.7.4-.7.4,0,0,0-.1-1.1-.1s-1.2-.2-1.5.4c-.4.5-.2-.8-.2-.8,0,0,.3-.4,1.7-1.1s2.6-.6,3.1-.6,1.2,0,1.9.2c.4.1,1.5.5,1.5.5,0,0-.5-.4-1.5-.8-.8-.3-3.1-.3-4.2,0s-1.5,0-1.4-.2c.2-.3,1.1-.4,1.1-.4Z"/>
        <path class="st1" d="M54,54.4s.5-.2.8-.1c.1.1.2.1.3.2.1.1.3.3.3.3,0,0-1.2.1-1,.7.3.6.9.5.9.5,0,0-.3.2-.4.5-.1.4.3.6.3.6l1,.4-.6.2s-.4-.2-.5.1c-.1.3-.1.5-.1.5,0,0-.4-.4-.5-.9s.3-.9.3-.9c0,0-.3-.3-.6,0-.3.3-.3.6-.3.6,0,0-.4-.4-.5-.9s.3-.9.3-.9l.3-.9Z"/>
        <path class="st1" d="M45.1,41.3c-.3,2.1-1.1,3.1-1.3,3.8,0,0-.2-.4-.6-.7s-1.1.2-1.1.2c0,0-.6-.8-2.1-1.4-1.2-.5-1,.5-1,.5,0,0-1-1.1-1.3-1.5-.5-.5-1-.3-1.5-.2s-1.8-.1-1.8-.1c0,0-1-.1-1-1.1,0-.7.8-1,.8-1,0,0-.6-.4-.6-1.1.1-.7.8-.7.8-.7,0,0-.6-.5-.5-.8,0-.4.6-1,1.1-1,.4-.1,2,.8,2.7,1,.6.2.4,1,1.5,1.5.5.2,1.3.4,2.4.4s1.4.4,2.7.7c1.2.3,1.3-.2,1.3-.2,0,0-.4.9-.5,1.7ZM35.4,36.6c-.4-.2-.7-.1-1,.2-.1.2-.1.7.1.8.8.1.7-.5,1.5-.4-.2-.2-.4-.4-.6-.6ZM34.6,40c-.3.1-.8.5-.7,1h0c.2.4.3.5.8.6.2-.1.4-.1.4-.3h0s-.1-.1,0-.2c.3-.3.6-.2.9-.2-.4-.4-.6-.4-.8-.5-.5-.4-.2-.7.1-.9.1-.1.7,0,.9.1l-.9-1c-.4-.2-1-.3-1.2.2,0,.1-.1.5.1.6.2.3.4.4.4.6ZM44.2,42.9s-.2-.8.1-1.4c.3-.7.8-1.2.8-1.2-.6.3-.9,0-2.4-.4s-2.3-.3-2.9-.4c-.6,0-2-.9-2.2-1.1-.2-.2-.2-.4-.3-.8-.1-.3-.5-.4-.8-.4-.3.1-.4.3-.4.3,0,0-.2,0-.5.1-.3.1-.5.4-.5.4,0,0,.3-.1.5-.1s.4.2.4.2c0,.7-.1.7.2,1.2.4.6,1.1,1.3,1.1,1.3.8.5,1.8.9,1.9,1s.7.3,1.3.5c.6.2,1.1.9,1.1.9,0,0,0-.7.9-.4.8.3,1.7.3,1.7.3Z"/>
        <path class="st1" d="M53.7,35.7s.2,1.2,0,1.7c-.4,1-1,1.2-1.1,2.2-.2,1.1.2,2.4.3,3.1.2.7.4,1.4.2,2-.2.5-.7,1.1-1,1.8s-.5,1.5-.5,1.5c0,0,.5-1,.8-1.5.4-.6,1-1.3,1.2-1.9.5-1.4-.3-2.4-.4-3.2-.2-1,.1-1.9.6-2.6.5-.7.7-1.2.8-1.8.1-.8.1-1.5.1-1.5l-1,.2Z"/>
        <path class="st1" d="M30.1,65.4s23.1-.6,28.9-1.1c1.6-.1,4.4-.2,6.1-.4,1.7-.2,4.3-.3,4.3-.3,0,0-.8.4-2.8.6-2.2.2-6.4.7-8.4.7-2.4,0-10.2.6-12.6.7-9.5.4-15.5-.2-15.5-.2Z"/>
        <path class="st1" d="M43.6,9l-5.9,26.4s0,.3.1.4c.2.1.3.1.5.2.2.1.4.3.4.3,0,0-.4,0-1-.2-.5-.2-.6-.5-.6-.5l6-26.5c.2-1.1.6-3.5.7-4.1s-.1-.5-.3-.2-1,2.1-1.3,3.7c0,0-5.8,24.2-5.9,24.9-.1.7,0,1-.4,1.5-.3.6-.6.7-1,.6-.3,0-.7,0-.8.2s.2.3.5.3.7,0,1.1-.1.6-.2.6-.2c0,0,.1.2.2.3.2.2.4.3.6.4.2.1.8.3,1.2.2.4,0,.4.2.5.3.1.2.4.3.7.1.3-.1.3-.6,0-.8-.3-.3-.7,0-.8-.1-.1-.1.3-.5.9-.3.5.2.8.6.5,1.2-.2.6-.9.6-1.3.6-.4-.1-.6-.3-.7-.4-.1,0-.4-.1-.4-.1,0,0-2.5-1-2.8-1.1-.2,0-.8.1-.9.1-.2,0-.3.3-.8.2-.3,0-1.1-.4-.9-1.2.2-.6.6-.8,1.2-.7.3.1.3.3.6.4.4.1.6,0,.7-.3.1-.4,6.3-25.1,6.3-25.1.9-2.9,1.6-4.7,2.2-5.5s.9-1.4.8.3c0,1.9-.1,3.1-.5,4.8ZM33.4,35.9c.2,0,.3-.1.3-.3s-.2-.3-.3-.3-.3.1-.3.3.1.3.3.3Z"/>
        <path class="st1" d="M46.7,49.6s.1-1.9.9-4.1c.3-.9,1-2,1.1-2.9.2-1.1-.1-2.4-.1-3,.1-.6.1-1.2.1-1.2h.4s-.2,1.4-.1,2,.3,1.7.1,2.5c-.3,1.2-1,2.1-1.3,3.1-.3,1.3-.5,2.7-.6,4.1l-.5-.5Z"/>
        <path class="st1" d="M32.2,35.8c.2,0,.4-.2.4-.4s-.2-.4-.4-.4-.4.2-.4.4c0,.2.2.4.4.4Z"/>
        <path class="st1" d="M35,44.3c.3,0,.5-.2.5-.5s-.2-.5-.5-.5-.5.2-.5.5.2.5.5.5Z"/>
        <path class="st1" d="M34.4,41.8s.2-.1,0,0c-.2.2-.5.6-.4,1s.4.8,1,.9c.6.1,1.2-.2,1.3-.8.1-.6-.1-.8-.2-1-.2-.2-.8.1-.8.1.3.2.4.5.4.7,0,.3-.3.4-.5.4s-.5-.2-.4-.6c.1-.4.5-.5.5-.5,0,0,0-.2.1-.3.1-.1-1,.1-1,.1Z"/>
        <path class="st1" d="M40.6,37.8c.3,0,.5-.2.5-.5s-.2-.5-.5-.5-.5.2-.5.5c0,.2.2.5.5.5Z"/>
        <path class="st1" d="M38,53.6s.6,1.3,1.2,2.2c.6.8,1,1.4,1.4,2.1s1.5,2.5,2.5,3.7c.9,1.2,2.6,3.1,2.6,3.1,0,0-2.1-3.4-2.8-4.3-.7-.9-1.3-1.9-1.9-2.7-.6-.9-2.6-3.7-3-4.1Z"/>
        <path class="st1" d="M43.5,53.6s2.5,3.1,3.8,4.6,1.9,2.7,2.5,3.4c.6.7,2.4,2.8,2.4,2.8,0,0-.9-2-1.9-3.1s-1.8-2.4-2.6-3.3c-.8-1-2-2.6-2.6-3.1-.5-.5-1.3-1.4-1.6-1.3Z"/>
        <path class="st1" d="M51.6,56s3.2,3.9,3.7,4.5c.5.5,2.2,2.9,2.2,2.9,0,0,1.8,1.8.6.1-.3-.4-1.9-2.4-2.6-3.3s-1.5-1.8-2.2-2.6c-.6-.8-1.6-1.4-1.7-1.6Z"/>
        <path class="st1" d="M59.4,57.8s.5,1,1,1.5,1.6,1.7,1.9,2.1,2.4,2.2,2.4,2.2c0,0-.8-1.1-1.4-1.7l-1.7-1.7c-.4-.6-1.9-2.2-2.2-2.4Z"/>
        <path class="st1" d="M65,57.6s1.6,1.7,2.3,2.6c.8.9,2.6,2.4,2.6,2.4,0,0-.4-.9-.9-1.4-.6-.5-1.7-1.7-2.1-2.3-.4-.6-1.1-1.2-1.1-1.2l-.8-.1Z"/>
        <path class="st1" d="M39.5,61.6s2.5-.3,3.6-.3c1.1-.1,5-.1,6.5-.1,1.4,0,7.2-.5,9.2-.5,2-.1,5.3-.5,6.1-.5s7.6-.1,7.6-.1c0,0-1.1.3-3.2.4-.4,0-4.8.4-5.5.4h-2.6s-1.9.2-2.9.1c-1,0-2.9.2-2.9.2,0,0-.9,0-2.1.1s-3.3,0-3.5.1-1.9.2-3.3.3c-1.4,0-2.7,0-2.9-.1-.2-.1-1.3.1-2,.1-.6,0-2.1-.1-2.1-.1Z"/>
        <path class="st1" d="M53.7,57.2h-3.8c-.7,0-2.9.2-2.9.2,0,0-2-.1-3.1-.1-1,0-5.6.3-5.6.3,0,0,1.5.2,5.7.1h3.5c.4,0,2.3,0,2.9-.1,3.3-.2,3.3-.4,3.3-.4Z"/>
        <path class="st1" d="M46.3,54.3s-3.2,0-4.4.1c-1.3.1-3.8.1-3.8.1,0,0,.8-.2,2-.2,1.2-.1,2.3,0,3-.1,1.2-.1,3.2.1,3.2.1Z"/>
        <path class="st1" d="M26,43.4h-.3l-.1.1h0c-.1.2-.2.4,0,.5.1.2.4.1.4.5h0v-.1h0c0,.1-.1.1-.1.2v.3h0c.1.3.4.4.7.5-.1.1-.2.3-.2.5v.2h0c.1.2.3.3.5.4v.2c-.1.2,0,.5.2.7.1.1.3.2.4.3.1.2-.1.4-.1.7s.3.6.6.6c0,0,.1,0,.1.1,0,.2-.2.3-.2.6s.3.4.6.6c0,.1,0,.2-.1.3-.1.4.2.8.6.9,0,0,.1.1.2.1h.1v-.1c-.2-.2-.4-.3-.4-.6.2-.4.1-.9-.4-1v-.1c.1-.3.2-.5.1-.8-.1-.2-.3-.3-.5-.3v-.1c0-.2.1-.4.1-.7-.1-.3-.3-.5-.6-.6h-.1c.2-.4.1-1-.4-1.1l-.1-.1v.1-.1c.1-.3.2-.6-.1-.8-.2-.1-.4-.1-.5-.3l-.1-.1v.1-.1h0l.1-.1v-.2c0-.3-.3-.5-.6-.6-.1,0-.1-.1-.1-.2v-.1h.1c0-.3.1-.2.2-.3h0Z"/>
        <path class="st1" d="M28.5,42.9c0-.1,0,0,0,0h-.1l-.1.1h0c-.1.2-.2.4,0,.5.1.2.4.1.4.4h0v-.1h0c0,.1-.1.1-.1.2v.3h0c.1.3.4.4.7.5-.1.1-.2.3-.2.5v.2h0c.1.2.3.3.5.4v.2c-.1.2,0,.5.2.7.1.1.3.2.4.3.1.2-.1.4-.1.7s.3.6.6.6c0,0,.1,0,.1.1,0,.2-.2.3-.2.6s.3.4.6.6c0,.1,0,.2-.1.3-.1.4.2.8.6.9,0,0,.1.1.2.1h.1v-.1c-.2-.2-.4-.3-.4-.6.2-.4.1-.9-.4-1v-.1c.1-.3.2-.5.1-.8-.1-.2-.3-.3-.5-.3v-.1c0-.2.1-.4.1-.7-.1-.3-.3-.5-.6-.6h-.1c.2-.4.1-1-.4-1.1l-.1-.1v.1-.1c.1-.3.2-.6-.1-.8-.2-.1-.4-.1-.5-.3l-.2-.2v.1-.1h0l.1-.1v-.2c0-.3-.2-.4-.5-.5-.1,0-.1-.1-.1-.2v-.1h.1c-.1-.1,0-.1.1-.1t-.1-.1,0,0h0Z"/>
        <path class="st1" d="M30.9,42.6c-.3.3-.1.9.3,1,.2.2,0,.2-.1.4h0v.1h0c.1.2.2.4.4.5h.1l-.1-.1h0c.1.1.3.2.2.4-.2.4,0,.8.4,1h0l-.1-.1.1.1c.1,0,.1.1.1.1,0,.1,0,.2-.1.3-.2.4.2.7.5.9.1,0,.1.1.1.2-.1.3-.2.7.1,1,.2.2.4.3.5.6,0,.1.1.1.1.1.1,0,.1-.1.1-.1.1-.2.1-.5-.1-.7-.1-.1-.2-.2-.4-.3,0,0-.1-.1-.1-.2.1-.3.1-.7-.1-.9-.1-.1-.3-.2-.4-.3-.2-.3.1-.5,0-.8q0-.1-.1-.2h0l-.1-.1-.1-.1c-.2-.1-.3-.2-.4-.4-.1-.2.1-.5,0-.7v-.1l-.1-.1h-.1c-.1-.1-.2,0-.2-.1l-.1-.1v.1-.1q-.1,0-.1-.1c.1-.3.1-.6-.3-.8-.2-.1-.1-.3-.1-.5q0-.1-.1-.2c.4.2.3.2.3.3h0Z"/>
        <path class="st1" d="M23.5,43.8c-.3.3-.1.9.3,1,.2.2,0,.4-.1.6h0v.1h0c.1.2.2.4.4.5h.1l-.1-.1h0c.1.1.3.2.2.4-.2.4,0,.8.4,1h0l-.1-.1.1.1c.1,0,.1.1.1.1,0,.1,0,.2-.1.3-.2.4.2.7.5.9.1,0,.1.1.1.2-.1.3-.2.7.1,1,.2.2.4.3.5.6,0,.1.1.1.1.1.1,0,.1-.1.1-.1.1-.2.1-.5-.1-.7-.1-.1-.2-.2-.4-.3,0,0-.1-.1-.1-.2.1-.3.1-.7-.1-.9-.1-.1-.3-.2-.4-.3-.2-.3.1-.5,0-.8q0-.1-.1-.2h0l-.1-.1-.1-.1c-.2-.1-.3-.2-.4-.4-.1-.2.1-.5,0-.7v-.1l-.1-.1h-.1c-.1-.1-.2,0-.2-.1l-.1-.1v.1-.1q-.1,0-.1-.1c.1-.3,0-.7-.3-.9-.2-.1-.1-.3-.1-.5q0-.1-.1-.2c.4.1.4.2.3.2h0Z"/>
        <path class="st1" d="M26.1,50.3c-.1.2,0,.5.2.6.1.1.1.2.1.3,0,0,0-.1-.1-.1v.4c.1.3.4.4.6.6.1.1.2.1.3,0s.1-.2,0-.3-.3-.2-.4-.3l-.1-.1v.1-.1c.2-.3,0-.8-.4-.8,0,0-.1.1-.1,0-.1-.1-.1-.2-.1-.3h0Z"/>
        <path class="st1" d="M27.9,53.7q-.1,0,0,0h0l-.1-.1-.1.1c-.3.3,0,.7.1,1,0,0-.1.1-.1.2-.2.2-.3.5,0,.7.1.1.4.3.3.5-.1.2-.4.4-.4.7,0,.2.2.3.3.5.2.3-.2.5-.2.8-.1.2,0,.5.3.6.1.3-.2.5-.3.7h0v.2c0,.1.1.2.1.2.1.1.3.2.2.3,0,.3-.2.4-.4.6-.1.1-.1.2-.1.3.1.1.2.1.3.1.4-.2.6-.5.7-.9,0-.2-.1-.4-.3-.6v-.1.1-.1c.1-.2.3-.4.3-.7,0-.2-.2-.5-.3-.6.2-.3.3-.6.3-.9s-.3-.4-.3-.6.2-.3.2-.5c.1-.3-.1-.6-.2-1,.1-.2.2-.4.1-.6-.1-.2-.4-.4-.3-.7v-.1h-.1c-.1,0,0,0,0-.1h0c0-.1-.1-.1-.1,0h.1Z"/>
        <path class="st1" d="M30.3,53.5c-.1,0-.2,0-.3.1-.3.3-.2.8.1,1.1v.2c-.2.3-.4.6-.2,1,.1.2.2.3.3.5v.2c-.4.3-.4.9,0,1.3.1.2,0,.4-.1.5l-.1.1v.2c-.1.3.1.6.3.9v.2c-.3.2-.5.5-.4.9,0,.1.1.2.2.2s.2-.1.2-.2v-.2c.1-.2.4-.4.4-.7.1-.3-.1-.5-.3-.7v-.3.1-.1c.3-.2.3-.5.2-.8,0-.5-.2-.6-.2-.8-.1-.3.1-.5.2-.8v-.2c-.1-.2-.2-.5-.1-.7,0-.2.2-.4.3-.6.1-.4-.2-.6-.4-.9-.2-.1-.1-.3-.1-.5q.1,0,0,0,.1,0,0,0h0Z"/>
        <path class="st1" d="M32.7,53.1c-.1,0-.2,0-.3.1-.4.5,0,1,.2,1.5-.1.1-.1.2-.1.2-.4.4-.2,1,.1,1.4h0c0,.1.1.1.1.2-.1.3-.3.5-.3.8,0,.2.1.4.2.6.1.1.2.3.1.4-.4.4-.1,1,.1,1.4,0,.3-.1.5-.3.7-.1,0-.1.1,0,.2,0,.1.1.1.2,0,.1,0,.3-.1.4-.2.3-.4.3-.9-.1-1.2-.3-.3,0-.6,0-.9s-.1-.5-.3-.8c-.1-.1-.1-.3,0-.4.1-.3.3-.6.3-.9h0c0-.1-.1-.1-.1-.1h0c0-.2-.2-.4-.1-.6l-.1.1c.3-.2.5-.7.4-1.1-.1-.5-.6-.8-.4-1.4.1.1.1,0,0,0,.1,0,0,0,0,0h0Z"/>
        <path class="st1" d="M35.5,53.9c-.3,0-.3.3-.4.5,0,.2.1.4.2.6,0,0,.1.1,0,.2-.1.2-.3.4-.3.6,0,.3.2.6.4.8h.1l-.1-.1h0c0,.3-.3.5-.4.7-.1.3.1.6.3.9v.1c-.2.2-.3.4-.3.7s.3.5.5.8c0,.3-.1.7-.4.9v.1h.1c.2-.1.5-.2.6-.4.2-.2.3-.6.1-.9-.1-.2-.3-.3-.4-.5v-.2c.1-.2.2-.4.3-.6,0-.3-.2-.4-.3-.6,0-.1-.1-.1,0-.2.2-.3.5-.6.4-1h0c0-.1-.1-.1-.1-.1h0c-.1-.1-.1-.3-.2-.3.2-.3.5-.5.4-.9-.1-.3-.2-.4-.4-.6-.1-.2-.1-.3-.1-.5q.1,0,0,0c.1-.1,0-.1,0,0h0Z"/>
        <path class="st1" d="M24.4,61.8s1.9-.1,3-.3c1.2-.1,3.5,0,5.5-.1,2.2-.1,5.1-.3,5.1-.3,0,0,.2-2.2,0-3.6s-.1-4.4-.1-4.4c0,0,.5,1.8.5,2.9.1,1.1.2,2.6.3,3.3.1.7,0,.7.2,1.4.1.7.1,1.7.1,1.7,0,0-1.3.4-2.2.4-.9-.1-3.1-.2-4.2,0-1,.2-1.8.3-3.2.2-1.4-.1-2.8,0-3,.2s-.8-.5-.8-.5c0,0,2.1-.3,3.3-.2,1.2.1,3.8-.1,4.6-.2s2.1.2,2.8.1c1.6-.1,1.8-.5,1.8-.5,0,0-1.3-.1-2.9,0-1.7.1-3,.2-4.3.2s-3.3,0-4,.1c-.8.1-1.9.2-1.9.2l-.6-.6Z"/>
        <path class="st1" d="M30.3,62.9s.1.6.2,1.1c.2,1.2,1.6,2.2,1.6,2.2l.7.2-.2-.5s-1.2-1.1-1.4-1.8c-.1-.4,0-1.2,0-1.2,0,0-.9,0-.9,0Z"/>
        <path class="st1" d="M36.7,62.6s.1.6.3,1.5c.2.9,1.7,2.1,1.6,1.9.2.3.6.5.6.5h.4l-.2-.5s-1.4-1.2-1.7-1.8c-.6-1.3-.1-1.3-.3-1.7,0-.2-.7.1-.7.1Z"/>
        <path class="st1" d="M20.3,43.2l.1.2s2-.5,3.3-.7,1.8-.2,3.8-.6c2-.4,4.7-.7,4.7-.7,0,0,1,2.1,1.5,3.1.4,1,1.7,3.3,1.7,3.3,0,0-.3-1.7-.6-2.3-.4-.6-1.2-2.1-1.4-2.8-.4-.5-1-2-1-2,0,0-1.5.4-1.6.4s-.1-.1-.1-.1c0,0,0-.8-.1-1.2s-1.6-2.7-1.6-2.7l-.6-.3.2.8s.9,1.3,1.1,1.9c.2.6.2,1.7.2,1.7l-5.7,1s-.4-1.3-1-2.3c-.2-.3-1.3-.8-1.4-1-.1-.2-.3-.4-.3-.4l-.1-.2s-.2.7,0,.9c.4.6,1,.5,1.4,1,.7,1,.8,2,.8,2l-2.9.6-.4.4Z"/>
        <path class="st1" d="M31.9,42.2l.2-.3s-1.2.1-1.7.2c-.5,0-2.4.4-3.4.6-1,.2-2.8.3-3.8.5-1.1.2-3,.8-3,.8,0,0,1.2,2.5,1.6,3.7.4,1.2.6,3.2,1.2,4.4.7,1.3,2,1.5,2,1.5,0,0,1.2-.5,2.6-.6,1.5-.1,2.9-.7,4.2-.8,1.4-.1,2.5-.5,2.5-.5,0,0-.6-.5-1.5-.3s-3.1.8-3.7.9c-.6.1-1.9.2-2.5.4-.4.1-1.4.3-1.4.3,0,0-1.1-.2-1.7-1.8-.6-1.5-.6-2.1-1.3-3.6-.5-1.2-1.4-3.3-1.4-3.3,0,0,1.1-.3,1.9-.4.8-.2.9,0,2.9-.5,2-.4,4-.8,4.9-.9.5-.2,1.4-.3,1.4-.3Z"/>
        <path class="st1" d="M25.3,53.4s-.2,1.2-.1,2c.1,1.7.8,2.8.6,4s-.8,2.3-.8,2.3l-.4-.2s.6-1.6.5-2.5-.5-2.6-.5-3.5.3-2.1.3-2.1h.4Z"/>
        <path class="st1" d="M53.3,26.1c.3-.2.4-.4.4-.8,0-.5-.4-.9-.9-.9s-.9.4-.9.9v.3c-.2-.1-.5-.2-.9,0-.4.1-.7.4-.7,1s.3,1,.9,1c.1,0-.1,0,0,0h0c-.1.2-.4.6-.9.4-.7-.2-.6-.9-.6-.9,0,0-.7.5-1.2.2-.6-.3-.3-.6-.3-.6.7.1,1.3-.7,1.1-1.3-.2-.6-1-.9-1.5-.6,0,0,.1-.7-1-.8-.8-.1-1.3.9-1.1,1.4.1.2.2.3.9,1.5.7,1.2.9,1.9.9,1.9v.5s1,.1,3.3.9c2.3.8,3.9,1.7,3.9,1.7v-.3c0-.2.5-.6,1-1,1.5-1,2.2-1.2,2.9-1.6.5-.3.3-1.2-.2-1.5-1-.5-1.3.1-1.3.1-.3-.5-1.1-.5-1.6-.1s-.5,1.3.2,1.5c0,0,0,.2-.6.4-.6.1-.8-.7-.8-.7,0,0-.4.5-1.4.3-.3-.1-.5-.4-.4-.9.2.3.4.3.7.2.5,0,.9-.4.9-1,0-.5-.3-.9-.8-1M53.6,26.2c-.1,0-.2-.1-.3-.1M47.4,27.3c-.2-.5-1-1.7-1.2-2.1-.1-.3.3-.8.7-.6.4.1.4.9.4.9,0,0,.4-.6,1-.2.4.2.3.6.1.8-.3.3-.9.1-.9.1,0,0-.5.7.6,1.5.8.5,1.2,0,1.2,0,0,0,0,.5.6.7.3.1,1,.5,1.5-.6.1-.3.2-.7.1-.7h-.3c-.3,0-.5-.2-.5-.5s.2-.5.5-.5c.1,0,.3.1.4.1h0s.3.4.7,0c.1-.2,0-.6,0-.6h0v-.1c0-.2.2-.4.4-.4s.4.2.4.4-.1.3-.3.4c-.1.1-.2.2-.2.4-.1.4.6.5.6.5h0c.3,0,.5.2.5.5s-.2.5-.5.5-.5-.4-.7-.3c0,0-1,1.3.3,1.9.8.3,1.3,0,1.3,0,0,0,.3.6,1,.6,1,0,1.5-1,1.5-1,0,0-.7-.1-.7-.5-.1-.3.1-.6.5-.6.7,0,.9.6.9.6,0,0,.2-.4.6-.4.4-.1.7.5.4.7-.3.2-1.6.9-2.2,1.3-.8.5-.9.6-1.2.8-.2.2-.3.4-.4.4l-.4-.2-.7-.3c-.8-.3-.8-.4-.8-.4,0,0-.4-.2-1.3-.5s-1.5-.5-1.5-.5c0,0,.1.1-.7-.2-.8-.3-.7-.2-.7-.2l-.4-.1v-.1c-.1-.1-.3-.8-.6-1.5Z"/>
        <path class="st1" d="M48.6,30.6c.1,0,.6.4.9.7s.5.7.5.7c0,0-.6-.2-1.3,0-.7.2-.9,0-1-.2,0-.3.2-.5.2-.5,0,0-.2.3.2.4.4.1.6,0,.6,0,0,0-.4,0-.4-.3,0-.2.1-.4.3-.4,0,0-.2-.1-.6,0s-.4.4-.4.5c-.1.1-.1,0-.1-.2-.1-.5-.2-1,1.1-.7Z"/>
        <path class="st1" d="M52,23.1c.3,0,.6-.3.6-.6s-.3-.6-.6-.6-.6.3-.6.6c0,.4.3.6.6.6Z"/>
        <path class="st1" d="M47.8,23.5c0-.5.4-.9.9-.9s.9.4.9.9-.4.9-.9.9-.9-.4-.9-.9ZM48.7,23.8c.2,0,.4-.2.4-.4s-.2-.4-.4-.4-.4.2-.4.4c0,.3.2.4.4.4Z"/>
        <path class="st1" d="M49.7,22.8c0-.4.3-.7.8-.7.4,0,.8.3.8.7s-.3.7-.8.7c-.4,0-.8-.3-.8-.7ZM50.5,23.1c.2,0,.3-.1.3-.3s-.1-.3-.3-.3-.3.1-.3.3c0,.2.1.3.3.3Z"/>
        <path class="st1" d="M53.2,19.5s-.1.1-.3.4c-.1.3-.1.7-.1.7,0,0,1.1-.2,1.2.1.1.3-.1.4-.1.4l.7.2s0-.4.1-.5c.1,0,.9.6.9.6,0,0,.2,0,.4-.4.2-.4,0-.6,0-.6,0,0-1.1.2-1.1-.1s.8-1,.8-1c0,0-.2-.3-.6-.4-.5-.1-.6,0-.6,0,0,0,0,1.3-.2,1.3-.3-.1-1.1-.7-1.1-.7Z"/>
        <path class="st1" d="M48.1,24.7s.7-.6,2.1-1.2c1.3-.5,2.1-.5,2.5-.6l.8-.2s.4.7.1.8c-.3.1-.7-.1-1.4,0-.7,0-1.4.4-2.2.7-.8.4-1.2,1-1.2,1l-.7-.5Z"/>
        <path class="st1" d="M54.8,23.9c-.3-.2-.4-.5-.2-.8.2-.3.5-.4.8-.2.3.2.4.5.2.8-.1.3-.5.4-.8.2Z"/>
        <path class="st1" d="M57.2,27.8s-.3-1.3-1.2-2.5c-.8-1.2-1.5-1.6-1.8-1.9-.3-.3-.6-.6-.6-.6,0,0-.7.4-.5.6s.6.3,1.2.7,1,1.1,1.5,1.8.5,1.6.5,1.6l.9.3Z"/>
        <path class="st1" d="M56.9,26.9c-.4-.3-.6-.8-.3-1.2.3-.4.8-.6,1.3-.3.4.3.6.8.3,1.2-.3.4-.8.5-1.3.3ZM57.4,26.5c.2,0,.4-.2.4-.4s-.2-.4-.4-.4-.4.2-.4.4.1.4.4.4Z"/>
        <path class="st1" d="M52.9,22.1c0-.6.4-1,1-1s1,.4,1,1-.4,1-1,1-1-.5-1-1ZM53.9,22.6c.3,0,.5-.2.5-.5s-.2-.5-.5-.5-.5.2-.5.5.2.5.5.5Z"/>
        <path class="st1" d="M55.9,25.1c-.4-.2-.5-.7-.3-1,.2-.4.7-.5,1-.2.4.2.5.7.3,1-.1.3-.6.5-1,.2ZM56.3,24.8c.2,0,.3-.1.3-.3s-.1-.3-.3-.3-.3.1-.3.3.1.3.3.3Z"/>
        <path class="st1" d="M51.5,29.6c.2,0,.3-.2.3-.4s-.2-.3-.4-.3-.4.1-.4.3c0,.1.3.4.5.4Z"/>
      </g>
      <g>
        <path class="st0" d="M.1,112.4c1.4,0,2.4-1,2.4-2.3v-18.4c0-1.8-.9-2.7-2.3-3.1v-.8c1.4,0,2.7.1,4.1.1s2.8-.1,4.2-.1v.8c-1.5.4-2,1.3-2,3.2,0,1.1-.1,3.4-.1,6.7v12.6c.8.1,1.5.2,3.9.2,6.3,0,7.4-1.1,8.3-3.5l1.3.7-1.6,5.1c-1.2-.4-2.3-.6-3.5-.6H2.8c-.9,0-1.9.1-2.8.1v-.7h.1Z"/>
        <path class="st0" d="M23.2,92.9c1,0,2.1.1,3.2.1,1,0,2.1-.1,3.2-.1v.6c-1.3.2-1.6,1-1.6,2.9v8.3c0,3.9,1.8,6.7,6.2,6.7,2.4,0,5.4-1.4,5.4-4.7v-3.4c0-3.4-.3-6.9-.3-8.3,0-.8-.8-1.4-1.5-1.5v-.6c1,0,2.1.1,3.1.1s2.1-.1,3.2-.1v.6c-1,0-1.4,1.2-1.4,2.2,0,1.1-.1,4.1-.1,8v6.4c0,1.6.3,2.5,1.6,2.6v.6c-.8,0-1.7-.1-2.5-.1s-1.6.1-2.4.1c.1-1,.1-1.9.2-2.8-2.1,2-3.9,3.1-6.9,3.1-4.3,0-7.7-2.5-7.7-6.9v-4.9c0-2.3-.1-4.3-.1-6.1,0-1.1-.2-2.1-1.4-2.2v-.6h-.2Z"/>
        <path class="st0" d="M50.5,112.6c1.1-.3,1.8-1.2,1.8-2.8l.1-17.3h1.2l14.3,15.7v-10c0-3.6-.8-4.5-2.2-4.7v-.6c1,0,1.9.1,2.9.1s2-.1,2.9-.1v.6c-1.3.2-1.9,1.3-1.9,3.6l-.1,16.4h-1l-14.5-15.8.1,11.1c0,2.3.7,3.3,2.1,3.7v.6c-1,0-1.9-.1-2.9-.1s-1.9.1-2.9.1v-.5h.1Z"/>
        <path class="st0" d="M77.5,112.6c1.2-.3,1.5-.8,1.5-2.1v-8.5c0-2.6-.3-4.8-.3-6.3,0-1.2-.4-2.1-1.5-2.4v-.5c1.4,0,2.7.1,4.1.1,1.3,0,2.7-.1,4.1-.1,8,0,12.8,3.5,12.8,10.1s-3.8,10.3-12,10.3c-1.5,0-2.9-.1-4.3-.1-1.5,0-2.9.1-4.3.1v-.6h-.1ZM82.1,111.8c1.4.2,2.5.2,3.6.2,5.6,0,8.4-3.4,8.4-9,0-5.3-3.7-9-8.8-9-.9,0-1.8.1-3,.1,0,2.6-.1,4.9-.1,7.3v10.4h-.1Z"/>
        <path class="st0" d="M15.7,130.6c.5-.1.8-.5.8-1.3v-8.1h.6l6.7,7.4v-4.7c0-1.7-.4-2.1-1-2.2v-.3c.5,0,.9.1,1.4.1s.9-.1,1.4-.1v.3c-.6.1-.9.6-.9,1.7v7.7h-.5l-6.8-7.4.1,5.2c0,1.1.3,1.6,1,1.7v.3c-.5,0-.9-.1-1.4-.1s-.9.1-1.3.1v-.3h-.1Z"/>
        <path class="st0" d="M31.4,121.6c-.5.1-.6.4-.6.9,0,1.3-.1,2.9-.1,4.4v2.7c0,.5.2,1,.7,1v.3c-.5,0-.9-.1-1.4-.1s-.9.1-1.4.1v-.3c.4,0,.7-.4.7-1v-2c0-1.6-.1-4.1-.1-4.9,0-.6-.1-1-.6-1.1v-.3c.5,0,.9.1,1.4.1s.9-.1,1.4-.1c0,0,0,.3,0,.3Z"/>
        <path class="st0" d="M38.3,131l-3.8-8.3c-.2-.3-.5-.9-1-1.1v-.3c.5,0,1,.1,1.6.1.5,0,1-.1,1.5-.1v.3c-.3.1-.5.2-.5.5,0,.1,0,.4.2.8l2.5,6,2.1-5.6c.2-.4.2-.7.2-.9,0-.5-.2-.8-.7-.8v-.3c.5,0,.9.1,1.4.1s.9-.1,1.4-.1v.3c-.6.1-.9.5-1.2,1.2l-3.2,8.2h-.5Z"/>
        <path class="st0" d="M45.2,130.5c.5-.1.8-.4.8-.8v-2.3c0-1.9-.1-3.8-.1-5,0-.3-.3-.6-.7-.7v-.3h5.4c.4,0,.8-.1,1.1-.2,0,.4-.1.7-.1,1s.1.7.1,1h-.5c-.2-.7-.6-1.2-1.3-1.2h-2.5v3.6h2.1c.8,0,1.1-.1,1.4-.7h.4c0,.4-.1.8-.1,1.2s.1.8.1,1.2h-.5c-.3-.9-.6-1-1.4-1h-2v3.8h2.3c1,0,1.4-.2,2-1l.4.2-.5,1.7c-.4-.2-.8-.2-1.3-.2h-5.2v-.3h.1Z"/>
        <path class="st0" d="M55.1,130.6c.5-.1.7-.3.7-.8v-3.6c0-1.2-.1-2.4-.1-3.5,0-.6-.1-1-.8-1.1v-.3c.4,0,.9.1,1.3.1s.8-.1,1.8-.1c2.5,0,3.7,1.2,3.7,2.7,0,1.4-1.3,2.3-2.5,2.6l2.8,3.2c.2.2.7.7,1,.8v.3c-.5,0-.9-.1-1.4-.1s-.9.1-1.4.1v-.3c.1,0,.1-.1.2-.2,0-.1,0-.2-.2-.4l-2.3-2.7c-.2-.2-.5-.6-.8-.6v2.7c0,.6.1,1,.8,1.1v.3c-.5,0-1-.1-1.5-.1s-1,.1-1.5.1v-.2h.2ZM57.3,126.3h.5c1.3,0,2.3-.8,2.3-2.2,0-1.3-.6-2.4-2.1-2.4-.4,0-.7,0-.7.4v4.2Z"/>
        <path class="st0" d="M65.2,129h.5c.4,1,1.2,1.5,2.2,1.5.9,0,1.8-.8,1.8-1.7,0-2.9-4.7-1.1-4.7-4.8,0-1.8,1.5-2.8,3.2-2.8.9,0,2,.3,2.4.6l.1,1.5h-.5c-.2-.9-1.2-1.5-2.1-1.5-1,0-1.8.7-1.8,1.7,0,2.4,4.7,1,4.7,4.6,0,1.8-1.5,3-3.2,3-.9,0-1.8-.1-2.7-.5v-1.6h.1Z"/>
        <path class="st0" d="M77.1,121.6c-.5.1-.6.4-.6.9,0,1.3-.1,2.9-.1,4.4v2.7c0,.5.2,1,.7,1v.3c-.5,0-.9-.1-1.4-.1s-.9.1-1.4.1v-.3c.4,0,.7-.4.7-1v-2c0-1.6-.1-4.1-.1-4.9,0-.6-.1-1-.6-1.1v-.3c.5,0,.9.1,1.4.1s.9-.1,1.4-.1v.3Z"/>
        <path class="st0" d="M88,123.1h-.6c-.1-.8-.5-1.1-1.3-1.1h-1.7c0,1.2-.1,2.7-.1,4.3v2.9c0,.8.3,1.1.9,1.3v.3c-.5,0-1.1-.1-1.6-.1s-1,.1-1.6.1v-.3c.6-.2.8-.5.8-1.3v-2.2c0-2-.1-3.9-.1-5.1h-1.8c-.8,0-1.2.2-1.3,1.1h-.5v-1.9c.5.1,1.1.2,1.6.2h6.1c.4,0,1-.1,1.3-.2v2h-.1Z"/>
        <path class="st0" d="M91.7,130.6c.7-.1.8-.4.8-1.1v-2.6l-2.6-4.3c-.3-.4-.4-.7-.8-1v-.3c.5,0,.9.1,1.4.1s.9-.1,1.4-.1v.3c-.3.1-.4.2-.4.5,0,.1.1.5.3.9l1.7,3.1,1.7-2.9c.3-.5.3-.8.3-1,0-.3-.3-.4-.6-.4v-.3c.4,0,.8.1,1.2.1s.8-.1,1.2-.1v.3c-.5.2-.7.5-1.1,1.1l-2.4,3.9v2.8c0,.7.2,1,.8,1.1v.3c-.5,0-1-.1-1.5-.1s-1,.1-1.6.1v-.4h.2Z"/>
        <path class="st0" d="M.2,118.9c.6,0,1.2.1,1.9.1.6,0,1-.1,1.6-.1v.4c-.8.1-1,.6-1,1.7v4.9c0,2.3,1.1,3.9,3.6,3.9,1.4,0,3.2-.8,3.2-2.7v-2c0-2-.2-4-.2-4.9,0-.5-.5-.8-.9-.9v-.4c.6,0,1.1.1,1.8.1.6,0,1.1-.1,1.7-.1v.4c-.6,0-.8.7-.8,1.3,0,.7-.1,2.4-.1,4.7v3.7c0,1,.2,1.5.9,1.5v.4c-.5,0-1-.1-1.5-.1s-.7.1-1.2.1c0-.6.1-1.1.1-1.6-1.3,1.2-2.2,1.8-4,1.8-2.1,0-4.4-1.5-4.4-4v-2.9c0-1.3-.1-2.5-.1-3.6,0-.7-.1-1.2-.8-1.3v-.4h.2Z"/>
      </g>
    </g>
  </g>
  <g>
    <rect class="st1" x="-28.6" y="-8.8" width="2" height="152"/>
    <g>
      <g>
        <path class="st1" d="M41.9,66.7v3.3c0,.2.8.5.8.5h-2.4s.7-.3.7-.4v-2.9l-.7.1v-.1l1.6-.5Z"/>
        <path class="st1" d="M57.2,66.8c-1.1.2-1.6.9-1.8,1.6.3-.1.5-.2.8-.2.8,0,1.3.5,1.3,1.1,0,.7-.6,1.2-1.5,1.2-1,0-1.7-.6-1.7-1.5.1-1.1,1.2-2.3,2.9-2.2h0ZM56,68.5c-.3,0-.5.1-.6.2v.6c0,.4.1,1.1.6,1.1.6,0,.6-.5.6-1,0-.4,0-.9-.6-.9Z"/>
        <path class="st1" d="M52.2,66.8c-1.1.2-1.6.9-1.8,1.6.3-.1.5-.2.8-.2.8,0,1.3.5,1.3,1.1,0,.7-.6,1.2-1.5,1.2-1,0-1.7-.6-1.7-1.5.1-1.1,1.2-2.3,2.9-2.2h0ZM51,68.5c-.3,0-.5.1-.6.2v.6c0,.4.1,1.1.6,1.1.6,0,.6-.5.6-1-.1-.4-.1-.9-.6-.9Z"/>
        <path class="st1" d="M47.2,66.8c-1.1.2-1.6.9-1.8,1.6.3-.1.5-.2.8-.2.8,0,1.3.5,1.3,1.1,0,.7-.6,1.2-1.5,1.2-1,0-1.7-.6-1.7-1.5,0-1.1,1.1-2.3,2.9-2.2h0ZM45.9,68.5c-.3,0-.5.1-.6.2v.6c0,.4.1,1.1.6,1.1.6,0,.6-.5.6-1,0-.4,0-.9-.6-.9Z"/>
        <path class="st1" d="M14.2,34.8c.4.1.9.4,1.2.6-.1.1-.1.2-.1.4-.1.3,0,.7-.1,1.2-.2,1.4-1.4,2.3-2.6,2.1-1.3-.2-2.1-1.5-1.8-3,.1-.7.5-1.1.5-1.3v-.3l1.2.1s-1.2.8-1.3,1.5c-.2,1,.5,1.8,1.6,2s2.1-.4,2.2-1.4c0-.6-.8-1.9-.8-1.9Z"/>
        <path class="st1" d="M25.5,16.8l-2.6,2.7s.2-.8-.1-1l-2-1.9c-.3-.3-1,0-1,0l1.6-1.7s-.2.8,0,1l2.1,2c.2.2.3.2.5,0l.6-.6c.3-.3.3-1.6.3-1.6l.6,1.1Z"/>
        <path class="st1" d="M23.4,12.9l1.7-1.4s-.2.7,0,1l1.7,2.2c.2.3,1,.2,1,.2l-1.7,1.4s.2-.7,0-1l-1.7-2.2c-.2-.3-1-.2-1-.2Z"/>
        <path class="st1" d="M29.2,12.9c.2.4,1,.4,1,.4l-1.4.9s.3-.7.1-.9l-1.7-2.7c-.2,0-.7-.1-.7-.1l1.2-.8,4,1-1.1-1.8c-.3-.4-1.1-.4-1.1-.4l1.5-.9s-.4.6-.2.9l2,3.2-.3.2-4.7-1.2,1.4,2.2Z"/>
        <path class="st1" d="M54.6,7s.7,1.2,1.2,1.3.9-.1.9-.5c.2-1-2-1.4-1.7-2.8.1-.7.8-1,1.6-.8.5.1.9.4,1,.4h.3l-.1,1.1s-.7-1.1-1.2-1.2c-.4-.1-.7.1-.8.3-.1.6,1,1,1.6,1.9.2.3.3.7.2,1-.2.7-.9,1.1-1.7,1-.5-.1-1-.4-1.1-.5q-.1,0-.2.1h-.2l.2-1.3Z"/>
        <path class="st1" d="M60.2,5.2l2.1.7s-.8.2-.9.5l-.9,2.6c-.1.3.4.9.4.9l-2.1-.7s.7-.2.8-.5l.9-2.6c.2-.3-.3-.9-.3-.9Z"/>
        <path class="st1" d="M66.6,11.2l-.5.9c-.6,0-1.3-.2-1.8-.4-1.6-.8-1.9-2.1-1.3-3.3.6-1.1,1.9-1.5,3.3-.8.6.3,1,.8,1.2.9h.2l.2.1-.6,1.1-.2-.1c.2-.7-.1-1.3-.8-1.7-.9-.4-1.8-.1-2.4,1-.5,1-.3,2.1.6,2.5.2.1.5.2.7.2l.4-.9c.2-.3-.4-1-.4-1l2.1,1c.1.1-.6.2-.7.5Z"/>
        <path class="st1" d="M69.8,9.8l1.8,1.3s-.8,0-1,.3l-1.6,2.3c-.2.3.1,1,.1,1l-1.8-1.3s.8,0,.9-.3l1.6-2.3c.3-.3,0-1,0-1Z"/>
        <path class="st1" d="M76.3,21.9l-2.4-2.9s.8.3,1,.1l2.2-1.8c.3-.3.2-1,.2-1l1.5,1.8s-.8-.3-1-.1l-2.2,1.8c-.2.2-.2.3,0,.5l.6.7c.3.4,1.5.5,1.5.5l-1.4.4Z"/>
        <path class="st1" d="M73.2,18.2l-2.8-2.5s.8.2,1-.1l1.9-2.1c.3-.3,0-1,0-1l1.7,1.6s-.8-.2-1,.1l-1.9,2.1c-.2.2-.2.3,0,.5l.7.6c.3.3,1.6.3,1.6.3l-1.2.5Z"/>
        <path class="st1" d="M80,21.1c.3-.5.3-1.1.3-1.1l1.2,2.1s-.8-.4-1.1-.1l-1.4,2,2.6-.2c.3,0,.3-.9.3-.9l.9,1.5s-.7-.3-1.3-.2l-4.1.3,2.6-3.4Z"/>
        <path class="st1" d="M83,26.7h0l-2.4.7c-.4.1-.7.9-.7.9l-.5-1.5s.6.4,1.2.2l2.4-.7c.3-.1.6-.7.6-.7l.5,1.4-2.3,2.3,3.2.2.5,1.4s-.5-.4-.9-.2l-2.4,1c-.5.2-.7.9-.7.9l-.7-2.1s.5.5.9.4c.1,0,.2-.1.3-.1l2.3-1h0l-3.9-.3-.1-.2,2.7-2.6Z"/>
        <path class="st1" d="M83.4,42.3c-.4,0-.9.7-.9.7l.1-1.7s.4.6.7.6l3.2.1c.1-.1.4-.5.4-.5l-.1,1.4-3.1,2.7,2.1.1c.5,0,.9-.7.9-.7l-.1,1.8s-.3-.7-.6-.7l-3.7-.2v-.4l3.6-3.2h-2.5Z"/>
        <path class="st1" d="M86.4,48.2l-.4,2.2s-.3-.7-.7-.8l-2.7-.5c-.3-.1-.9.5-.9.5l.4-2.2s.3.7.6.7l2.7.5c.5.1,1-.4,1-.4Z"/>
        <path class="st1" d="M81.9,60l.7-1.4-1.4-.7-.5,1c-.2.3.1.9.1.9l-1.2-.6s.6-.1.9-.6l.5-.9-1.1-.6q-.3-.1-.4.1l-.5,1c-.2.4.1,1.3.1,1.3l-.9-.6,1.9-3.7s0,.9.3,1.1l2.5,1.3c.3.2,1-.2,1-.2l-1.8,3.4-.9-.4c-.2,0,.6-.1.7-.4Z"/>
        <path class="st1" d="M74.7,65.5s-1.4-.1-1.8.3c-.3.3-.4.8-.1,1.1.7.7,2.3-.9,3.3.1.5.5.4,1.2-.2,1.8-.4.4-.8.6-.9.6l-.2.3-.9-.7s1.3,0,1.7-.4c.3-.3.3-.6.1-.8-.5-.5-1.4.3-2.5.3-.4,0-.7-.1-.9-.4-.5-.5-.5-1.4.1-2,.4-.4.9-.6,1-.7,0,0,.1-.1,0-.2l.1-.1,1.2.8Z"/>
        <path class="st1" d="M73.3,71.1l-1.7,1.4s.2-.7,0-1l-1.7-2.2c-.2-.3-1-.2-1-.2l1.7-1.4s-.2.7,0,1l1.7,2.2c.2.2,1,.2,1,.2Z"/>
        <path class="st1" d="M54.2,79.7l-2.2.2s.6-.5.6-.9l-.3-2.8c0-.3-.7-.7-.7-.7l2.2-.2s-.6.5-.5.8l.3,2.8c-.1.4.6.8.6.8Z"/>
        <path class="st1" d="M49.8,76.9s-.9-1.1-1.5-1.1c-.5,0-.8.3-.8.7,0,1,2.2,1,2.2,2.4,0,.7-.6,1.1-1.4,1.1-.5,0-1-.2-1.1-.2l-.3.1-.1-1.1s.9.9,1.4,1c.4,0,.7-.2.7-.5,0-.6-1.1-.8-1.9-1.6-.3-.3-.4-.6-.4-.9,0-.7.7-1.3,1.5-1.3.6,0,1.1.2,1.2.2s.3-.1.3-.1l.2,1.3Z"/>
        <path class="st1" d="M37.6,75.3l.3-1c.5-.1,1.3-.1,1.9.1,1.7.5,2.3,1.6,1.9,2.9-.3,1.2-1.6,1.9-3,1.5-.7-.2-1.2-.6-1.4-.6h-.4l.3-1.2s.7,1.4,1.4,1.5c1,.3,1.8-.3,2.1-1.4.3-1.1-.2-2.1-1.1-2.4-.3-.1-.6-.1-.8,0l-.3.9c-.1.6.6.9.6.9l-2.2-.6c.1,0,.6-.3.7-.6Z"/>
        <path class="st1" d="M23.9,66.1l-.9.9,1.7,1.6.9-.9c.3-.3.1-1,.1-1l1.6,1.5s-.8-.1-1,.1l-1.9,2c-.2.3-.1,1-.1,1l-1.6-1.5s.7.2,1-.1l.8-.8-1.7-1.6-.7.8c-.3.3-.1,1-.1,1l-1.6-1.5s.7.2,1-.1l1.9-2c.3-.3.1-1,.1-1l1.6,1.5c-.1,0-.9-.1-1.1.1Z"/>
        <path class="st1" d="M11.9,48.8h0l2.5-.2c.5,0,.9-.7.9-.7l.2,1.5s-.5-.5-1.1-.5l-2.6.3c-.4,0-.7.6-.7.6l-.2-1.5,2.7-1.7-3.1-.9-.1-1.5s.4.5.9.4l2.5-.5c.6-.1.9-.7.9-.7l.3,2.2s-.4-.6-.8-.6c-.1,0-.2,0-.3.1l-2.5.4h0l3.7,1.1v.2l-3.2,2Z"/>
        <path class="st1" d="M85.8,36.3c.5-.3.8-.8.8-.8l.2,2.4s-.5-.8-.9-.5l-1.9,1.1,2.3,1c.2.1.6-.7.6-.7l.2,1.8s-.5-.6-1.1-.8l-3.6-1.6,3.4-1.9Z"/>
        <path class="st1" d="M84.7,52.1c.5-.1,1-.5,1-.5l-.7,2.3s-.2-.9-.7-.8l-2.2.3,1.7,1.8c.2.2.8-.4.8-.4l-.5,1.7s-.3-.7-.7-1.1l-2.7-2.8,4-.5Z"/>
        <path class="st1" d="M13.5,54.8c-.4.4-.6,1-.6,1l-.8-2.3s.7.6,1,.3l1.6-1.5-2.5-.5c-.3,0-.4.8-.4.8l-.6-1.7s.6.4,1.2.5l3.9.7-2.8,2.7Z"/>
        <path class="st1" d="M28.9,70.2c.2-.3-.2-1.1-.2-1.1l2.1,1.4s-.9-.1-1.1.2l-1.9,2.8.7.5c.4.3,1.3-.1,1.3-.1l-.7.9-3.7-2.5.5-1s-.1,1,.4,1.3l.7.5,1.9-2.9Z"/>
        <path class="st1" d="M56.4,75.6c-.1-.4-.9-.6-.9-.6l2.4-.6s-.7.6-.6,1l.8,3.2.8-.2c.5-.1.8-1,.8-1l.2,1.1-4.3,1-.4-1.1s.7.7,1.2.6l.8-.2-.8-3.2Z"/>
        <path class="st1" d="M66,71.8c-.2-.3-1.1-.3-1.1-.3l2.2-1.3s-.5.8-.3,1.1l1.7,2.9.7-.4c.5-.3.5-1.2.5-1.2l.5,1-3.8,2.3-.7-.9s.8.5,1.3.2l.7-.4-1.7-3Z"/>
        <path class="st1" d="M83.4,34.2c0-.4.3-.7.7-.7s.7.3.7.7-.3.7-.7.7-.7-.3-.7-.7Z"/>
        <path class="st1" d="M43.4,77.4c0-.4.3-.7.7-.7s.7.3.7.7-.3.7-.7.7c-.4,0-.7-.4-.7-.7Z"/>
        <path class="st1" d="M11.9,41.6c0-.4.3-.7.7-.7s.7.3.7.7-.3.7-.7.7c-.3,0-.7-.4-.7-.7Z"/>
        <path class="st1" d="M18.1,22c-.9-.6-1.1-1.5-.5-2.2.6-.9,1.8-.7,2.7,0,.8.6,1.2,1.4.6,2.2-.6.7-1.7.7-2.8,0ZM17.8,23c.9.7,2.3.5,3.3-.8s.6-2.8-.4-3.5c-1.1-.8-2.4-.5-3.3.7-.9,1.3-.8,2.8.4,3.6Z"/>
        <path class="st1" d="M35.9,8.5l-1.4.4.1-2,1.3,1.6ZM36.8,8l1.2-.5c.5-.2,1.2,0,1.2,0l-1-1.1s-.1.6-.4.7l-1.3.5-1.1-1.3,1.9-.6c.3-.1,1.1.2,1.1.2l-.8-.8-4,1.4s.5.1.4.8l-.1,3c-.1.5-.4,1.1-.4,1.1l1.5-.6s-.7-.3-.6-.6l.1-.9,1.7-.5.9,1.1,3.7-1.4-.8-.8s.3.6-.2.8l-1.9.7-1.1-1.2Z"/>
        <path class="st1" d="M17.2,27.3c.3.2,1-.4,1-.4l-1,2.2s0-.8-.4-1l-2.5-1.2c-.3-.1-1,.3-1,.3.1-.3.2-.6.3-.8.1-.4.3-.8.4-1.1.4-.9.8-1.4,1.3-1.5.3-.1.6-.1.9,0,.5.2.7.7.6,1.4.5-.3,1.1-.2,1.8-.5.4-.1,1-.5,1-.5-.1.1-.1.2-.2.4-.4.8-.6,1.1-1.1,1.2-.5.2-1.3.2-1.8.5l-.2.5.9.5ZM16,26.7l.1-.2c.4-.8.3-1.3-.3-1.6-.7-.3-1.2.1-1.4.7l-.2.3,1.8.8Z"/>
        <path class="st1" d="M14.6,32.7l.6.5c.3.2.9-.4.9-.4l-.5,1.8s-.2-.7-.5-1l-3.3-2.8h0l4.4-.7c.4-.1,1-.5,1-.5l-.7,2.2s-.2-.8-.5-.8l-.8.1-.6,1.6ZM13.2,31.5l1.2,1,.4-1.2-1.6.2Z"/>
        <path class="st1" d="M17.9,57.8c.3-.2.3-1,.3-1l1.1,2.2s-.7-.5-1-.3l-2.4,1.3c-.3.2-.4,1-.4,1-.2-.3-.3-.5-.5-.8s-.5-.8-.6-1c-.5-.9-.6-1.5-.5-1.9.1-.3.3-.5.5-.7.5-.2,1-.1,1.5.4.1-.6.5-1.1.7-1.7.1-.4.2-1.1.2-1.1.1.1.1.2.2.4.4.8.5,1.1.3,1.6-.1.5-.6,1.2-.7,1.7l.3.5,1-.6ZM16.7,58.4l-.1-.2c-.4-.7-.9-1.1-1.5-.7-.7.3-.6,1-.3,1.6l.2.3,1.7-1Z"/>
        <path class="st1" d="M17.6,64.3c-.9-1.2-.7-2.5.3-3.3,1-.7,2.5-.6,3.5.7,1,1.3.7,2.7-.3,3.4-1.1.8-2.6.5-3.5-.8ZM21,61.7c-.6-.8-1.5-.6-2.3-.1-.9.7-1.4,1.7-.8,2.6.5.7,1.4.8,2.3.1,1-.7,1.4-1.8.8-2.6Z"/>
        <path class="st1" d="M32.5,76.6c-1.3-.6-1.9-1.9-1.3-3.1.5-1.1,1.9-1.7,3.4-1,1.5.7,1.9,2,1.4,3.1-.7,1.2-2.1,1.6-3.5,1ZM34.3,72.7c-.9-.4-1.6.2-2.1,1-.5,1-.4,2.2.6,2.7.8.4,1.6,0,2.1-1,.5-1.2.3-2.3-.6-2.7Z"/>
        <path class="st1" d="M77,61.8c-.3-.2-1.1.1-1.1.1l1.5-2s-.1.8.2,1l2.2,1.7c.3.2,1.1-.1,1.1-.1-.2.3-.3.5-.5.8s-.5.7-.6.9c-.6.8-1.1,1.2-1.5,1.3-.3,0-.6,0-.8-.2-.4-.3-.5-.9-.3-1.5-.6.1-1.2,0-1.9.1-.4.1-1.1.3-1.1.3.1-.1.1-.2.3-.4.5-.7.8-.9,1.3-1s1.3,0,1.9-.1l.3-.4-1-.5ZM78.1,62.7l-.2.2c-.5.7-.6,1.2,0,1.7.6.4,1.1.2,1.5-.4l.2-.3-1.5-1.2Z"/>
        <path class="st1" d="M63,74v-.8c0-.3-.9-.4-.9-.4l1.8-.7s-.5.6-.5,1l-.2,4.4h0l-3.2-3c-.3-.3-1-.5-1-.5l2.2-.9s-.6.7-.3.9l.6.5,1.5-.5ZM62.9,75.9v-1.5l-1.2.5,1.2,1Z"/>
        <path class="st1" d="M49.1,13.5c-.2-.5-.7-.9-.7-.9l2.3.2s-.8.4-.6.8l.8,2,1.4-2c.1-.2-.5-.7-.5-.7l1.7.1s-.6.4-.9.9l-2.1,3.2-1.4-3.6Z"/>
        <path class="st1" d="M29.9,20.6c-.5-.2-1.1-.2-1.1-.2l1.8-1.5s-.3.8.1,1l1.9,1-.4-2.4c-.1-.2-.9-.1-.9-.1l1.4-1.1s-.2.7,0,1.3l.6,3.8-3.4-1.8Z"/>
        <path class="st1" d="M66.1,19.3c.2-.5,0-1.1,0-1.1l1.7,1.6s-.9-.2-1,.2l-.7,2.2,2.3-.9c.2-.1,0-.9,0-.9l1.3,1.2s-.7-.1-1.3.2l-3.6,1.2,1.3-3.7Z"/>
        <path class="st1" d="M37.3,18.9c.1.3,1,.4,1,.4l-2.2,1s.5-.7.4-1l-1.4-3-.7.3c-.5.2-.6,1.2-.6,1.2l-.4-1,3.9-1.8.6.9s-.8-.5-1.3-.3l-.7.3,1.4,3Z"/>
        <path class="st1" d="M55,14.2h0l-.9,2.3c-.2.4.3,1.1.3,1.1l-1.4-.4s.6-.2.8-.8l.9-2.3c.1-.3-.2-.9-.2-.9l1.4.4.4,3.1,2-2.4,1.4.4s-.6.1-.7.6l-.6,2.5c-.1.6.3,1.1.3,1.1l-2-.6s.7-.1.8-.5c0-.1.1-.2.1-.3l.5-2.3h0l-2.4,2.8h-.2l-.5-3.8Z"/>
        <path class="st1" d="M71.7,24.5l-.9-1.2-1.2.9.7.9c.2.3.9.3.9.3l-1.1.8s.2-.6-.2-1l-.6-.8-1,.8c-.2.2-.2.3-.1.4l.7.9c.3.3,1.2.4,1.2.4l-.9.6-2.5-3.2s.8.4,1.1.2l2.1-1.7c.3-.2.2-1,.2-1l2.3,2.9-.7.7c0,.1.2-.6,0-.9Z"/>
        <path class="st1" d="M45.2,16.4c0,.3.8.7.8.7l-2.4.2s.7-.4.6-.8l-.3-2.7c0-.3-.8-.7-.8-.7.3-.1.6-.1.9-.1.4-.1.9-.1,1.1-.2,1-.1,1.5,0,1.9.3.2.2.4.4.4.7.1.5-.3,1-.9,1.2.5.3.8.8,1.3,1.3.3.2,1,.6,1,.6-.1,0-.2,0-.4.1-.8.1-1.2,0-1.5-.3-.4-.3-.8-1-1.3-1.3l-.5.1.1.9ZM45.1,15.1h.3c.8-.1,1.3-.4,1.2-1.1-.1-.7-.6-.9-1.3-.8h-.4l.2,1.9Z"/>
        <path class="st1" d="M23.6,26.8c.2-.3.4-.7.6-.9.2-.3.3-.5.5-.8.8-1.1,1.3-1.5,2-1.7.5-.1,1,0,1.5.4s.8.9.9,1.4c.1.5,0,1.1-.8,2.3l-1.3,1.7s.1-.7-.2-.9l-2.1-1.5c-.4-.3-1.1,0-1.1,0ZM27.3,27.5c.4.3.5.2.8-.2.9-1.2.3-2.2-.4-2.6-.5-.3-1-.5-1.4-.4-.5.1-.9.4-1.3.9-.1.1-.2.3-.3.5l2.6,1.8Z"/>
        <path class="st1" d="M24.1,32.6l.5.5c.2.2.9-.3.9-.3l-.7,1.7s-.1-.7-.4-1l-3-3.1h0l4.3-.2c.4,0,1-.4,1-.4l-.9,2.1s-.1-.8-.4-.8h-.8l-.5,1.5ZM22.8,31.3l1.1,1.1.5-1.2-1.6.1Z"/>
        <g>
          <path class="st1" d="M63.4,16.4c1.2.7,1.7,1.9,1.1,3.1-.6,1.1-1.9,1.6-3.3.8-1.4-.7-1.7-2.1-1.1-3.1.6-1.2,2-1.5,3.3-.8ZM61.5,20c.8.5,1.6-.1,2.1-.9.5-1,.5-2.1-.4-2.6-.8-.4-1.6-.1-2.1.8-.6,1.2-.5,2.3.4,2.7Z"/>
          <path class="st1" d="M63.6,23.4c-1.4-1.2-.9-1-1.3-2.2s-.1-3-.4-3.2.6-.3.9,2.4c.3,2.6.8,3,.8,3Z"/>
        </g>
        <path class="st1" d="M28.1,76.8c-12-7.1-20.1-20.2-20.1-35.1C8,19.2,26.3,1,48.7,1s40.7,18.3,40.7,40.7-18.3,40.7-40.7,40.7c-7.4,0-14.4-2-20.4-5.5l-.7-.4-.5.7.7.4c6.1,3.6,13.3,5.6,20.9,5.6,23,0,41.6-18.7,41.6-41.6S71.6,0,48.7,0,7.1,18.7,7.1,41.6c0,15.3,8.2,28.6,20.5,35.9l.5.3.4-.7-.4-.3Z"/>
        <path class="st1" d="M32.4,68.2c-8.8-5.5-14.8-15.3-14.8-26.5,0-14.4,9.9-26.6,23.3-30.1l.2-.7c-13.9,3.4-24.2,15.9-24.2,30.8,0,11.4,6,21.4,15.1,27l.5.3.3-.5-.4-.3Z"/>
        <path class="st1" d="M32.4,68.9c4.8,2.9,10.4,4.5,16.4,4.5,17.5,0,31.7-14.2,31.7-31.7s-14.2-31.7-31.7-31.7c-2,0-4,.2-5.9.6l-.2.6c2-.4,4-.6,6-.6,17.1,0,31.1,14,31.1,31.1s-14,31-31.1,31c-5.9,0-11.4-1.6-16.1-4.5l-.5-.3-.5.4.8.6Z"/>
        <g>
          <path class="st1" d="M48.4,7.6c-.3,0-.6-.1-.8-.2-.3-.1-.5-.3-.6-.6"/>
          <path class="st1" d="M48.9,5.1l1.1-1c.2.2.4.4.5.7s.2.5.2.8l-1.5.1,1.3.7c-.1.3-.3.5-.5.7-.2.2-.5.3-.7.4l-.6-1.4-.3,1.5c-.3,0-.6-.1-.8-.2-.3-.1-.5-.3-.6-.6l1.1-1-1.4.2c-.1-.3-.1-.6,0-.9.1-.3.2-.5.3-.7l1.2.7-.7-1.2c.2-.2.5-.3.8-.3s.6,0,.8.1l-.2,1.4Z"/>
        </g>
        <g>
          <g>
            <path class="st1" d="M64,33.1c-.3,0-.6-.2-.8-.6-.1-.3.2-.6.2-.6h.2c.2,0,.2-.1.2-.3s-.2-.3-.3-.3c-.2,0-.4.1-.6,0-.1,0-.1-.2,0-.3,0-.1.1-.2.1-.3s-.2-.2-.3-.2-.3.1-.2.2c0,.2.1.2.2.3s.1.2,0,.3l-.4.2h-.1c-.2,0-.3.1-.3.3s.1.3.3.3c.1,0,.2-.1.3-.2,0,0,.3.2.2.5,0,.3-.1.5-.6.7-.4.1-.7-.1-.7-.1,0,0-.1.4-.5.3-.6-.1-.7-.8-.7-.8,0,0,.2,0,.4-.3.1-.3-.1-.4-.4-.5-.2,0-.4.2-.6.1-.2-.1.1-.6-.2-.7-.3-.2-.5.2-.5.2,0,0,.4.5,1,1.3.5.7,1.1,1.5,1.1,1.5l-.3.2s-.4-.7-1.2-1.6c-.6-.8-1.1-1.3-1.1-1.3,0,0,0-.1.1-.2.2-.2.5-.5.9-.3s.2.8.2.8c0,0,.2-.2.6-.2.4.1.7.4.7.7-.1.5-.4.6-.4.6,0,0,0,.2.3.1.2,0,.4-.3.4-.3,0,0,.5.5.8.1,0,0,0-.1.1-.1h-.1c-.4,0-.7-.3-.7-.7s.3-.7.6-.7h.2c-.1-.1-.3-.2-.3-.5s.3-.6.6-.6.7.3.7.6c0,.2-.1.3-.2.4h0c.1-.1.2-.1.4-.1.4,0,.7.3.7.7s-.3.7-.6.7h-.1c.1.1.3.2.4.2.4.1.5-.3.5-.3,0,0,.2.2.4.1.3-.1.3-.3.3-.3,0,0-.3,0-.6-.3-.2-.3-.2-.6.2-.8.3-.2.7-.1.7-.1,0,0-.4-.4-.1-.8.3-.3.7-.2,1-.1l.4.2s-.3.5-.5,1.5c-.3,1.3-.5,2-.5,2l-.3-.1s.2-1.1.4-1.9c.2-.9.4-1.2.4-1.2,0,0-.3-.3-.5,0s.3.5.1.7c-.2.2-.5,0-.6.1q-.2.2-.1.4c.1.2.4.1.4.1,0,0,.2.7-.3,1-.3.2-.6-.1-.6-.1,0,0,.2.4-.4.4Z"/>
            <path class="st1" d="M60.9,34.4c0-.4,1-.8,2.4-.9,1.4-.2,2.5,0,2.5.4s-1,.8-2.4.9c-1.3.1-2.4-.1-2.5-.4ZM63.2,34.4c.8-.1,1.4-.2,1.3-.5,0-.1-.7-.2-1.5-.1-.8.1-1.5.3-1.5.4.1.2.9.3,1.7.2Z"/>
          </g>
          <g>
            <path class="st1" d="M72.5,31.9c-.3,0-.6-.2-.8-.6-.1-.3.2-.6.2-.6h.2c.2,0,.2-.1.2-.3s-.2-.3-.3-.3c-.2,0-.4.1-.6,0-.1,0-.1-.2,0-.3,0-.1.1-.2.1-.3s-.2-.2-.3-.2-.3.1-.2.2c0,.2.1.2.2.3s.1.2,0,.3l-.4.2h-.1c-.2,0-.3.1-.3.3s.1.3.3.3c.1,0,.2-.1.3-.2,0,0,.3.2.2.5,0,.3-.1.5-.6.7-.4.1-.7-.1-.7-.1,0,0-.1.4-.5.3-.6-.1-.7-.8-.7-.8,0,0,.2,0,.4-.3.1-.3-.1-.4-.4-.5-.2,0-.4.2-.6.1-.2-.1.1-.6-.2-.7-.3-.2-.5.2-.5.2,0,0,.4.5,1,1.3.5.7,1.1,1.5,1.1,1.5l-.3.2s-.4-.7-1.2-1.6c-.6-.8-1.1-1.3-1.1-1.3,0,0,0-.1.1-.2.2-.2.5-.5.9-.3s.2.8.2.8c0,0,.2-.2.6-.2.4.1.7.4.7.7-.1.5-.4.6-.4.6,0,0,0,.2.3.1.2,0,.4-.3.4-.3,0,0,.5.5.8.1,0,0,0-.1.1-.1h-.1c-.4,0-.7-.3-.7-.7s.3-.7.6-.7h.2c-.1-.1-.3-.2-.3-.5s.3-.6.6-.6.7.3.7.6c0,.2-.1.3-.2.4h0c.1-.1.2-.1.4-.1.4,0,.7.3.7.7s-.3.7-.6.7h-.1c.1.1.3.2.4.2.4.1.5-.3.5-.3,0,0,.2.2.4.1.3-.1.3-.3.3-.3,0,0-.3,0-.6-.3-.2-.3-.2-.6.2-.8.3-.2.7-.1.7-.1,0,0-.4-.4-.1-.8.3-.3.7-.2,1-.1l.4.2s-.3.5-.5,1.5c-.3,1.3-.5,2-.5,2l-.3-.1s.2-1.1.4-1.9c.2-.9.4-1.2.4-1.2,0,0-.3-.3-.5,0s.3.5.1.7c-.2.2-.5,0-.6.1q-.2.2-.1.4c.1.2.4.1.4.1,0,0,.2.7-.3,1-.3.2-.6-.1-.6-.1,0,0,.2.4-.4.4Z"/>
            <path class="st1" d="M69.4,33.1c0-.4,1-.8,2.4-.9,1.4-.2,2.5,0,2.5.4s-1,.8-2.4.9c-1.3.1-2.4,0-2.5-.4ZM71.7,33.2c.8-.1,1.4-.2,1.3-.5,0-.1-.7-.2-1.5-.1-.8.1-1.5.3-1.5.4.1.2.9.2,1.7.2Z"/>
          </g>
          <g>
            <path class="st1" d="M69,37.7c-.3,0-.6-.2-.8-.6-.1-.3.2-.6.2-.6h.2c.2,0,.2-.1.2-.3s-.2-.3-.3-.3c-.2,0-.4.1-.6,0-.1,0-.1-.2,0-.3,0-.1.1-.2.1-.3s-.2-.2-.3-.2-.3.1-.2.2c0,.2.1.2.2.3s.1.2,0,.3l-.4.2h-.1c-.2,0-.3.1-.3.3s.1.3.3.3c.1,0,.2-.1.3-.2,0,0,.3.2.2.5,0,.3-.1.5-.6.7-.4.1-.7-.1-.7-.1,0,0-.1.4-.5.3-.6-.1-.7-.8-.7-.8,0,0,.2,0,.4-.3.1-.3-.1-.4-.4-.5-.2,0-.4.2-.6.1-.2-.1.1-.6-.2-.7-.3-.2-.5.2-.5.2,0,0,.4.5,1,1.3.5.7,1.1,1.5,1.1,1.5l-.3.2s-.4-.7-1.2-1.6c-.6-.8-1.1-1.3-1.1-1.3,0,0,0-.1.1-.2.2-.2.5-.5.9-.3s.2.8.2.8c0,0,.2-.2.6-.2.4.1.7.4.7.7-.1.5-.4.6-.4.6,0,0,0,.2.3.1.2,0,.4-.3.4-.3,0,0,.5.5.8.1,0,0,0-.1.1-.1h-.1c-.4,0-.7-.3-.7-.7s.3-.7.6-.7h.2c-.1-.1-.3-.2-.3-.5s.3-.6.6-.6.7.3.7.6c0,.2-.1.3-.2.4h0c.1-.1.2-.1.4-.1.4,0,.7.3.7.7s-.3.7-.6.7h-.1c.1.1.3.2.4.2.4.1.5-.3.5-.3,0,0,.2.2.4.1.3-.1.3-.3.3-.3,0,0-.3,0-.6-.3-.2-.3-.2-.6.2-.8.3-.2.7-.1.7-.1,0,0-.4-.4-.1-.8.3-.3.7-.2,1-.1l.4.2s-.3.5-.5,1.5c-.3,1.3-.5,2-.5,2l-.3-.1s.2-1.1.4-1.9c.2-.9.4-1.2.4-1.2,0,0-.3-.3-.5,0s.3.5.1.7c-.2.2-.5,0-.6.1q-.2.2-.1.4c.1.2.4.1.4.1,0,0,.2.7-.3,1-.3.2-.6-.1-.6-.1,0,0,.2.4-.4.4Z"/>
            <path class="st1" d="M65.9,38.9c0-.4,1-.8,2.4-.9,1.4-.2,2.5,0,2.5.4s-1,.8-2.4.9c-1.3.1-2.4,0-2.5-.4ZM68.2,39c.8-.1,1.4-.2,1.3-.5,0-.1-.7-.2-1.5-.1-.8.1-1.5.3-1.5.4.1.2.9.2,1.7.2Z"/>
          </g>
        </g>
        <path class="st1" d="M51.6,30.3c-1.1,1.2-.4,3-.6,4.5-.4,1.3-1.8,2.1-2.2,3.4-.1.7-.2,1.8.3,2.3,0-.1-.1-.2-.1-.2-.2-1.5.3-2.6,1.6-3.9,2-2.3-.3-4.1,1.6-5.9l-.6-.2Z"/>
        <path class="st1" d="M56.3,44.7c.9,0,1.5-.1,2.4-.4.9-.3,1.6-.5,2.4-.8,1.8-.6,2.8-1,4.7-1h.2c.5,0,1,.1,1.5.2l.8.4c1.2,1,1.3,1.6,2.8,2.5.7.3,1.3,1,1.8,1.1-.2-.2-.5-.3-.9-.8-.7-.6-1.9-2.2-3.2-3.2-.7-.4-1.5-.7-2.3-.7-1.6-.3-3.5.2-4.9.8-1.5.5-2,.6-3.6.8-.6.1-1,.1-1.5-.1-.2-1.6-.8-1.3-.6-3.2.6-2.3.4-4.2-.4-6,.2-.6.2-1.6-.3-2.1-.4-.4-1.6-.5-1.9.2.1.6,1,.2,1.4.5.5.1.4.7.4,1-.1.9-1.2,1.4-1.9,1.6.3.5,1.3.2,1.7-.1.4.9.6,1,.8,2,.1,1.8-.4,1.8-1.1,2.9-.3.6-.3,1.4.2,2.7-.1-1.9.1-2,.7-2.9,0,0-.2.8-.2,1.5,0,.9.5,1.2.5,2-.2.7-.2.9-.6,1.5-.8,1.1-2.3,1-2.9,3.8,1.1-1.6,1.3-2,2.4-2.6,1-.3,1.3-.8,1.6-1.6Z"/>
        <path class="st1" d="M45.9,35.3c.5.4.6.8,1,1.2-.2-.1-1.4-.9-2-.7-.9.1-2.1.9-3,0-.5-.2-.9-1.2-1-1.7.5.9,1.4,1.7,2.6,1.5.6-.1.9-.2,1.5-.2.3,0,.7,0,1,.3-.4-.4-.9-.7-1.5-.7-1.4,0-2.8.6-3.6-1,.8.6,2.4.7,3.7.7.5.2,1,.3,1.3.6ZM43.8,33c-.1.2-.3.5-.2.7l.4-.5c-.1,0-.1-.1-.2-.2ZM44.7,33.6c.1.2.2.3.2.5.2,0,.2-.3.4-.3l-.6-.2ZM44.9,34.6c-.1-.4-.2-.8-.7-.9-.4-.2-.8.8-.9,0-.2-.5.4-.8-.1-1.3-.4-.7.2-.8,0-1.6,0-.5-.1-1.2.6-1.3,1.1-.3,2.2-.3,3.3.1.3-.3.4-.4.4-.6,0,0,.5-.1.8.1.3.1.7.3.7.3-.3,0-.9.1-.8.5.2.5.7-.2,2,.6.1.1.3.2.3.5-.6-.3-1-.2-1.5-.4-.4-.1-.5-.1-1-.1-.2,0-.8.5-.8.2,0,0,0-.2-.1-.5s-.2-.3-.5-.4c-1.3-.3-2-.2-2.8-.1-.3.1-.4.5-.3.8.3.5.3.4.6.4.2-.1.4-.5.8-.5.3,0,.5,0,.6.3v.2c-.1-.2-.4-.1-.6-.1q-.1.1-.1.2c.1.2.2.1.4.1-.1.2-.8.3-1.2.3-.2,0-.2.2-.2.2-.2.2-.1.4,0,.6.6.8,1.7.8,2.6,1.4.2.1.4.5.5.7-.4-.2-.5.4-.5.5l.2-.1c.1,0,.5-.2.5-.2.2.2.1.5.2.8.1-.2,0-.5.2-.8.3,1,.9,2.8-.6,5.1-.8,1.5-.7,1.9-.6,3.9-1-2.2-.2-3.2,0-4.6,0-.1,0-.3-.1-.4,0,.6-.1.9-.5,1.5-.7.9-.8,2-.4,2.9.3,1,.6,1.3.5,2.3-.2,1-.4,1.5-.1,2.8h0c-.8-1.5-.5-2-.5-2.9,0-.8-.1-1.5-.6-2.1l.3.2c-.3,1.8-2.7,1.9-1.8,4.3.3.5,1,1.6,1,2.1-.5-.9-1.1-.9-1.6-1.9-1.2-.2-2.1.6-3.2,1-.6.2-1.3.5-2.4-.5,2.1.8,3.5-.6,4.8-1.1.7-.3.4-.9.5-1.3.2-1.4,1.6-1.3,2-2.7,0-1.1-.1-1.8.2-2.6.3-.8.9-.5,1-1.5.3-1.1-1.3-1.2-1-2.6.2.3.6.4.9.6.6.3,1.2.7,1.6,1.2,0-.2-.5-.9-.7-1.1l-.6-.4c.1-.2.3-.3.5-.5-.1.6.7.9,1,1.3.2-.9,0-1.8-.2-2.6,0,0-.3,0-.5.2-.3-.6-.1-.9,0-1.3,0-.2-.2-.1-.3-.1-.2.1-.3.2-.3.2l-.3-.5c-.2.7-.5,1-.6,1.2"/>
        <path class="st1" d="M54.3,33.7c.1.3-.1.6-.2.8s-.3.2-.4.2c0-.2.5-.5.2-.8l-.5-.4c.2-.2.8-.2.9.2Z"/>
        <path class="st1" d="M45.5,37.2c-.1,0-.3,0-.4-.1-.5-.2.1-.4.1-.7.2.2.1.5.3.8Z"/>
        <path class="st1" d="M47.5,42.7c0,1-.1,1.7-.3,2.3-.2.6-.3.8-.7,1.5.4-.9.5-1.6.6-2.7.1-.9.1-2.3.4-3.1l.3-.9c-.2,1.5-.2,2.2-.3,2.9Z"/>
        <path class="st1" d="M35.4,53.1c.2-.3.4-.2.5-.3.2.2.1.4.4.5.4.2.9-.2,1.2-.4,0,0,.7.5,1.2.5.4,0,.6-.4,1-.4s.6.5.6.5c0,0,.4,0,2.4-.4,2-.3,1.5,1,1.5,1,0,0,.8.2,1.6-.7.6-.7,1.2-1.6,1.4-2.5.2-.9.2-4.2.2-4.2,0,0-.6,1.5-.6,2.4-.1.9-.2,1.9-1,3-.2.2-.8.5-.8.5.1,0-.2-.5-.5-.7-.4-.3-.7-.3-.7-.3,0,0-1.5,1-2.1,1s0-1,0-1c0,0-1.7.6-2.6.9-.9.3-1-.2-1-.2-.4.1-1.3.5-1.8.3-.5-.3-.7-.5-.9-.2l-.5.5c-.5-1.1.8-1.5,1.2-1.9l-.8-.1c-.3-.1-.5-.5-.4-.7-.5,0-.9.2-1.2.3.1-.9,1.2-.5,1.6-1.1.1-.2.4-.3.8-.1,0,0-1-.6-.9-.9.3-1,1.9.5,2.3.7-.1-.2-.3-.3-.4-.5-.7-1.5-2.4-1.2-3.1,0,.1.1.6-.3.7.1.1.2.3.4.3.5-.4.2-.7.2-1,.4-1.1.4-1.1,1.8-1.1,1.8,0,0,1.1-.2,1.4-.3,0,0,.1,0,.1-.1.2.5.7.2.1,1.2-.3.6.3,1.6.3,1.6,0,0,.3-.3.6-.7Z"/>
        <path class="st1" d="M49.5,45.3c-.3.4-1.2,2.1-1.3,3.7-.3-1.4,0-2.5,1.1-4.4,1.6-2.3.8-4.6.9-5.3,1.2,4.2-.2,5.2-.7,6Z"/>
        <path class="st1" d="M44.4,47.7c.1.3.2.8.5,1.4.2.4.5,1.1.2,2.6-.3-2-.5-2-.9-2.7-.3-.5-.5-1.4-.4-2.2,0-.2.4-.8.5-1,0,.5-.1,1.4.1,1.9Z"/>
        <path class="st1" d="M48.8,50.4c-.5.8-1,1.3-1.3,1.6.3-2.3,1.7-2.6,2.3-5.4,0,1.1-.4,3.1-1,3.8Z"/>
        <path class="st1" d="M58.3,53.6c.3.1.6.2.8.3-.4-.1-1.1-.3-1.4-.3h-.4c-1-.1-2.2-.4-3-.1-1.3.6-2.7,1.6-3,2.4-.7,1.5-2.4.3-3.6,1.6-.3-.3.2-.8.8-1.3.5-.2,1.7.1,2.1-.4.3-.3-.4-1-1.2-.6-1,.4-1,.9-1.6,1.3,0-.7.7-1.7,1.7-1.8.5-.1,1,.2,1.6.1.6-.4,1-.6,1.8-1.1.5-.3,1-.4,1.6-.5,1.4-.1,2.6.2,3.8.4Z"/>
        <path class="st1" d="M45.9,37.4s-.1,0-.4-.1-.7-.3-.7-.3c-.1,0-.2-.1-.2-.1,0,0,.1-.1.2-.1s.5.1.8.2c.3.2.5.3.5.3l-.2.1Z"/>
        <path class="st1" d="M54.8,31.4s0,.1.1.4c.1.3.2.4.2.4,0,0-1.2,0-1.1-.1.1-.2.2-.3.1-.4-.1-.1-.2-.3-.2-.3h.9Z"/>
        <path class="st1" d="M47.6,34.9c-.1-.4-.3-.6-1.1-1.1-.8-.4-1.5-.6-1.8-.7-.3-.1-.8-.3-.7-.2.1,0,1.7.9,2,1.1.3.1.8.3.9.5q.2.2.3.4c.1.2,0,.5.1.8s.3.3.3.3c0,0,.2-.6,0-1.1Z"/>
        <path class="st1" d="M45.4,32c.5,0,.7,0,1.1.2.3.1.5.7.7,1,0,0-.9-.9-1.5-.9-.2-.1-.5-.3-.3-.3Z"/>
        <path class="st1" d="M45,32.5c.3-.1.4,0,.7.1.2.1.3.3.5.5l-.2-.1-.2-.2c-.3-.2-.4-.2-.6-.2-.2,0-.4-.1-.2-.1Z"/>
        <path class="st1" d="M52.6,31.4s-.5.5-.6,1.4.1,1.9.3,2.9c.1,1,0,1.7-.4,2.4-.3.5-.6,1.3-.5,2.1,0,1,.8,1.9.8,1.9,0,0-.6-1.2-.4-2.3s.9-1.8,1-2.6,0-1.6-.3-2.6c-.4-1.5-.4-2.4.1-3.2Z"/>
        <path class="st1" d="M51.5,45.5s.6-1,.6-1.9-.6-1.8-.7-2.7c-.2-.9-.2-1.1,0-1.8s.8-1,.8-1c0,0-.5.9-.5,1.4,0,.6-.1.9.3,1.9.3,1.1.7,2.1.5,2.8-.3.8-.6,1.2-.8,1.5-.4.4-.5.5-.2-.2Z"/>
        <path class="st1" d="M49.8,52.2c-.1.1-.3.2-.5.3s-.4.1-.4.1c0,0,.2-.3.8-1,.9-1.3.8-2.6,1.1-4,.2-1,1-2.1,1.3-2.7.3-.5.1-2.2.1-2.2-.1,2.8-1.6,2.7-1.9,4.9-.1,1.2-.5,2.6-1.5,3.8-.8,1.1-2.1,2.2-3.5,2.7,1.6.3,2.7-.1,4-.2.3,0,1,0,1.4.1h0c.3.1.4-.2,1.2-.7.6-.3,1.1-.5,1.6-.7.7-.2,1.3-.3,1.9-.3,0,.2,2.3.2,2-.1-.1-.5-1-.1-.7-.4-.8.4-1,.1-2,.3,0,0-.8.1-1.4.1,0,0-.4,0-.7-.1-.6-.3-.5-.8-.5-.8v-.8c0-.4-.1-1-.1-1,0,0-.9,1.9-2.2,2.7Z"/>
        <path class="st1" d="M68.7,46.2s-1.2-1.4-2.5-1.7-3.7.1-5.2.8c-1.5.8-2,1.8-2.8,3.2,0,0-.3.5-.5,1.1-.3.8-.3,1.1.2,1.3.2.1,1.3-.4,1.3-.4-.2-.3-1.1-.2-1.1-.2,0,0,.4-.6.8-.8s1-.1,1-.1l-.5-.3s0-.3.5-1.4c.5-1.1,1-2,2.9-2.5s2.9-.6,4-.1c1,.4,1.9,1.1,1.9,1.1Z"/>
        <path class="st1" d="M67.5,53.5s-.6-.4-1.3-.7c-.6-.3-1.5-.5-1.5-.5,0,0,2.1-.4,3.2-.6.7-.2,1.1-.3,1.5-.5.5-.2.6-.5.6-.5,0,0,.3-.1.6-1.1.3-.8-.1-2.2.1-2.4.3-.5,2.6.1,3.6,1.7.7,1.1.1,3,.1,3,0,0,.6-.3.7-1.9.1-2-2.2-3.1-2.2-3.1,0,0,1.4.3,2.2,1.7.8,1.4.3,3.2-.9,4.7-1.2,1.5-3.9,1.5-4.9,1.3,0,0,.5.6.7,1.1.3,1-.1,1.6-.5,1.9-.3.2-2.3.3-2.9.3s-.9,0-1.8.1-1.9-.1-2.3-.1c-.2,0-.4.1-1,.2-.9.2-.9,0-.9,0,0,0,.2-.4-1-.3-.8.1-1.4.1-1.4.1,0,0-.7.3-1.8.1s-1.2-.9-1.2-.9c0,0,.9.4,1.8.4s1.4-.5,1.4-.5c0,0,.2.4,1.2.1.5-.2.8-.4.8-.4,0,0,1.8.1,2,.1.6.1,2,.2,2,.2,0,0,.2,0,1.3.1.8.1,1.4.1,1.4-.1s-.6-.4-.6-.4c0,0,1.1.1,1.6.2.4,0,.7-.1.9-.2.2-.1.3-.8,0-1-.3-.3-.2-.3-.6-.5-1-.5-.8-.7-.8-.7,0,0-.3-.4.3-.1.3.1-.1-.4-.1-.4,0,0,0-.3-.3-.4ZM71.7,48.1s.1,2.1-.5,3c-.6,1-2,2.1-2,2.1,1.6.6,4.4-.2,4.9-1.8.4-1.5-.2-2.8-.9-3.2-.9-.5-1.5-.1-1.5-.1Z"/>
        <path class="st1" d="M63.1,51.8s.2.1.5.2c.3.1,1.4.5,1.4.5,0,0,.5.1.7-.2.4-.4-1,0-.9-.4,0-.1-.2-.3-.2-.3,0,0-.4-.1-.7-.1-.7.1-.8.3-.8.3Z"/>
        <path class="st1" d="M53.4,52.3s1.1,0,2.2-.3,1.3-.6,1.8-.7c.4-.1,1.1-.1,1.1-.1,0,0-.2.1-.3.4-.1.3.1.5.1.5,0,0,.4-.2.7-.1.3.1.4.3.4.3,0,0-.3.5.1.6s1,.1,1.8.4c.9.3,1.4.4,2.1.5s1.4.4,1.4.4c0,0,.1.1-.1.2-.3.1.7.4.7.4,0,0,.1.1-.5,0-.5,0-.6,0-1.3-.2-1-.2-1.4-.2-1.4-.2,0,0-.4-.1-1-.1-.3,0-1.3-.1-2.3-.2-1-.1-1.8-.3-2.3-.5-.6-.2-1.2,0-1.2,0,0,0-.3-.3-.8-.1s-.7.8-.7.8c0,0,.3-.1.5-.1s.4.1.4.1c0,0,.2.3-.1.5-.3.2-.7.4-.7.4,0,0,0-.1-1.1-.1s-1.2-.2-1.5.4c-.4.5-.2-.8-.2-.8,0,0,.3-.4,1.7-1.1s2.6-.6,3.1-.6,1.2,0,1.9.2c.4.1,1.5.5,1.5.5,0,0-.5-.4-1.5-.8-.8-.3-3.1-.3-4.2,0s-1.5,0-1.4-.2c.2-.3,1.1-.4,1.1-.4Z"/>
        <path class="st1" d="M54,54.4s.5-.2.8-.1c.1.1.2.1.3.2.1.1.3.3.3.3,0,0-1.2.1-1,.7.3.6.9.5.9.5,0,0-.3.2-.4.5-.1.4.3.6.3.6l1,.4-.6.2s-.4-.2-.5.1c-.1.3-.1.5-.1.5,0,0-.4-.4-.5-.9s.3-.9.3-.9c0,0-.3-.3-.6,0-.3.3-.3.6-.3.6,0,0-.4-.4-.5-.9s.3-.9.3-.9l.3-.9Z"/>
        <path class="st1" d="M45.1,41.3c-.3,2.1-1.1,3.1-1.3,3.8,0,0-.2-.4-.6-.7s-1.1.2-1.1.2c0,0-.6-.8-2.1-1.4-1.2-.5-1,.5-1,.5,0,0-1-1.1-1.3-1.5-.5-.5-1-.3-1.5-.2s-1.8-.1-1.8-.1c0,0-1-.1-1-1.1,0-.7.8-1,.8-1,0,0-.6-.4-.6-1.1.1-.7.8-.7.8-.7,0,0-.6-.5-.5-.8,0-.4.6-1,1.1-1,.4-.1,2,.8,2.7,1,.6.2.4,1,1.5,1.5.5.2,1.3.4,2.4.4s1.4.4,2.7.7c1.2.3,1.3-.2,1.3-.2,0,0-.4.9-.5,1.7ZM35.4,36.6c-.4-.2-.7-.1-1,.2-.1.2-.1.7.1.8.8.1.7-.5,1.5-.4-.2-.2-.4-.4-.6-.6ZM34.6,40c-.3.1-.8.5-.7,1h0c.2.4.3.5.8.6.2-.1.4-.1.4-.3h0s-.1-.1,0-.2c.3-.3.6-.2.9-.2-.4-.4-.6-.4-.8-.5-.5-.4-.2-.7.1-.9.1-.1.7,0,.9.1l-.9-1c-.4-.2-1-.3-1.2.2,0,.1-.1.5.1.6.2.3.4.4.4.6ZM44.2,42.9s-.2-.8.1-1.4c.3-.7.8-1.2.8-1.2-.6.3-.9,0-2.4-.4s-2.3-.3-2.9-.4c-.6,0-2-.9-2.2-1.1-.2-.2-.2-.4-.3-.8-.1-.3-.5-.4-.8-.4-.3.1-.4.3-.4.3,0,0-.2,0-.5.1-.3.1-.5.4-.5.4,0,0,.3-.1.5-.1s.4.2.4.2c0,.7-.1.7.2,1.2.4.6,1.1,1.3,1.1,1.3.8.5,1.8.9,1.9,1s.7.3,1.3.5c.6.2,1.1.9,1.1.9,0,0,0-.7.9-.4.8.3,1.7.3,1.7.3Z"/>
        <path class="st1" d="M53.7,35.7s.2,1.2,0,1.7c-.4,1-1,1.2-1.1,2.2-.2,1.1.2,2.4.3,3.1.2.7.4,1.4.2,2-.2.5-.7,1.1-1,1.8s-.5,1.5-.5,1.5c0,0,.5-1,.8-1.5.4-.6,1-1.3,1.2-1.9.5-1.4-.3-2.4-.4-3.2-.2-1,.1-1.9.6-2.6.5-.7.7-1.2.8-1.8.1-.8.1-1.5.1-1.5l-1,.2Z"/>
        <path class="st1" d="M30.1,65.4s23.1-.6,28.9-1.1c1.6-.1,4.4-.2,6.1-.4,1.7-.2,4.3-.3,4.3-.3,0,0-.8.4-2.8.6-2.2.2-6.4.7-8.4.7-2.4,0-10.2.6-12.6.7-9.5.4-15.5-.2-15.5-.2Z"/>
        <path class="st1" d="M43.6,9l-5.9,26.4s0,.3.1.4c.2.1.3.1.5.2.2.1.4.3.4.3,0,0-.4,0-1-.2-.5-.2-.6-.5-.6-.5l6-26.5c.2-1.1.6-3.5.7-4.1s-.1-.5-.3-.2-1,2.1-1.3,3.7c0,0-5.8,24.2-5.9,24.9-.1.7,0,1-.4,1.5-.3.6-.6.7-1,.6-.3,0-.7,0-.8.2s.2.3.5.3.7,0,1.1-.1.6-.2.6-.2c0,0,.1.2.2.3.2.2.4.3.6.4.2.1.8.3,1.2.2.4,0,.4.2.5.3.1.2.4.3.7.1.3-.1.3-.6,0-.8-.3-.3-.7,0-.8-.1-.1-.1.3-.5.9-.3.5.2.8.6.5,1.2-.2.6-.9.6-1.3.6-.4-.1-.6-.3-.7-.4-.1,0-.4-.1-.4-.1,0,0-2.5-1-2.8-1.1-.2,0-.8.1-.9.1-.2,0-.3.3-.8.2-.3,0-1.1-.4-.9-1.2.2-.6.6-.8,1.2-.7.3.1.3.3.6.4.4.1.6,0,.7-.3.1-.4,6.3-25.1,6.3-25.1.9-2.9,1.6-4.7,2.2-5.5s.9-1.4.8.3c0,1.9-.1,3.1-.5,4.8ZM33.4,35.9c.2,0,.3-.1.3-.3s-.2-.3-.3-.3-.3.1-.3.3.1.3.3.3Z"/>
        <path class="st1" d="M46.7,49.6s.1-1.9.9-4.1c.3-.9,1-2,1.1-2.9.2-1.1-.1-2.4-.1-3,.1-.6.1-1.2.1-1.2h.4s-.2,1.4-.1,2,.3,1.7.1,2.5c-.3,1.2-1,2.1-1.3,3.1-.3,1.3-.5,2.7-.6,4.1l-.5-.5Z"/>
        <path class="st1" d="M32.2,35.8c.2,0,.4-.2.4-.4s-.2-.4-.4-.4-.4.2-.4.4c0,.2.2.4.4.4Z"/>
        <path class="st1" d="M35,44.3c.3,0,.5-.2.5-.5s-.2-.5-.5-.5-.5.2-.5.5.2.5.5.5Z"/>
        <path class="st1" d="M34.4,41.8s.2-.1,0,0c-.2.2-.5.6-.4,1s.4.8,1,.9c.6.1,1.2-.2,1.3-.8.1-.6-.1-.8-.2-1-.2-.2-.8.1-.8.1.3.2.4.5.4.7,0,.3-.3.4-.5.4s-.5-.2-.4-.6c.1-.4.5-.5.5-.5,0,0,0-.2.1-.3.1-.1-1,.1-1,.1Z"/>
        <path class="st1" d="M40.6,37.8c.3,0,.5-.2.5-.5s-.2-.5-.5-.5-.5.2-.5.5c0,.2.2.5.5.5Z"/>
        <path class="st1" d="M38,53.6s.6,1.3,1.2,2.2c.6.8,1,1.4,1.4,2.1s1.5,2.5,2.5,3.7c.9,1.2,2.6,3.1,2.6,3.1,0,0-2.1-3.4-2.8-4.3-.7-.9-1.3-1.9-1.9-2.7-.6-.9-2.6-3.7-3-4.1Z"/>
        <path class="st1" d="M43.5,53.6s2.5,3.1,3.8,4.6,1.9,2.7,2.5,3.4c.6.7,2.4,2.8,2.4,2.8,0,0-.9-2-1.9-3.1s-1.8-2.4-2.6-3.3c-.8-1-2-2.6-2.6-3.1-.5-.5-1.3-1.4-1.6-1.3Z"/>
        <path class="st1" d="M51.6,56s3.2,3.9,3.7,4.5c.5.5,2.2,2.9,2.2,2.9,0,0,1.8,1.8.6.1-.3-.4-1.9-2.4-2.6-3.3s-1.5-1.8-2.2-2.6c-.6-.8-1.6-1.4-1.7-1.6Z"/>
        <path class="st1" d="M59.4,57.8s.5,1,1,1.5,1.6,1.7,1.9,2.1,2.4,2.2,2.4,2.2c0,0-.8-1.1-1.4-1.7l-1.7-1.7c-.4-.6-1.9-2.2-2.2-2.4Z"/>
        <path class="st1" d="M65,57.6s1.6,1.7,2.3,2.6c.8.9,2.6,2.4,2.6,2.4,0,0-.4-.9-.9-1.4-.6-.5-1.7-1.7-2.1-2.3-.4-.6-1.1-1.2-1.1-1.2l-.8-.1Z"/>
        <path class="st1" d="M39.5,61.6s2.5-.3,3.6-.3c1.1-.1,5-.1,6.5-.1,1.4,0,7.2-.5,9.2-.5,2-.1,5.3-.5,6.1-.5s7.6-.1,7.6-.1c0,0-1.1.3-3.2.4-.4,0-4.8.4-5.5.4h-2.6s-1.9.2-2.9.1c-1,0-2.9.2-2.9.2,0,0-.9,0-2.1.1s-3.3,0-3.5.1-1.9.2-3.3.3c-1.4,0-2.7,0-2.9-.1-.2-.1-1.3.1-2,.1-.6,0-2.1-.1-2.1-.1Z"/>
        <path class="st1" d="M53.7,57.2h-3.8c-.7,0-2.9.2-2.9.2,0,0-2-.1-3.1-.1-1,0-5.6.3-5.6.3,0,0,1.5.2,5.7.1h3.5c.4,0,2.3,0,2.9-.1,3.3-.2,3.3-.4,3.3-.4Z"/>
        <path class="st1" d="M46.3,54.3s-3.2,0-4.4.1c-1.3.1-3.8.1-3.8.1,0,0,.8-.2,2-.2,1.2-.1,2.3,0,3-.1,1.2-.1,3.2.1,3.2.1Z"/>
        <path class="st1" d="M26,43.4h-.3l-.1.1h0c-.1.2-.2.4,0,.5.1.2.4.1.4.5h0v-.1h0c0,.1-.1.1-.1.2v.3h0c.1.3.4.4.7.5-.1.1-.2.3-.2.5v.2h0c.1.2.3.3.5.4v.2c-.1.2,0,.5.2.7.1.1.3.2.4.3.1.2-.1.4-.1.7s.3.6.6.6c0,0,.1,0,.1.1,0,.2-.2.3-.2.6s.3.4.6.6c0,.1,0,.2-.1.3-.1.4.2.8.6.9,0,0,.1.1.2.1h.1v-.1c-.2-.2-.4-.3-.4-.6.2-.4.1-.9-.4-1v-.1c.1-.3.2-.5.1-.8-.1-.2-.3-.3-.5-.3v-.1c0-.2.1-.4.1-.7-.1-.3-.3-.5-.6-.6h-.1c.2-.4.1-1-.4-1.1l-.1-.1v.1-.1c.1-.3.2-.6-.1-.8-.2-.1-.4-.1-.5-.3l-.1-.1v.1-.1h0l.1-.1v-.2c0-.3-.3-.5-.6-.6-.1,0-.1-.1-.1-.2v-.1h.1c0-.3.1-.2.2-.3h0Z"/>
        <path class="st1" d="M28.5,42.9c0-.1,0,0,0,0h-.1l-.1.1h0c-.1.2-.2.4,0,.5.1.2.4.1.4.4h0v-.1h0c0,.1-.1.1-.1.2v.3h0c.1.3.4.4.7.5-.1.1-.2.3-.2.5v.2h0c.1.2.3.3.5.4v.2c-.1.2,0,.5.2.7.1.1.3.2.4.3.1.2-.1.4-.1.7s.3.6.6.6c0,0,.1,0,.1.1,0,.2-.2.3-.2.6s.3.4.6.6c0,.1,0,.2-.1.3-.1.4.2.8.6.9,0,0,.1.1.2.1h.1v-.1c-.2-.2-.4-.3-.4-.6.2-.4.1-.9-.4-1v-.1c.1-.3.2-.5.1-.8-.1-.2-.3-.3-.5-.3v-.1c0-.2.1-.4.1-.7-.1-.3-.3-.5-.6-.6h-.1c.2-.4.1-1-.4-1.1l-.1-.1v.1-.1c.1-.3.2-.6-.1-.8-.2-.1-.4-.1-.5-.3l-.2-.2v.1-.1h0l.1-.1v-.2c0-.3-.2-.4-.5-.5-.1,0-.1-.1-.1-.2v-.1h.1c-.1-.1,0-.1.1-.1t-.1-.1,0,0h0Z"/>
        <path class="st1" d="M30.9,42.6c-.3.3-.1.9.3,1,.2.2,0,.2-.1.4h0v.1h0c.1.2.2.4.4.5h.1l-.1-.1h0c.1.1.3.2.2.4-.2.4,0,.8.4,1h0l-.1-.1.1.1c.1,0,.1.1.1.1,0,.1,0,.2-.1.3-.2.4.2.7.5.9.1,0,.1.1.1.2-.1.3-.2.7.1,1,.2.2.4.3.5.6,0,.1.1.1.1.1.1,0,.1-.1.1-.1.1-.2.1-.5-.1-.7-.1-.1-.2-.2-.4-.3,0,0-.1-.1-.1-.2.1-.3.1-.7-.1-.9-.1-.1-.3-.2-.4-.3-.2-.3.1-.5,0-.8q0-.1-.1-.2h0l-.1-.1-.1-.1c-.2-.1-.3-.2-.4-.4-.1-.2.1-.5,0-.7v-.1l-.1-.1h-.1c-.1-.1-.2,0-.2-.1l-.1-.1v.1-.1q-.1,0-.1-.1c.1-.3.1-.6-.3-.8-.2-.1-.1-.3-.1-.5q0-.1-.1-.2c.4.2.3.2.3.3h0Z"/>
        <path class="st1" d="M23.5,43.8c-.3.3-.1.9.3,1,.2.2,0,.4-.1.6h0v.1h0c.1.2.2.4.4.5h.1l-.1-.1h0c.1.1.3.2.2.4-.2.4,0,.8.4,1h0l-.1-.1.1.1c.1,0,.1.1.1.1,0,.1,0,.2-.1.3-.2.4.2.7.5.9.1,0,.1.1.1.2-.1.3-.2.7.1,1,.2.2.4.3.5.6,0,.1.1.1.1.1.1,0,.1-.1.1-.1.1-.2.1-.5-.1-.7-.1-.1-.2-.2-.4-.3,0,0-.1-.1-.1-.2.1-.3.1-.7-.1-.9-.1-.1-.3-.2-.4-.3-.2-.3.1-.5,0-.8q0-.1-.1-.2h0l-.1-.1-.1-.1c-.2-.1-.3-.2-.4-.4-.1-.2.1-.5,0-.7v-.1l-.1-.1h-.1c-.1-.1-.2,0-.2-.1l-.1-.1v.1-.1q-.1,0-.1-.1c.1-.3,0-.7-.3-.9-.2-.1-.1-.3-.1-.5q0-.1-.1-.2c.4.1.4.2.3.2h0Z"/>
        <path class="st1" d="M26.1,50.3c-.1.2,0,.5.2.6.1.1.1.2.1.3,0,0,0-.1-.1-.1v.4c.1.3.4.4.6.6.1.1.2.1.3,0s.1-.2,0-.3-.3-.2-.4-.3l-.1-.1v.1-.1c.2-.3,0-.8-.4-.8,0,0-.1.1-.1,0-.1-.1-.1-.2-.1-.3h0Z"/>
        <path class="st1" d="M27.9,53.7q-.1,0,0,0h0l-.1-.1-.1.1c-.3.3,0,.7.1,1,0,0-.1.1-.1.2-.2.2-.3.5,0,.7.1.1.4.3.3.5-.1.2-.4.4-.4.7,0,.2.2.3.3.5.2.3-.2.5-.2.8-.1.2,0,.5.3.6.1.3-.2.5-.3.7h0v.2c0,.1.1.2.1.2.1.1.3.2.2.3,0,.3-.2.4-.4.6-.1.1-.1.2-.1.3.1.1.2.1.3.1.4-.2.6-.5.7-.9,0-.2-.1-.4-.3-.6v-.1.1-.1c.1-.2.3-.4.3-.7,0-.2-.2-.5-.3-.6.2-.3.3-.6.3-.9s-.3-.4-.3-.6.2-.3.2-.5c.1-.3-.1-.6-.2-1,.1-.2.2-.4.1-.6-.1-.2-.4-.4-.3-.7v-.1h-.1c-.1,0,0,0,0-.1h0c0-.1-.1-.1-.1,0h.1Z"/>
        <path class="st1" d="M30.3,53.5c-.1,0-.2,0-.3.1-.3.3-.2.8.1,1.1v.2c-.2.3-.4.6-.2,1,.1.2.2.3.3.5v.2c-.4.3-.4.9,0,1.3.1.2,0,.4-.1.5l-.1.1v.2c-.1.3.1.6.3.9v.2c-.3.2-.5.5-.4.9,0,.1.1.2.2.2s.2-.1.2-.2v-.2c.1-.2.4-.4.4-.7.1-.3-.1-.5-.3-.7v-.3.1-.1c.3-.2.3-.5.2-.8,0-.5-.2-.6-.2-.8-.1-.3.1-.5.2-.8v-.2c-.1-.2-.2-.5-.1-.7,0-.2.2-.4.3-.6.1-.4-.2-.6-.4-.9-.2-.1-.1-.3-.1-.5q.1,0,0,0,.1,0,0,0h0Z"/>
        <path class="st1" d="M32.7,53.1c-.1,0-.2,0-.3.1-.4.5,0,1,.2,1.5-.1.1-.1.2-.1.2-.4.4-.2,1,.1,1.4h0c0,.1.1.1.1.2-.1.3-.3.5-.3.8,0,.2.1.4.2.6.1.1.2.3.1.4-.4.4-.1,1,.1,1.4,0,.3-.1.5-.3.7-.1,0-.1.1,0,.2,0,.1.1.1.2,0,.1,0,.3-.1.4-.2.3-.4.3-.9-.1-1.2-.3-.3,0-.6,0-.9s-.1-.5-.3-.8c-.1-.1-.1-.3,0-.4.1-.3.3-.6.3-.9h0c0-.1-.1-.1-.1-.1h0c0-.2-.2-.4-.1-.6l-.1.1c.3-.2.5-.7.4-1.1-.1-.5-.6-.8-.4-1.4.1.1.1,0,0,0,.1,0,0,0,0,0h0Z"/>
        <path class="st1" d="M35.5,53.9c-.3,0-.3.3-.4.5,0,.2.1.4.2.6,0,0,.1.1,0,.2-.1.2-.3.4-.3.6,0,.3.2.6.4.8h.1l-.1-.1h0c0,.3-.3.5-.4.7-.1.3.1.6.3.9v.1c-.2.2-.3.4-.3.7s.3.5.5.8c0,.3-.1.7-.4.9v.1h.1c.2-.1.5-.2.6-.4.2-.2.3-.6.1-.9-.1-.2-.3-.3-.4-.5v-.2c.1-.2.2-.4.3-.6,0-.3-.2-.4-.3-.6,0-.1-.1-.1,0-.2.2-.3.5-.6.4-1h0c0-.1-.1-.1-.1-.1h0c-.1-.1-.1-.3-.2-.3.2-.3.5-.5.4-.9-.1-.3-.2-.4-.4-.6-.1-.2-.1-.3-.1-.5q.1,0,0,0c.1-.1,0-.1,0,0h0Z"/>
        <path class="st1" d="M24.4,61.8s1.9-.1,3-.3c1.2-.1,3.5,0,5.5-.1,2.2-.1,5.1-.3,5.1-.3,0,0,.2-2.2,0-3.6s-.1-4.4-.1-4.4c0,0,.5,1.8.5,2.9.1,1.1.2,2.6.3,3.3.1.7,0,.7.2,1.4.1.7.1,1.7.1,1.7,0,0-1.3.4-2.2.4-.9-.1-3.1-.2-4.2,0-1,.2-1.8.3-3.2.2-1.4-.1-2.8,0-3,.2s-.8-.5-.8-.5c0,0,2.1-.3,3.3-.2,1.2.1,3.8-.1,4.6-.2s2.1.2,2.8.1c1.6-.1,1.8-.5,1.8-.5,0,0-1.3-.1-2.9,0-1.7.1-3,.2-4.3.2s-3.3,0-4,.1c-.8.1-1.9.2-1.9.2l-.6-.6Z"/>
        <path class="st1" d="M30.3,62.9s.1.6.2,1.1c.2,1.2,1.6,2.2,1.6,2.2l.7.2-.2-.5s-1.2-1.1-1.4-1.8c-.1-.4,0-1.2,0-1.2,0,0-.9,0-.9,0Z"/>
        <path class="st1" d="M36.7,62.6s.1.6.3,1.5c.2.9,1.7,2.1,1.6,1.9.2.3.6.5.6.5h.4l-.2-.5s-1.4-1.2-1.7-1.8c-.6-1.3-.1-1.3-.3-1.7,0-.2-.7.1-.7.1Z"/>
        <path class="st1" d="M20.3,43.2l.1.2s2-.5,3.3-.7,1.8-.2,3.8-.6c2-.4,4.7-.7,4.7-.7,0,0,1,2.1,1.5,3.1.4,1,1.7,3.3,1.7,3.3,0,0-.3-1.7-.6-2.3-.4-.6-1.2-2.1-1.4-2.8-.4-.5-1-2-1-2,0,0-1.5.4-1.6.4s-.1-.1-.1-.1c0,0,0-.8-.1-1.2s-1.6-2.7-1.6-2.7l-.6-.3.2.8s.9,1.3,1.1,1.9c.2.6.2,1.7.2,1.7l-5.7,1s-.4-1.3-1-2.3c-.2-.3-1.3-.8-1.4-1-.1-.2-.3-.4-.3-.4l-.1-.2s-.2.7,0,.9c.4.6,1,.5,1.4,1,.7,1,.8,2,.8,2l-2.9.6-.4.4Z"/>
        <path class="st1" d="M31.9,42.2l.2-.3s-1.2.1-1.7.2c-.5,0-2.4.4-3.4.6-1,.2-2.8.3-3.8.5-1.1.2-3,.8-3,.8,0,0,1.2,2.5,1.6,3.7.4,1.2.6,3.2,1.2,4.4.7,1.3,2,1.5,2,1.5,0,0,1.2-.5,2.6-.6,1.5-.1,2.9-.7,4.2-.8,1.4-.1,2.5-.5,2.5-.5,0,0-.6-.5-1.5-.3s-3.1.8-3.7.9c-.6.1-1.9.2-2.5.4-.4.1-1.4.3-1.4.3,0,0-1.1-.2-1.7-1.8-.6-1.5-.6-2.1-1.3-3.6-.5-1.2-1.4-3.3-1.4-3.3,0,0,1.1-.3,1.9-.4.8-.2.9,0,2.9-.5,2-.4,4-.8,4.9-.9.5-.2,1.4-.3,1.4-.3Z"/>
        <path class="st1" d="M25.3,53.4s-.2,1.2-.1,2c.1,1.7.8,2.8.6,4s-.8,2.3-.8,2.3l-.4-.2s.6-1.6.5-2.5-.5-2.6-.5-3.5.3-2.1.3-2.1h.4Z"/>
        <path class="st1" d="M53.3,26.1c.3-.2.4-.4.4-.8,0-.5-.4-.9-.9-.9s-.9.4-.9.9v.3c-.2-.1-.5-.2-.9,0-.4.1-.7.4-.7,1s.3,1,.9,1c.1,0-.1,0,0,0h0c-.1.2-.4.6-.9.4-.7-.2-.6-.9-.6-.9,0,0-.7.5-1.2.2-.6-.3-.3-.6-.3-.6.7.1,1.3-.7,1.1-1.3-.2-.6-1-.9-1.5-.6,0,0,.1-.7-1-.8-.8-.1-1.3.9-1.1,1.4.1.2.2.3.9,1.5.7,1.2.9,1.9.9,1.9v.5s1,.1,3.3.9c2.3.8,3.9,1.7,3.9,1.7v-.3c0-.2.5-.6,1-1,1.5-1,2.2-1.2,2.9-1.6.5-.3.3-1.2-.2-1.5-1-.5-1.3.1-1.3.1-.3-.5-1.1-.5-1.6-.1s-.5,1.3.2,1.5c0,0,0,.2-.6.4-.6.1-.8-.7-.8-.7,0,0-.4.5-1.4.3-.3-.1-.5-.4-.4-.9.2.3.4.3.7.2.5,0,.9-.4.9-1,0-.5-.3-.9-.8-1M53.6,26.2c-.1,0-.2-.1-.3-.1M47.4,27.3c-.2-.5-1-1.7-1.2-2.1-.1-.3.3-.8.7-.6.4.1.4.9.4.9,0,0,.4-.6,1-.2.4.2.3.6.1.8-.3.3-.9.1-.9.1,0,0-.5.7.6,1.5.8.5,1.2,0,1.2,0,0,0,0,.5.6.7.3.1,1,.5,1.5-.6.1-.3.2-.7.1-.7h-.3c-.3,0-.5-.2-.5-.5s.2-.5.5-.5c.1,0,.3.1.4.1h0s.3.4.7,0c.1-.2,0-.6,0-.6h0v-.1c0-.2.2-.4.4-.4s.4.2.4.4-.1.3-.3.4c-.1.1-.2.2-.2.4-.1.4.6.5.6.5h0c.3,0,.5.2.5.5s-.2.5-.5.5-.5-.4-.7-.3c0,0-1,1.3.3,1.9.8.3,1.3,0,1.3,0,0,0,.3.6,1,.6,1,0,1.5-1,1.5-1,0,0-.7-.1-.7-.5-.1-.3.1-.6.5-.6.7,0,.9.6.9.6,0,0,.2-.4.6-.4.4-.1.7.5.4.7-.3.2-1.6.9-2.2,1.3-.8.5-.9.6-1.2.8-.2.2-.3.4-.4.4l-.4-.2-.7-.3c-.8-.3-.8-.4-.8-.4,0,0-.4-.2-1.3-.5s-1.5-.5-1.5-.5c0,0,.1.1-.7-.2-.8-.3-.7-.2-.7-.2l-.4-.1v-.1c-.1-.1-.3-.8-.6-1.5Z"/>
        <path class="st1" d="M48.6,30.6c.1,0,.6.4.9.7s.5.7.5.7c0,0-.6-.2-1.3,0-.7.2-.9,0-1-.2,0-.3.2-.5.2-.5,0,0-.2.3.2.4.4.1.6,0,.6,0,0,0-.4,0-.4-.3,0-.2.1-.4.3-.4,0,0-.2-.1-.6,0s-.4.4-.4.5c-.1.1-.1,0-.1-.2-.1-.5-.2-1,1.1-.7Z"/>
        <path class="st1" d="M52,23.1c.3,0,.6-.3.6-.6s-.3-.6-.6-.6-.6.3-.6.6c0,.4.3.6.6.6Z"/>
        <path class="st1" d="M47.8,23.5c0-.5.4-.9.9-.9s.9.4.9.9-.4.9-.9.9-.9-.4-.9-.9ZM48.7,23.8c.2,0,.4-.2.4-.4s-.2-.4-.4-.4-.4.2-.4.4c0,.3.2.4.4.4Z"/>
        <path class="st1" d="M49.7,22.8c0-.4.3-.7.8-.7.4,0,.8.3.8.7s-.3.7-.8.7c-.4,0-.8-.3-.8-.7ZM50.5,23.1c.2,0,.3-.1.3-.3s-.1-.3-.3-.3-.3.1-.3.3c0,.2.1.3.3.3Z"/>
        <path class="st1" d="M53.2,19.5s-.1.1-.3.4c-.1.3-.1.7-.1.7,0,0,1.1-.2,1.2.1.1.3-.1.4-.1.4l.7.2s0-.4.1-.5c.1,0,.9.6.9.6,0,0,.2,0,.4-.4.2-.4,0-.6,0-.6,0,0-1.1.2-1.1-.1s.8-1,.8-1c0,0-.2-.3-.6-.4-.5-.1-.6,0-.6,0,0,0,0,1.3-.2,1.3-.3-.1-1.1-.7-1.1-.7Z"/>
        <path class="st1" d="M48.1,24.7s.7-.6,2.1-1.2c1.3-.5,2.1-.5,2.5-.6l.8-.2s.4.7.1.8c-.3.1-.7-.1-1.4,0-.7,0-1.4.4-2.2.7-.8.4-1.2,1-1.2,1l-.7-.5Z"/>
        <path class="st1" d="M54.8,23.9c-.3-.2-.4-.5-.2-.8.2-.3.5-.4.8-.2.3.2.4.5.2.8-.1.3-.5.4-.8.2Z"/>
        <path class="st1" d="M57.2,27.8s-.3-1.3-1.2-2.5c-.8-1.2-1.5-1.6-1.8-1.9-.3-.3-.6-.6-.6-.6,0,0-.7.4-.5.6s.6.3,1.2.7,1,1.1,1.5,1.8.5,1.6.5,1.6l.9.3Z"/>
        <path class="st1" d="M56.9,26.9c-.4-.3-.6-.8-.3-1.2.3-.4.8-.6,1.3-.3.4.3.6.8.3,1.2-.3.4-.8.5-1.3.3ZM57.4,26.5c.2,0,.4-.2.4-.4s-.2-.4-.4-.4-.4.2-.4.4.1.4.4.4Z"/>
        <path class="st1" d="M52.9,22.1c0-.6.4-1,1-1s1,.4,1,1-.4,1-1,1-1-.5-1-1ZM53.9,22.6c.3,0,.5-.2.5-.5s-.2-.5-.5-.5-.5.2-.5.5.2.5.5.5Z"/>
        <path class="st1" d="M55.9,25.1c-.4-.2-.5-.7-.3-1,.2-.4.7-.5,1-.2.4.2.5.7.3,1-.1.3-.6.5-1,.2ZM56.3,24.8c.2,0,.3-.1.3-.3s-.1-.3-.3-.3-.3.1-.3.3.1.3.3.3Z"/>
        <path class="st1" d="M51.5,29.6c.2,0,.3-.2.3-.4s-.2-.3-.4-.3-.4.1-.4.3c0,.1.3.4.5.4Z"/>
      </g>
      <g>
        <path class="st0" d="M.1,112.4c1.4,0,2.4-1,2.4-2.3v-18.4c0-1.8-.9-2.7-2.3-3.1v-.8c1.4,0,2.7.1,4.1.1s2.8-.1,4.2-.1v.8c-1.5.4-2,1.3-2,3.2,0,1.1-.1,3.4-.1,6.7v12.6c.8.1,1.5.2,3.9.2,6.3,0,7.4-1.1,8.3-3.5l1.3.7-1.6,5.1c-1.2-.4-2.3-.6-3.5-.6H2.8c-.9,0-1.9.1-2.8.1v-.7h.1Z"/>
        <path class="st0" d="M23.2,92.9c1,0,2.1.1,3.2.1,1,0,2.1-.1,3.2-.1v.6c-1.3.2-1.6,1-1.6,2.9v8.3c0,3.9,1.8,6.7,6.2,6.7,2.4,0,5.4-1.4,5.4-4.7v-3.4c0-3.4-.3-6.9-.3-8.3,0-.8-.8-1.4-1.5-1.5v-.6c1,0,2.1.1,3.1.1s2.1-.1,3.2-.1v.6c-1,0-1.4,1.2-1.4,2.2,0,1.1-.1,4.1-.1,8v6.4c0,1.6.3,2.5,1.6,2.6v.6c-.8,0-1.7-.1-2.5-.1s-1.6.1-2.4.1c.1-1,.1-1.9.2-2.8-2.1,2-3.9,3.1-6.9,3.1-4.3,0-7.7-2.5-7.7-6.9v-4.9c0-2.3-.1-4.3-.1-6.1,0-1.1-.2-2.1-1.4-2.2v-.6h-.2Z"/>
        <path class="st0" d="M50.5,112.6c1.1-.3,1.8-1.2,1.8-2.8l.1-17.3h1.2l14.3,15.7v-10c0-3.6-.8-4.5-2.2-4.7v-.6c1,0,1.9.1,2.9.1s2-.1,2.9-.1v.6c-1.3.2-1.9,1.3-1.9,3.6l-.1,16.4h-1l-14.5-15.8.1,11.1c0,2.3.7,3.3,2.1,3.7v.6c-1,0-1.9-.1-2.9-.1s-1.9.1-2.9.1v-.5h.1Z"/>
        <path class="st0" d="M77.5,112.6c1.2-.3,1.5-.8,1.5-2.1v-8.5c0-2.6-.3-4.8-.3-6.3,0-1.2-.4-2.1-1.5-2.4v-.5c1.4,0,2.7.1,4.1.1,1.3,0,2.7-.1,4.1-.1,8,0,12.8,3.5,12.8,10.1s-3.8,10.3-12,10.3c-1.5,0-2.9-.1-4.3-.1-1.5,0-2.9.1-4.3.1v-.6h-.1ZM82.1,111.8c1.4.2,2.5.2,3.6.2,5.6,0,8.4-3.4,8.4-9,0-5.3-3.7-9-8.8-9-.9,0-1.8.1-3,.1,0,2.6-.1,4.9-.1,7.3v10.4h-.1Z"/>
        <path class="st0" d="M15.7,130.6c.5-.1.8-.5.8-1.3v-8.1h.6l6.7,7.4v-4.7c0-1.7-.4-2.1-1-2.2v-.3c.5,0,.9.1,1.4.1s.9-.1,1.4-.1v.3c-.6.1-.9.6-.9,1.7v7.7h-.5l-6.8-7.4.1,5.2c0,1.1.3,1.6,1,1.7v.3c-.5,0-.9-.1-1.4-.1s-.9.1-1.3.1v-.3h-.1Z"/>
        <path class="st0" d="M31.4,121.6c-.5.1-.6.4-.6.9,0,1.3-.1,2.9-.1,4.4v2.7c0,.5.2,1,.7,1v.3c-.5,0-.9-.1-1.4-.1s-.9.1-1.4.1v-.3c.4,0,.7-.4.7-1v-2c0-1.6-.1-4.1-.1-4.9,0-.6-.1-1-.6-1.1v-.3c.5,0,.9.1,1.4.1s.9-.1,1.4-.1c0,0,0,.3,0,.3Z"/>
        <path class="st0" d="M38.3,131l-3.8-8.3c-.2-.3-.5-.9-1-1.1v-.3c.5,0,1,.1,1.6.1.5,0,1-.1,1.5-.1v.3c-.3.1-.5.2-.5.5,0,.1,0,.4.2.8l2.5,6,2.1-5.6c.2-.4.2-.7.2-.9,0-.5-.2-.8-.7-.8v-.3c.5,0,.9.1,1.4.1s.9-.1,1.4-.1v.3c-.6.1-.9.5-1.2,1.2l-3.2,8.2h-.5Z"/>
        <path class="st0" d="M45.2,130.5c.5-.1.8-.4.8-.8v-2.3c0-1.9-.1-3.8-.1-5,0-.3-.3-.6-.7-.7v-.3h5.4c.4,0,.8-.1,1.1-.2,0,.4-.1.7-.1,1s.1.7.1,1h-.5c-.2-.7-.6-1.2-1.3-1.2h-2.5v3.6h2.1c.8,0,1.1-.1,1.4-.7h.4c0,.4-.1.8-.1,1.2s.1.8.1,1.2h-.5c-.3-.9-.6-1-1.4-1h-2v3.8h2.3c1,0,1.4-.2,2-1l.4.2-.5,1.7c-.4-.2-.8-.2-1.3-.2h-5.2v-.3h.1Z"/>
        <path class="st0" d="M55.1,130.6c.5-.1.7-.3.7-.8v-3.6c0-1.2-.1-2.4-.1-3.5,0-.6-.1-1-.8-1.1v-.3c.4,0,.9.1,1.3.1s.8-.1,1.8-.1c2.5,0,3.7,1.2,3.7,2.7,0,1.4-1.3,2.3-2.5,2.6l2.8,3.2c.2.2.7.7,1,.8v.3c-.5,0-.9-.1-1.4-.1s-.9.1-1.4.1v-.3c.1,0,.1-.1.2-.2,0-.1,0-.2-.2-.4l-2.3-2.7c-.2-.2-.5-.6-.8-.6v2.7c0,.6.1,1,.8,1.1v.3c-.5,0-1-.1-1.5-.1s-1,.1-1.5.1v-.2h.2ZM57.3,126.3h.5c1.3,0,2.3-.8,2.3-2.2,0-1.3-.6-2.4-2.1-2.4-.4,0-.7,0-.7.4v4.2Z"/>
        <path class="st0" d="M65.2,129h.5c.4,1,1.2,1.5,2.2,1.5.9,0,1.8-.8,1.8-1.7,0-2.9-4.7-1.1-4.7-4.8,0-1.8,1.5-2.8,3.2-2.8.9,0,2,.3,2.4.6l.1,1.5h-.5c-.2-.9-1.2-1.5-2.1-1.5-1,0-1.8.7-1.8,1.7,0,2.4,4.7,1,4.7,4.6,0,1.8-1.5,3-3.2,3-.9,0-1.8-.1-2.7-.5v-1.6h.1Z"/>
        <path class="st0" d="M77.1,121.6c-.5.1-.6.4-.6.9,0,1.3-.1,2.9-.1,4.4v2.7c0,.5.2,1,.7,1v.3c-.5,0-.9-.1-1.4-.1s-.9.1-1.4.1v-.3c.4,0,.7-.4.7-1v-2c0-1.6-.1-4.1-.1-4.9,0-.6-.1-1-.6-1.1v-.3c.5,0,.9.1,1.4.1s.9-.1,1.4-.1v.3Z"/>
        <path class="st0" d="M88,123.1h-.6c-.1-.8-.5-1.1-1.3-1.1h-1.7c0,1.2-.1,2.7-.1,4.3v2.9c0,.8.3,1.1.9,1.3v.3c-.5,0-1.1-.1-1.6-.1s-1,.1-1.6.1v-.3c.6-.2.8-.5.8-1.3v-2.2c0-2-.1-3.9-.1-5.1h-1.8c-.8,0-1.2.2-1.3,1.1h-.5v-1.9c.5.1,1.1.2,1.6.2h6.1c.4,0,1-.1,1.3-.2v2h-.1Z"/>
        <path class="st0" d="M91.7,130.6c.7-.1.8-.4.8-1.1v-2.6l-2.6-4.3c-.3-.4-.4-.7-.8-1v-.3c.5,0,.9.1,1.4.1s.9-.1,1.4-.1v.3c-.3.1-.4.2-.4.5,0,.1.1.5.3.9l1.7,3.1,1.7-2.9c.3-.5.3-.8.3-1,0-.3-.3-.4-.6-.4v-.3c.4,0,.8.1,1.2.1s.8-.1,1.2-.1v.3c-.5.2-.7.5-1.1,1.1l-2.4,3.9v2.8c0,.7.2,1,.8,1.1v.3c-.5,0-1-.1-1.5-.1s-1,.1-1.6.1v-.4h.2Z"/>
        <path class="st0" d="M.2,118.9c.6,0,1.2.1,1.9.1.6,0,1-.1,1.6-.1v.4c-.8.1-1,.6-1,1.7v4.9c0,2.3,1.1,3.9,3.6,3.9,1.4,0,3.2-.8,3.2-2.7v-2c0-2-.2-4-.2-4.9,0-.5-.5-.8-.9-.9v-.4c.6,0,1.1.1,1.8.1.6,0,1.1-.1,1.7-.1v.4c-.6,0-.8.7-.8,1.3,0,.7-.1,2.4-.1,4.7v3.7c0,1,.2,1.5.9,1.5v.4c-.5,0-1-.1-1.5-.1s-.7.1-1.2.1c0-.6.1-1.1.1-1.6-1.3,1.2-2.2,1.8-4,1.8-2.1,0-4.4-1.5-4.4-4v-2.9c0-1.3-.1-2.5-.1-3.6,0-.7-.1-1.2-.8-1.3v-.4h.2Z"/>
      </g>
    </g>
  </g>
</svg>